SplineFontDB: 3.2
FontName: Giphurs-Black
FullName: Giphurs Black
FamilyName: Giphurs
Weight: Black
Copyright: Copyright 2023 The Giphurs Project Authors (https://github.com/Corne2Plum3/Giphurs)
UComments: "2023-01-20: Finally found a name for the font lol+AAoA-2022-06-21: Created with FontForge (http://fontforge.org)"
Version: 0.950
ItalicAngle: 0
UnderlinePosition: -204
UnderlineWidth: 102
Ascent: 1668
Descent: 380
InvalidEm: 0
UFOAscent: 1668
UFODescent: -380
LayerCount: 2
Layer: 0 0 "Arri+AOgA-re" 1
Layer: 1 0 "public.default" 0 "glyphs"
StyleMap: 0x0040
FSType: 0
OS2Version: 0
OS2_WeightWidthSlopeOnly: 0
OS2_UseTypoMetrics: 0
CreationTime: 1655845567
ModificationTime: 1720297419
PfmFamily: 17
TTFWeight: 900
TTFWidth: 5
LineGap: 0
VLineGap: 0
OS2TypoAscent: 2218
OS2TypoAOffset: 0
OS2TypoDescent: -578
OS2TypoDOffset: 0
OS2TypoLinegap: 0
OS2WinAscent: 2218
OS2WinAOffset: 0
OS2WinDescent: 578
OS2WinDOffset: 0
HheadAscent: 2218
HheadAOffset: 0
HheadDescent: -578
HheadDOffset: 0
OS2CapHeight: 1480
OS2XHeight: 1040
OS2Vendor: 'PfEd'
Lookup: 1 0 0 "c2sc_CapitalesverspetitescapitalesdansLatinlookup0" { "c2sc_CapitalesverspetitescapitalesdansLatinlookup0 subtable"  } ['c2sc' ('latn' <'dflt' > 'grek' <'dflt' > ) ]
Lookup: 1 0 0 "smcpBasdecasseverspetitescapitalesdansLatinlookup0" { "smcpBasdecasseverspetitescapitalesdansLatinlookup0 subtable"  } ['smcp' ('latn' <'dflt' > 'grek' <'dflt' > ) ]
Lookup: 1 0 0 "cv01Alternativedigit11" { "cv01Alternativedigit11 subtable"  } ['cv01' ('latn' <'dflt' > 'grek' <'dflt' > 'cyrl' <'dflt' > 'copt' <'dflt' > 'DFLT' <'dflt' > ) ]
Lookup: 1 0 0 "cv02Alternativedigit21" { "cv02Alternativedigit21 subtable"  } ['cv02' ('latn' <'dflt' > 'grek' <'dflt' > 'cyrl' <'dflt' > 'copt' <'dflt' > 'DFLT' <'dflt' > ) ]
Lookup: 1 0 0 "cv03Alternativedigit31" { "cv03Alternativedigit31 subtable"  } ['cv03' ('latn' <'dflt' > 'grek' <'dflt' > 'cyrl' <'dflt' > 'copt' <'dflt' > 'DFLT' <'dflt' > ) ]

StartChar: o
Encoding: 111 111 0
GlifName: o
Width: 1200
VWidth: 0
GlyphClass: 2
Flags: HW
AnchorPoint: "bottom_right" 791 0 basechar 0
AnchorPoint: "top_right" 1092 1040 basechar 0
AnchorPoint: "bottom_center" 600 0 basechar 0
AnchorPoint: "top_center" 600 1040 basechar 0
LayerCount: 2
Fore
SplineSet
410 520 m 256
 410 390 463 290 600 290 c 256
 737 290 790 383 790 520 c 256
 790 657 737 750 600 750 c 256
 463 750 410 657 410 520 c 256
50 520 m 256
 50 840 280 1070 600 1070 c 256
 920 1070 1150 840 1150 520 c 256
 1150 200 920 -30 600 -30 c 256
 280 -30 50 200 50 520 c 256
EndSplineSet
Substitution2: "smcpBasdecasseverspetitescapitalesdansLatinlookup0 subtable" o.sc
EndChar

StartChar: n
Encoding: 110 110 1
GlifName: n
Width: 1192
VWidth: 0
GlyphClass: 2
Flags: HW
AnchorPoint: "bottom_center" 596 0 basechar 0
AnchorPoint: "top_center" 596 1040 basechar 0
LayerCount: 2
Fore
SplineSet
762 0 m 257
 762 572 l 258
 762 682 726 750 596 750 c 256
 466 750 430 682 430 572 c 258
 430 0 l 257
 70 0 l 257
 70 1040 l 257
 418 1040 l 257
 418 920 l 257
 453 981 542 1070 692 1070 c 256
 956 1070 1122 892 1122 572 c 257
 1122 0 l 257
 762 0 l 257
EndSplineSet
Substitution2: "smcpBasdecasseverspetitescapitalesdansLatinlookup0 subtable" n.sc
EndChar

StartChar: u
Encoding: 117 117 2
GlifName: u
Width: 1192
VWidth: 0
GlyphClass: 2
Flags: HW
AnchorPoint: "top_center" 596 1040 basechar 0
AnchorPoint: "top_right" 1122 1040 basechar 0
AnchorPoint: "bottom_center" 596 0 basechar 0
AnchorPoint: "bottom_right" 1146 0 basechar 0
LayerCount: 2
Fore
SplineSet
430 1040 m 257
 430 468 l 258
 430 358 466 290 596 290 c 256
 726 290 762 358 762 468 c 258
 762 1040 l 257
 1122 1040 l 257
 1122 168 l 257
 1122 66 1146 0 1146 0 c 257
 797 0 l 257
 797 0 773 60 773 120 c 257
 738 59 650 -30 500 -30 c 256
 236 -30 70 148 70 468 c 257
 70 1040 l 257
 430 1040 l 257
EndSplineSet
Substitution2: "ss04StyleSet4lookups56 subtable" u.cv25
Substitution2: "cv25CharacterVariants25lookups66 subtable" u.cv25
Substitution2: "smcpBasdecasseverspetitescapitalesdansLatinlookup0 subtable" u.sc
EndChar

StartChar: d
Encoding: 100 100 3
GlifName: d
Width: 1250
VWidth: 0
GlyphClass: 2
Flags: HW
AnchorPoint: "bottom_cedilla" 555 -20 basechar 0
AnchorPoint: "bottom_center" 555 0 basechar 0
AnchorPoint: "top_center" 1000 1380 basechar 0
AnchorPoint: "top_right" 1180 1480 basechar 0
LayerCount: 2
Fore
SplineSet
820 510 m 256
 820 640 757 750 620 750 c 256
 483 750 410 650 410 520 c 256
 410 390 483 290 620 290 c 256
 751 290 820 380 820 510 c 256
1180 168 m 257
 1180 66 1204 0 1204 0 c 257
 856 0 l 257
 856 0 832 60 832 120 c 257
 832 80 705 -30 555 -30 c 256
 235 -30 50 200 50 520 c 256
 50 840 235 1070 555 1070 c 256
 705 1070 810 959 820 920 c 257
 820 1480 l 257
 1180 1480 l 257
 1180 168 l 257
EndSplineSet
Substitution2: "smcpBasdecasseverspetitescapitalesdansLatinlookup0 subtable" d.sc
EndChar

StartChar: b
Encoding: 98 98 4
GlifName: b
Width: 1250
VWidth: 0
GlyphClass: 2
Flags: HW
AnchorPoint: "bottom_center" 695 0 basechar 0
AnchorPoint: "top_center" 250 1380 basechar 0
LayerCount: 2
Fore
SplineSet
430 510 m 256
 430 380 499 290 630 290 c 256
 767 290 840 390 840 520 c 256
 840 650 767 750 630 750 c 256
 493 750 430 640 430 510 c 256
70 168 m 257
 70 1480 l 257
 430 1480 l 257
 430 920 l 257
 440 959 545 1070 695 1070 c 256
 1015 1070 1200 840 1200 520 c 256
 1200 200 1015 -30 695 -30 c 256
 545 -30 418 80 418 120 c 257
 418 0 l 257
 70 0 l 257
 70 0 70 66 70 168 c 257
EndSplineSet
Substitution2: "smcpBasdecasseverspetitescapitalesdansLatinlookup0 subtable" b.sc
EndChar

StartChar: p
Encoding: 112 112 5
GlifName: p
Width: 1250
VWidth: 0
GlyphClass: 2
Flags: HW
AnchorPoint: "bottom_center" 250 -360 basechar 0
AnchorPoint: "top_center" 630 1040 basechar 0
LayerCount: 2
Fore
SplineSet
430 530 m 256
 430 400 493 290 630 290 c 256
 767 290 840 390 840 520 c 256
 840 650 767 750 630 750 c 256
 499 750 430 660 430 530 c 256
70 872 m 257
 70 974 70 1040 70 1040 c 257
 418 1040 l 257
 418 920 l 257
 418 960 545 1070 695 1070 c 256
 1015 1070 1200 840 1200 520 c 256
 1200 200 1015 -30 695 -30 c 256
 545 -30 440 81 430 120 c 257
 430 -440 l 257
 70 -440 l 257
 70 872 l 257
EndSplineSet
Substitution2: "smcpBasdecasseverspetitescapitalesdansLatinlookup0 subtable" p.sc
EndChar

StartChar: q
Encoding: 113 113 6
GlifName: q
Width: 1250
VWidth: 0
GlyphClass: 2
Flags: HW
AnchorPoint: "bottom_center" 1000 -360 basechar 0
AnchorPoint: "top_center" 620 1040 basechar 0
LayerCount: 2
Fore
SplineSet
820 530 m 256
 820 660 751 750 620 750 c 256
 483 750 410 650 410 520 c 256
 410 390 483 290 620 290 c 256
 757 290 820 400 820 530 c 256
1180 872 m 257
 1180 -440 l 257
 820 -440 l 257
 820 120 l 257
 810 81 705 -30 555 -30 c 256
 235 -30 50 200 50 520 c 256
 50 840 235 1070 555 1070 c 256
 705 1070 832 960 832 920 c 257
 832 1040 l 257
 1180 1040 l 257
 1180 1040 1180 974 1180 872 c 257
EndSplineSet
Substitution2: "smcpBasdecasseverspetitescapitalesdansLatinlookup0 subtable" q.sc
EndChar

StartChar: h
Encoding: 104 104 7
GlifName: h
Width: 1192
VWidth: 0
GlyphClass: 2
Flags: HW
AnchorPoint: "bottom_cedilla" 250 -20 basechar 0
AnchorPoint: "bottom_center" 596 0 basechar 0
AnchorPoint: "top_center" 250 1380 basechar 0
LayerCount: 2
Fore
SplineSet
762 0 m 257
 762 572 l 258
 762 682 726 750 596 750 c 256
 466 750 430 682 430 572 c 258
 430 0 l 257
 70 0 l 257
 70 1480 l 257
 418 1480 l 257
 418 920 l 257
 453 981 542 1070 692 1070 c 256
 956 1070 1122 892 1122 572 c 257
 1122 0 l 257
 762 0 l 257
EndSplineSet
Substitution2: "smcpBasdecasseverspetitescapitalesdansLatinlookup0 subtable" h.sc
EndChar

StartChar: m
Encoding: 109 109 8
GlifName: m
Width: 1644
VWidth: 0
GlyphClass: 2
Flags: HW
AnchorPoint: "bottom_center" 822 0 basechar 0
AnchorPoint: "top_center" 822 1040 basechar 0
LayerCount: 2
Fore
SplineSet
642 0 m 257
 642 572 l 258
 642 682 636 750 536 750 c 256
 436 750 430 682 430 572 c 258
 430 0 l 257
 70 0 l 257
 70 1040 l 257
 418 1040 l 257
 418 920 l 257
 418 920 482 1070 632 1070 c 256
 765 1070 859 1024 918 938 c 257
 977 1024 1071 1070 1204 1070 c 256
 1468 1070 1574 892 1574 572 c 258
 1574 0 l 257
 1214 0 l 257
 1214 572 l 258
 1214 682 1208 750 1108 750 c 256
 1008 750 1002 682 1002 572 c 258
 1002 0 l 257
 642 0 l 257
EndSplineSet
Substitution2: "smcpBasdecasseverspetitescapitalesdansLatinlookup0 subtable" m.sc
EndChar

StartChar: e
Encoding: 101 101 9
GlifName: e
Width: 1200
VWidth: 0
GlyphClass: 2
Flags: HW
AnchorPoint: "bottom_cedilla" 600 -20 basechar 0
AnchorPoint: "bottom_right" 803 0 basechar 0
AnchorPoint: "bottom_center" 600 0 basechar 0
AnchorPoint: "top_center" 600 1040 basechar 0
LayerCount: 2
Fore
SplineSet
176 660 m 257
 1082 660 l 257
 780 400 l 257
 176 400 l 257
 176 660 l 257
789 368 m 257
 1096 242 l 257
 1004 65 822 -30 600 -30 c 256
 279 -30 50 200 50 520 c 256
 50 840 280 1070 600 1070 c 256
 920 1070 1150 840 1150 520 c 256
 1150 479 1145 438 1138 400 c 257
 780 400 l 257
 794 435 820 476 820 520 c 256
 820 657 737 750 600 750 c 256
 463 750 370 657 370 520 c 256
 370 390 462 290 600 290 c 256
 714 290 771 329 789 368 c 257
EndSplineSet
Substitution2: "smcpBasdecasseverspetitescapitalesdansLatinlookup0 subtable" e.sc
EndChar

StartChar: c
Encoding: 99 99 10
GlifName: c
Width: 1139
VWidth: 0
GlyphClass: 2
Flags: HW
AnchorPoint: "top_center" 600 1040 basechar 0
AnchorPoint: "bottom_center" 602 0 basechar 0
AnchorPoint: "bottom_cedilla" 602 -20 basechar 0
LayerCount: 2
Fore
SplineSet
410 520 m 256
 410 383 465 290 602 290 c 256
 706 290 761 344 782 430 c 257
 1089 252 l 257
 1001 79 823 -30 602 -30 c 256
 282 -30 50 200 50 520 c 256
 50 840 280 1070 600 1070 c 256
 821 1070 999 961 1087 788 c 257
 780 610 l 257
 759 696 704 750 600 750 c 256
 463 750 410 657 410 520 c 256
EndSplineSet
Substitution2: "smcpBasdecasseverspetitescapitalesdansLatinlookup0 subtable" c.sc
EndChar

StartChar: f
Encoding: 102 102 11
GlifName: f
Width: 1058
VWidth: 0
GlyphClass: 2
Flags: HW
AnchorPoint: "top_center" 663 1380 basechar 0
AnchorPoint: "bottom_center" 457 0 basechar 0
LayerCount: 2
Fore
SplineSet
942 1135 m 257
 910 1167 835 1190 775 1190 c 256
 685 1190 637 1150 637 1050 c 257
 637 1040 l 257
 942 1040 l 257
 942 720 l 257
 637 720 l 257
 637 0 l 257
 277 0 l 257
 277 720 l 257
 25 720 l 257
 25 1040 l 257
 277 1040 l 257
 277 1050 l 257
 277 1330 411 1510 771 1510 c 256
 892 1510 977 1482 1033 1458 c 257
 942 1135 l 257
EndSplineSet
Substitution2: "ss08StyleSet8lookups60 subtable" f.ss08
Substitution2: "smcpBasdecasseverspetitescapitalesdansLatinlookup0 subtable" f.sc
EndChar

StartChar: r
Encoding: 114 114 12
GlifName: r
Width: 887
VWidth: 0
GlyphClass: 2
Flags: HW
AnchorPoint: "bottom_center" 250 0 basechar 0
AnchorPoint: "top_center" 490 1040 basechar 0
LayerCount: 2
Fore
SplineSet
775 691 m 257
 737 730 679 750 596 750 c 256
 466 750 430 682 430 572 c 258
 430 0 l 257
 70 0 l 257
 70 1040 l 257
 418 1040 l 257
 418 920 l 257
 453 981 542 1070 692 1070 c 256
 763 1070 826 1058 882 1034 c 257
 775 691 l 257
EndSplineSet
Substitution2: "smcpBasdecasseverspetitescapitalesdansLatinlookup0 subtable" r.sc
EndChar

StartChar: t
Encoding: 116 116 13
GlifName: t
Width: 1058
VWidth: 0
GlyphClass: 2
Flags: HW
AnchorPoint: "bottom_cedilla" 640 -20 basechar 0
AnchorPoint: "bottom_center" 557 0 basechar 0
AnchorPoint: "top_center" 457 1380 basechar 0
LayerCount: 2
Fore
SplineSet
97 1028 m 261
 217 1028 301 1106 301 1226 c 261
 301 1320 l 257
 637 1320 l 257
 637 1040 l 261
 942 1040 l 261
 942 720 l 261
 637 720 l 261
 637 440 l 262
 637 340 685 290 775 290 c 260
 835 290 910 313 942 345 c 261
 1033 22 l 261
 977 -2 892 -30 771 -30 c 260
 411 -30 277 160 277 440 c 262
 277 720 l 261
 25 720 l 261
 25 1028 l 261
 97 1028 l 261
EndSplineSet
Substitution2: "ss08StyleSet8lookups60 subtable" t.ss08
Substitution2: "smcpBasdecasseverspetitescapitalesdansLatinlookup0 subtable" t.sc
EndChar

StartChar: v
Encoding: 118 118 14
GlifName: v
Width: 1174
VWidth: 0
GlyphClass: 2
Flags: HW
AnchorPoint: "bottom_center" 587 0 basechar 0
AnchorPoint: "top_center" 587 1040 basechar 0
LayerCount: 2
Fore
SplineSet
595 404 m 257
 755 1040 l 257
 1139 1040 l 257
 784 0 l 257
 390 0 l 257
 35 1040 l 257
 419 1040 l 257
 595 404 l 257
EndSplineSet
Substitution2: "smcpBasdecasseverspetitescapitalesdansLatinlookup0 subtable" v.sc
EndChar

StartChar: w
Encoding: 119 119 15
GlifName: w
Width: 1832
VWidth: 0
GlyphClass: 2
Flags: HW
AnchorPoint: "bottom_center" 911 0 basechar 0
AnchorPoint: "top_center" 911 1040 basechar 0
LayerCount: 2
Fore
SplineSet
329 0 m 257
 35 1040 l 257
 415 1040 l 257
 560 440 l 257
 731 1040 l 257
 1091 1040 l 257
 1272 440 l 257
 1417 1040 l 257
 1797 1040 l 257
 1503 0 l 257
 1071 0 l 257
 911 540 l 257
 751 0 l 257
 329 0 l 257
EndSplineSet
Substitution2: "smcpBasdecasseverspetitescapitalesdansLatinlookup0 subtable" w.sc
EndChar

StartChar: x
Encoding: 120 120 16
GlifName: x
Width: 1212
VWidth: 0
GlyphClass: 2
Flags: HW
AnchorPoint: "bottom_center" 606 0 basechar 0
AnchorPoint: "top_center" 606 1040 basechar 0
LayerCount: 2
Fore
SplineSet
349 520 m 257
 35 1040 l 257
 452 1040 l 257
 606 743 l 257
 757 1040 l 257
 1177 1040 l 257
 863 520 l 257
 1177 0 l 257
 757 0 l 257
 604 300 l 257
 455 0 l 257
 35 0 l 257
 349 520 l 257
EndSplineSet
Substitution2: "Single Substitution lookup 62 subtable" multiply
Substitution2: "smcpBasdecasseverspetitescapitalesdansLatinlookup0 subtable" x.sc
EndChar

StartChar: y
Encoding: 121 121 17
GlifName: y
Width: 1216
VWidth: 0
GlyphClass: 2
Flags: HW
AnchorPoint: "bottom_center" 374 -360 basechar 0
AnchorPoint: "top_center" 629 1040 basechar 0
LayerCount: 2
Fore
SplineSet
772 -158 m 257
 690 -384 581 -470 302 -470 c 256
 181 -470 91 -439 35 -415 c 257
 131 -95 l 257
 163 -127 242 -150 302 -150 c 256
 362 -150 416 -107 431 -44 c 257
 443 0 l 257
 77 1040 l 257
 461 1040 l 257
 637 404 l 257
 797 1040 l 257
 1181 1040 l 257
 826 0 l 257
 772 -158 l 257
EndSplineSet
Substitution2: "smcpBasdecasseverspetitescapitalesdansLatinlookup0 subtable" y.sc
EndChar

StartChar: l
Encoding: 108 108 20
GlifName: l
Width: 665
VWidth: 0
GlyphClass: 2
Flags: HW
AnchorPoint: "bottom_center" 351 0 basechar 0
AnchorPoint: "top_center" 250 1380 basechar 0
LayerCount: 2
Fore
SplineSet
560 306 m 257
 660 14 l 257
 634 1 586 -30 498 -30 c 256
 314 -30 70 62 70 362 c 258
 70 440 l 257
 70 578 l 257
 70 1480 l 257
 430 1480 l 257
 430 578 l 257
 430 440 l 257
 430 362 l 258
 430 312 446 290 498 290 c 256
 517 290 547 297 560 306 c 257
EndSplineSet
Substitution2: "ss08StyleSet8lookups60 subtable" l.ss08
Substitution2: "smcpBasdecasseverspetitescapitalesdansLatinlookup0 subtable" l.sc
EndChar

StartChar: k
Encoding: 107 107 21
GlifName: k
Width: 1163
VWidth: 0
GlyphClass: 2
Flags: HW
AnchorPoint: "bottom_center" 584 0 basechar 0
AnchorPoint: "top_center" 250 1380 basechar 0
LayerCount: 2
Fore
SplineSet
285 643 m 257
 682 660 l 257
 1158 0 l 257
 738 0 l 257
 285 643 l 257
430 344 m 257
 430 0 l 257
 70 0 l 257
 70 1480 l 257
 430 1480 l 257
 430 808 l 257
 662 1040 l 257
 734 1040 1054 1040 1126 1040 c 257
 430 344 l 257
EndSplineSet
Substitution2: "smcpBasdecasseverspetitescapitalesdansLatinlookup0 subtable" k.sc
EndChar

StartChar: s
Encoding: 115 115 22
GlifName: s
Width: 1066
VWidth: 0
GlyphClass: 2
Flags: HW
AnchorPoint: "top_center" 529 1040 basechar 0
AnchorPoint: "bottom_center" 529 0 basechar 0
AnchorPoint: "bottom_right" 750 0 basechar 0
LayerCount: 2
Fore
SplineSet
529 1070 m 260
 809 1070 949 931 995 775 c 261
 648 685 l 261
 648 705 629 750 529 750 c 260
 459 750 440 735 440 715 c 260
 440 695 470 675 529 663 c 260
 822 601 1016 566 1016 326 c 260
 1016 86 805 -30 529 -30 c 260
 290 -30 98 85 50 265 c 261
 402 356 l 261
 402 326 439 290 529 290 c 260
 619 290 656 296 656 326 c 260
 656 356 588 371 529 383 c 260
 249 442 80 515 80 715 c 260
 80 915 249 1070 529 1070 c 260
EndSplineSet
Substitution2: "smcpBasdecasseverspetitescapitalesdansLatinlookup0 subtable" s.sc
EndChar

StartChar: a
Encoding: 97 97 23
GlifName: a
Width: 1249
VWidth: 0
GlyphClass: 2
Flags: HW
AnchorPoint: "top_right" 1106 1040 basechar 0
AnchorPoint: "bottom_center" 578 0 basechar 0
AnchorPoint: "top_center" 618 1040 basechar 0
AnchorPoint: "bottom_right" 1142 0 basechar 0
LayerCount: 2
Fore
SplineSet
530 -30 m 256
 224 -30 50 135 50 335 c 256
 50 535 272 680 578 680 c 256
 848 680 998 545 998 345 c 257
 998 145 840 -30 530 -30 c 256
746 345 m 256
 746 385 678 400 578 400 c 256
 478 400 410 385 410 345 c 256
 410 305 478 290 578 290 c 256
 678 290 746 305 746 345 c 256
1106 377 m 258
 1106 317 1142 258 1214 258 c 257
 1134 -30 l 257
 868 -10 746 182 746 247 c 257
 776 266 l 257
 776 428 l 257
 746 450 l 257
 746 658 l 257
 746 718 710 761 578 761 c 256
 352 761 262 695 262 695 c 257
 98 966 l 257
 98 966 292 1080 578 1080 c 256
 873 1080 1106 978 1106 628 c 257
 1106 377 l 258
EndSplineSet
Substitution2: "ss04StyleSet4lookups56 subtable" a.cv23
Substitution2: "cv23CharacterVariants23lookups64 subtable" a.cv23
Substitution2: "smcpBasdecasseverspetitescapitalesdansLatinlookup0 subtable" a.sc
EndChar

StartChar: g
Encoding: 103 103 24
GlifName: g
Width: 1232
VWidth: 0
GlyphClass: 2
Flags: HW
AnchorPoint: "bottom_center" 589 -361 basechar 0
AnchorPoint: "top_center" 589 1040 basechar 0
LayerCount: 2
Fore
SplineSet
743 980 m 257
 778 1041 867 1120 1017 1120 c 256
 1088 1120 1151 1108 1207 1084 c 257
 1100 741 l 257
 1062 780 1004 800 921 800 c 256
 791 800 755 742 755 632 c 257
 743 980 l 257
589 520 m 257
 589 280 l 257
 494 280 439 275 439 260 c 256
 439 245 459 240 589 240 c 257
 589 -80 l 257
 341 -80 134 30 134 240 c 256
 134 440 421 520 589 520 c 257
1207 -100 m 256
 1207 -320 1022 -470 589 -470 c 256
 156 -470 25 -315 25 -114 c 256
 25 107 307 160 589 160 c 257
 589 -20 l 257
 439 -20 385 -58 385 -95 c 256
 385 -132 444 -150 589 -150 c 256
 734 -150 847 -150 847 -110 c 256
 847 -80 735 -80 589 -80 c 257
 589 240 l 257
 1014 240 1207 100 1207 -100 c 256
493 675 m 256
 493 627 529 600 589 600 c 256
 649 600 685 627 685 675 c 256
 685 723 649 750 589 750 c 256
 529 750 493 723 493 675 c 256
133 675 m 256
 133 894 326 1070 589 1070 c 256
 852 1070 1045 894 1045 675 c 256
 1045 456 852 280 589 280 c 256
 326 280 133 456 133 675 c 256
EndSplineSet
Substitution2: "ss04StyleSet4lookups56 subtable" g.cv24
Substitution2: "cv24CharacterVariants24lookups65 subtable" g.cv24
Substitution2: "smcpBasdecasseverspetitescapitalesdansLatinlookup0 subtable" g.sc
EndChar

StartChar: z
Encoding: 122 122 25
GlifName: z
Width: 1032
VWidth: 0
GlyphClass: 2
Flags: HW
AnchorPoint: "bottom_center" 516 0 basechar 0
AnchorPoint: "top_center" 516 1040 basechar 0
LayerCount: 2
Fore
SplineSet
70 1040 m 257
 962 1040 l 257
 962 752 l 257
 548 720 l 257
 70 720 l 257
 70 1040 l 257
958 320 m 257
 958 0 l 257
 70 0 l 257
 70 288 l 257
 484 320 l 257
 958 320 l 257
544 320 m 257
 70 288 l 257
 488 720 l 257
 962 752 l 257
 544 320 l 257
EndSplineSet
Substitution2: "smcpBasdecasseverspetitescapitalesdansLatinlookup0 subtable" z.sc
EndChar

StartChar: A
Encoding: 65 65 27
GlifName: A_
Width: 1530
VWidth: 0
GlyphClass: 2
Flags: HW
AnchorPoint: "greek_v" 210 1040 basechar 0
AnchorPoint: "greek_kt" -34 1040 basechar 0
AnchorPoint: "greek_k" 132 1040 basechar 0
AnchorPoint: "greek_t" 6 1040 basechar 0
AnchorPoint: "bottom_ypogegrammeni" 769 -90 basechar 0
AnchorPoint: "bottom_center" 769 0 basechar 0
AnchorPoint: "top_center" 769 1380 basechar 0
AnchorPoint: "bottom_right" 1495 0 basechar 0
LayerCount: 2
Fore
SplineSet
316 688 m 257
 1187 688 l 257
 1187 352 l 257
 316 352 l 257
 316 688 l 257
769 1080 m 257
 427 0 l 257
 35 0 l 257
 527 1480 l 257
 1003 1480 l 257
 1495 0 l 257
 1103 0 l 257
 769 1080 l 257
EndSplineSet
Substitution2: "c2sc_CapitalesverspetitescapitalesdansLatinlookup0 subtable" a.sc
EndChar

StartChar: V
Encoding: 86 86 28
GlifName: V_
Width: 1530
VWidth: 0
GlyphClass: 2
Flags: HW
AnchorPoint: "bottom_center" 765 0 basechar 0
AnchorPoint: "top_center" 765 1380 basechar 0
LayerCount: 2
Fore
SplineSet
773 400 m 257
 1103 1480 l 257
 1495 1480 l 257
 1003 0 l 257
 527 0 l 257
 35 1480 l 257
 427 1480 l 257
 773 400 l 257
EndSplineSet
Substitution2: "c2sc_CapitalesverspetitescapitalesdansLatinlookup0 subtable" v.sc
EndChar

StartChar: H
Encoding: 72 72 29
GlifName: H_
Width: 1482
VWidth: 0
GlyphClass: 2
Flags: HW
AnchorPoint: "greek_kt" -389 1040 basechar 0
AnchorPoint: "greek_k" -198 1040 basechar 0
AnchorPoint: "greek_t" -354 1040 basechar 0
AnchorPoint: "greek_v" -138 1040 basechar 0
AnchorPoint: "top_center" 743 1362 basechar 0
AnchorPoint: "bottom_center" 743 -18 basechar 0
AnchorPoint: "bottom_cedilla" 260 -38 basechar 0
AnchorPoint: "bottom_ypogegrammeni" 743 -108 basechar 0
LayerCount: 2
Fore
SplineSet
70 1480 m 257
 450 1480 l 257
 450 908 l 257
 1032 908 l 257
 1032 1480 l 257
 1412 1480 l 257
 1412 0 l 257
 1032 0 l 257
 1032 572 l 257
 450 572 l 257
 450 0 l 257
 70 0 l 257
 70 1480 l 257
EndSplineSet
Substitution2: "c2sc_CapitalesverspetitescapitalesdansLatinlookup0 subtable" h.sc
EndChar

StartChar: O
Encoding: 79 79 30
GlifName: O_
Width: 1620
VWidth: 0
GlyphClass: 2
Flags: HW
AnchorPoint: "greek_v" 24 1040 basechar 0
AnchorPoint: "greek_kt" -220 1040 basechar 0
AnchorPoint: "greek_k" -54 1040 basechar 0
AnchorPoint: "greek_t" -180 1040 basechar 0
AnchorPoint: "top_center" 810 1380 basechar 0
AnchorPoint: "top_right" 1424 1480 basechar 0
AnchorPoint: "bottom_center" 810 0 basechar 0
AnchorPoint: "bottom_right" 1042 0 basechar 0
LayerCount: 2
Fore
SplineSet
430 740 m 260
 430 490 560 306 810 306 c 260
 1060 306 1190 490 1190 740 c 260
 1190 990 1060 1174 810 1174 c 260
 560 1174 430 990 430 740 c 260
50 740 m 260
 50 1190 350 1510 810 1510 c 260
 1270 1510 1570 1190 1570 740 c 260
 1570 290 1270 -30 810 -30 c 260
 350 -30 50 290 50 740 c 260
EndSplineSet
Substitution2: "c2sc_CapitalesverspetitescapitalesdansLatinlookup0 subtable" o.sc
EndChar

StartChar: E
Encoding: 69 69 31
GlifName: E_
Width: 1254
VWidth: 0
GlyphClass: 2
Flags: HW
AnchorPoint: "greek_v" -138 1040 basechar 0
AnchorPoint: "greek_t" -354 1040 basechar 0
AnchorPoint: "greek_k" -198 1040 basechar 0
AnchorPoint: "greek_kt" -389 1040 basechar 0
AnchorPoint: "bottom_cedilla" 627 -20 basechar 0
AnchorPoint: "bottom_right" 1184 0 basechar 0
AnchorPoint: "bottom_center" 627 0 basechar 0
AnchorPoint: "top_center" 627 1380 basechar 0
LayerCount: 2
Fore
SplineSet
1070 908 m 257
 1070 572 l 257
 450 572 l 257
 450 336 l 257
 1184 336 l 257
 1184 0 l 257
 70 0 l 257
 70 1480 l 257
 1184 1480 l 257
 1184 1144 l 257
 450 1144 l 257
 450 908 l 257
 1070 908 l 257
EndSplineSet
Substitution2: "c2sc_CapitalesverspetitescapitalesdansLatinlookup0 subtable" e.sc
EndChar

StartChar: F
Encoding: 70 70 32
GlifName: F_
Width: 1219
VWidth: 0
GlyphClass: 2
Flags: HW
AnchorPoint: "top_center" 627 1380 basechar 0
AnchorPoint: "bottom_center" 260 0 basechar 0
LayerCount: 2
Fore
SplineSet
450 219 m 257
 450 0 l 257
 70 0 l 257
 70 1480 l 257
 1184 1480 l 257
 1184 1144 l 257
 450 1144 l 257
 450 908 l 257
 1070 908 l 257
 1070 572 l 257
 450 572 l 257
 450 219 l 257
EndSplineSet
Substitution2: "c2sc_CapitalesverspetitescapitalesdansLatinlookup0 subtable" f.sc
EndChar

StartChar: P
Encoding: 80 80 33
GlifName: P_
Width: 1258
VWidth: 0
GlyphClass: 2
Flags: HW
AnchorPoint: "greek_v" -138 1040 basechar 0
AnchorPoint: "greek_t" -354 1040 basechar 0
AnchorPoint: "greek_k" -198 1040 basechar 0
AnchorPoint: "greek_kt" -389 1040 basechar 0
AnchorPoint: "top_center" 619 1380 basechar 0
AnchorPoint: "bottom_center" 260 0 basechar 0
LayerCount: 2
Fore
SplineSet
450 1144 m 257
 450 824 l 257
 637 824 l 257
 757 824 828 874 828 984 c 256
 828 1094 757 1144 637 1144 c 257
 450 1144 l 257
70 0 m 257
 70 1480 l 257
 637 1480 l 257
 1023 1480 1208 1239 1208 984 c 256
 1208 729 1023 488 637 488 c 257
 450 488 l 257
 450 0 l 257
 70 0 l 257
EndSplineSet
Substitution2: "c2sc_CapitalesverspetitescapitalesdansLatinlookup0 subtable" p.sc
EndChar

StartChar: N
Encoding: 78 78 34
GlifName: N_
Width: 1482
VWidth: 0
GlyphClass: 2
Flags: HW
AnchorPoint: "bottom_center" 742 0 basechar 0
AnchorPoint: "top_center" 742 1380 basechar 0
LayerCount: 2
Fore
SplineSet
434 1480 m 257
 1032 652 l 257
 1032 1480 l 257
 1412 1480 l 257
 1412 0 l 257
 1048 0 l 257
 450 828 l 257
 450 0 l 257
 70 0 l 257
 70 1480 l 257
 434 1480 l 257
EndSplineSet
Substitution2: "c2sc_CapitalesverspetitescapitalesdansLatinlookup0 subtable" n.sc
EndChar

StartChar: L
Encoding: 76 76 35
GlifName: L_
Width: 1254
VWidth: 0
GlyphClass: 2
Flags: HW
AnchorPoint: "bottom_center" 627 0 basechar 0
AnchorPoint: "top_center" 260 1380 basechar 0
LayerCount: 2
Fore
SplineSet
450 1480 m 257
 450 336 l 257
 1184 336 l 257
 1184 0 l 257
 70 0 l 257
 70 1480 l 257
 450 1480 l 257
EndSplineSet
Substitution2: "c2sc_CapitalesverspetitescapitalesdansLatinlookup0 subtable" l.sc
EndChar

StartChar: I
Encoding: 73 73 36
GlifName: I_
Width: 924
VWidth: 0
GlyphClass: 2
Flags: HW
AnchorPoint: "greek_kt" -389 1040 basechar 0
AnchorPoint: "greek_k" -198 1040 basechar 0
AnchorPoint: "greek_t" -354 1040 basechar 0
AnchorPoint: "greek_v" -138 1040 basechar 0
AnchorPoint: "top_center" 462 1380 basechar 0
AnchorPoint: "bottom_center" 462 0 basechar 0
AnchorPoint: "bottom_right" 652 0 basechar 0
LayerCount: 2
Fore
SplineSet
70 1480 m 257
 854 1480 l 257
 854 1144 l 257
 652 1144 l 257
 652 336 l 257
 854 336 l 257
 854 0 l 257
 70 0 l 257
 70 336 l 257
 272 336 l 257
 272 1144 l 257
 70 1144 l 257
 70 1480 l 257
EndSplineSet
Substitution2: "ss03StyleSet3lookups55 subtable" I.cv22
Substitution2: "cv22CharacterVariants22lookups63 subtable" I.cv22
Substitution2: "c2sc_CapitalesverspetitescapitalesdansLatinlookup0 subtable" i.sc
EndChar

StartChar: D
Encoding: 68 68 37
GlifName: D_
Width: 1486
VWidth: 0
GlyphClass: 2
Flags: HW
AnchorPoint: "bottom_cedilla" 597 -20 basechar 0
AnchorPoint: "bottom_center" 692 0 basechar 0
AnchorPoint: "top_center" 692 1380 basechar 0
LayerCount: 2
Fore
SplineSet
450 1144 m 257
 450 336 l 257
 670 336 l 257
 874 336 1056 467 1056 740 c 256
 1056 1013 864 1144 670 1144 c 257
 450 1144 l 257
670 0 m 257
 298 0 l 257
 70 0 l 257
 70 1480 l 257
 670 1480 l 257
 1126 1480 1436 1190 1436 740 c 256
 1436 290 1126 0 670 0 c 257
EndSplineSet
Substitution2: "c2sc_CapitalesverspetitescapitalesdansLatinlookup0 subtable" d.sc
EndChar

StartChar: B
Encoding: 66 66 38
GlifName: B_
Width: 1372
VWidth: 0
GlyphClass: 2
Flags: HW
AnchorPoint: "bottom_center" 622 0 basechar 0
AnchorPoint: "top_center" 622 1380 basechar 0
LayerCount: 2
Fore
SplineSet
751 1480 m 257
 1075 1480 1245 1280 1245 1060 c 256
 1245 840 1015 656 751 656 c 257
 751 976 l 257
 841 976 865 1012 865 1062 c 256
 865 1112 841 1144 751 1144 c 257
 450 1144 l 257
 450 1480 l 257
 751 1480 l 257
450 336 m 257
 751 336 l 257
 871 336 942 416 942 496 c 256
 942 576 871 656 751 656 c 257
 450 656 l 257
 450 336 l 257
70 1480 m 257
 450 1480 l 257
 450 976 l 257
 751 976 l 257
 1117 976 1322 751 1322 496 c 256
 1322 241 1117 0 751 0 c 257
 70 0 l 257
 70 1480 l 257
EndSplineSet
Substitution2: "c2sc_CapitalesverspetitescapitalesdansLatinlookup0 subtable" b.sc
EndChar

StartChar: T
Encoding: 84 84 39
GlifName: T_
Width: 1482
VWidth: 0
GlyphClass: 2
Flags: HW
AnchorPoint: "bottom_cedilla" 741 -20 basechar 0
AnchorPoint: "bottom_center" 741 0 basechar 0
AnchorPoint: "top_center" 741 1380 basechar 0
LayerCount: 2
Fore
SplineSet
931 0 m 257
 551 0 l 257
 551 1144 l 257
 70 1144 l 257
 70 1480 l 257
 1412 1480 l 257
 1412 1144 l 257
 931 1144 l 257
 931 0 l 257
EndSplineSet
Substitution2: "c2sc_CapitalesverspetitescapitalesdansLatinlookup0 subtable" t.sc
EndChar

StartChar: R
Encoding: 82 82 40
GlifName: R_
Width: 1318
VWidth: 0
GlyphClass: 2
Flags: HW
AnchorPoint: "bottom_center" 619 0 basechar 0
AnchorPoint: "top_center" 619 1380 basechar 0
LayerCount: 2
Fore
SplineSet
395 643 m 257
 812 660 l 257
 1288 0 l 257
 848 0 l 257
 395 643 l 257
450 1144 m 257
 450 824 l 257
 637 824 l 257
 757 824 828 874 828 984 c 256
 828 1094 757 1144 637 1144 c 257
 450 1144 l 257
70 0 m 257
 70 1480 l 257
 637 1480 l 257
 1023 1480 1208 1239 1208 984 c 256
 1208 729 1023 488 637 488 c 257
 450 488 l 257
 450 0 l 257
 70 0 l 257
EndSplineSet
Substitution2: "c2sc_CapitalesverspetitescapitalesdansLatinlookup0 subtable" r.sc
EndChar

StartChar: C
Encoding: 67 67 41
GlifName: C_
Width: 1535
VWidth: 0
GlyphClass: 2
Flags: HW
AnchorPoint: "bottom_cedilla" 810 -20 basechar 0
AnchorPoint: "bottom_center" 810 0 basechar 0
AnchorPoint: "top_center" 810 1380 basechar 0
LayerCount: 2
Fore
SplineSet
1160 930 m 257
 1109 1078 991 1174 810 1174 c 256
 560 1174 430 990 430 740 c 256
 430 490 560 306 810 306 c 256
 991 306 1109 402 1160 550 c 257
 1485 360 l 257
 1365 120 1125 -30 810 -30 c 256
 350 -30 50 290 50 740 c 256
 50 1190 350 1510 810 1510 c 256
 1125 1510 1365 1360 1485 1120 c 257
 1160 930 l 257
EndSplineSet
Substitution2: "c2sc_CapitalesverspetitescapitalesdansLatinlookup0 subtable" c.sc
EndChar

StartChar: G
Encoding: 71 71 42
GlifName: G_
Width: 1563
VWidth: 0
GlyphClass: 2
Flags: HW
AnchorPoint: "top_center" 810 1380 basechar 0
AnchorPoint: "bottom_center" 810 0 basechar 0
LayerCount: 2
Fore
SplineSet
1156 930 m 257
 1105 1078 991 1174 810 1174 c 256
 560 1174 430 990 430 740 c 256
 430 490 560 306 810 306 c 256
 991 306 1105 402 1156 550 c 257
 1321 360 l 257
 1201 120 1125 -30 810 -30 c 256
 350 -30 50 290 50 740 c 256
 50 1190 350 1510 810 1510 c 256
 1125 1510 1365 1360 1485 1120 c 257
 1156 930 l 257
748 824 m 257
 1493 824 l 257
 1493 0 l 257
 1133 0 l 257
 1133 227 l 257
 1113 253 l 257
 1113 488 l 257
 748 488 l 257
 748 824 l 257
EndSplineSet
Substitution2: "ss03StyleSet3lookups55 subtable" G.cv21
Substitution2: "cv21CharacterVariants21lookups62 subtable" G.cv21
Substitution2: "c2sc_CapitalesverspetitescapitalesdansLatinlookup0 subtable" g.sc
EndChar

StartChar: Q
Encoding: 81 81 43
GlifName: Q_
Width: 1620
VWidth: 0
GlyphClass: 2
Flags: HW
AnchorPoint: "top_center" 810 1380 basechar 0
AnchorPoint: "bottom_center" 810 0 basechar 0
LayerCount: 2
Fore
SplineSet
430 740 m 256
 430 490 560 306 810 306 c 256
 1060 306 1190 490 1190 740 c 256
 1190 990 1060 1174 810 1174 c 256
 560 1174 430 990 430 740 c 256
50 740 m 256
 50 1190 350 1510 810 1510 c 256
 1270 1510 1570 1190 1570 740 c 256
 1570 290 1270 -30 810 -30 c 256
 350 -30 50 290 50 740 c 256
1570 124 m 257
 1322 -124 l 257
 742 456 l 257
 990 704 l 257
 1570 124 l 257
EndSplineSet
Substitution2: "c2sc_CapitalesverspetitescapitalesdansLatinlookup0 subtable" q.sc
EndChar

StartChar: U
Encoding: 85 85 44
GlifName: U_
Width: 1482
VWidth: 0
GlyphClass: 2
Flags: HW
AnchorPoint: "top_center" 741 1380 basechar 0
AnchorPoint: "top_right" 1412 1480 basechar 0
AnchorPoint: "bottom_center" 741 0 basechar 0
AnchorPoint: "bottom_right" 973 0 basechar 0
LayerCount: 2
Fore
SplineSet
450 1480 m 257
 450 600 l 257
 450 390 591 306 741 306 c 256
 891 306 1032 390 1032 600 c 257
 1032 1480 l 257
 1412 1480 l 257
 1412 600 l 257
 1412 240 1173 -30 741 -30 c 256
 309 -30 70 240 70 600 c 257
 70 1480 l 257
 450 1480 l 257
EndSplineSet
Substitution2: "c2sc_CapitalesverspetitescapitalesdansLatinlookup0 subtable" u.sc
EndChar

StartChar: M
Encoding: 77 77 45
GlifName: M_
Width: 1710
VWidth: 0
GlyphClass: 2
Flags: HW
AnchorPoint: "bottom_center" 849 0 basechar 0
AnchorPoint: "top_center" 849 1380 basechar 0
LayerCount: 2
Fore
SplineSet
849 720 m 257
 1276 1480 l 257
 1514 1188 l 257
 938 160 l 257
 760 160 l 257
 187 1188 l 257
 434 1480 l 257
 849 720 l 257
1640 1480 m 257
 1640 0 l 257
 1260 0 l 257
 1260 1322 l 257
 1276 1480 l 257
 1640 1480 l 257
70 1480 m 257
 434 1480 l 257
 450 1275 l 257
 450 0 l 257
 70 0 l 257
 70 1480 l 257
EndSplineSet
Substitution2: "c2sc_CapitalesverspetitescapitalesdansLatinlookup0 subtable" m.sc
EndChar

StartChar: Z
Encoding: 90 90 46
GlifName: Z_
Width: 1374
VWidth: 0
GlyphClass: 2
Flags: HW
AnchorPoint: "bottom_center" 687 0 basechar 0
AnchorPoint: "top_center" 690 1380 basechar 0
LayerCount: 2
Fore
SplineSet
253 0 m 257
 70 302 l 257
 1121 1480 l 257
 1304 1176 l 257
 253 0 l 257
493 336 m 257
 1304 336 l 257
 1304 0 l 257
 860 0 514 0 70 0 c 257
 70 302 l 257
 493 336 l 257
94 1480 m 257
 538 1480 860 1480 1304 1480 c 257
 1304 1176 l 257
 891 1144 l 257
 94 1144 l 257
 94 1480 l 257
EndSplineSet
Substitution2: "c2sc_CapitalesverspetitescapitalesdansLatinlookup0 subtable" z.sc
EndChar

StartChar: X
Encoding: 88 88 47
GlifName: X_
Width: 1572
VWidth: 0
GlyphClass: 2
Flags: HW
AnchorPoint: "bottom_center" 786 0 basechar 0
AnchorPoint: "top_center" 786 1380 basechar 0
LayerCount: 2
Fore
SplineSet
784 487 m 257
 463 0 l 257
 35 0 l 257
 562 740 l 257
 35 1480 l 257
 463 1480 l 257
 786 988 l 257
 1109 1480 l 257
 1537 1480 l 257
 1010 740 l 257
 1537 0 l 257
 1109 0 l 257
 784 487 l 257
EndSplineSet
Substitution2: "c2sc_CapitalesverspetitescapitalesdansLatinlookup0 subtable" x.sc
EndChar

StartChar: Y
Encoding: 89 89 48
GlifName: Y_
Width: 1572
VWidth: 0
GlyphClass: 2
Flags: HW
AnchorPoint: "greek_kt" -404 1040 basechar 0
AnchorPoint: "greek_k" -213 1040 basechar 0
AnchorPoint: "greek_t" -369 1040 basechar 0
AnchorPoint: "greek_v" -153 1040 basechar 0
AnchorPoint: "top_center" 786 1380 basechar 0
AnchorPoint: "bottom_center" 786 0 basechar 0
LayerCount: 2
Fore
SplineSet
596 0 m 257
 596 834 l 257
 976 834 l 257
 976 0 l 257
 596 0 l 257
789 426 m 257
 680 578 l 257
 35 1480 l 257
 463 1480 l 257
 786 988 l 257
 1109 1480 l 257
 1537 1480 l 257
 789 426 l 257
EndSplineSet
Substitution2: "c2sc_CapitalesverspetitescapitalesdansLatinlookup0 subtable" y.sc
EndChar

StartChar: W
Encoding: 87 87 49
GlifName: W_
Width: 2282
VWidth: 0
GlyphClass: 2
Flags: HW
AnchorPoint: "bottom_center" 1141 0 basechar 0
AnchorPoint: "top_center" 1141 1380 basechar 0
LayerCount: 2
Fore
SplineSet
1615 560 m 257
 1855 1480 l 257
 2247 1480 l 257
 1822 0 l 257
 1449 0 l 257
 1141 910 l 257
 833 0 l 257
 460 0 l 257
 35 1480 l 257
 427 1480 l 257
 667 560 l 257
 974 1480 l 257
 1308 1480 l 257
 1615 560 l 257
EndSplineSet
Substitution2: "c2sc_CapitalesverspetitescapitalesdansLatinlookup0 subtable" w.sc
EndChar

StartChar: J
Encoding: 74 74 50
GlifName: J_
Width: 1285
VWidth: 0
GlyphClass: 2
Flags: HW
AnchorPoint: "bottom_center" 629 0 basechar 0
AnchorPoint: "top_center" 1025 1380 basechar 0
LayerCount: 2
Fore
SplineSet
437 569 m 257
 437 569 430 543 430 485 c 256
 430 385 514 306 629 306 c 256
 744 306 835 385 835 485 c 258
 835 1480 l 257
 1215 1480 l 257
 1215 485 l 258
 1215 165 965 -30 629 -30 c 256
 293 -30 50 165 50 485 c 257
 437 569 l 257
EndSplineSet
Substitution2: "c2sc_CapitalesverspetitescapitalesdansLatinlookup0 subtable" j.sc
EndChar

StartChar: K
Encoding: 75 75 51
GlifName: K_
Width: 1463
VWidth: 0
GlyphClass: 2
Flags: HW
AnchorPoint: "bottom_center" 741 0 basechar 0
AnchorPoint: "top_center" 741 1380 basechar 0
LayerCount: 2
Fore
SplineSet
453 801 m 257
 792 925 l 257
 1458 0 l 257
 1018 0 l 257
 453 801 l 257
450 450 m 257
 450 0 l 257
 70 0 l 257
 70 1480 l 257
 450 1480 l 257
 450 940 l 257
 978 1480 l 257
 1050 1480 1386 1480 1458 1480 c 257
 450 450 l 257
EndSplineSet
Substitution2: "c2sc_CapitalesverspetitescapitalesdansLatinlookup0 subtable" k.sc
EndChar

StartChar: S
Encoding: 83 83 52
GlifName: S_
Width: 1327
VWidth: 0
GlyphClass: 2
Flags: HW
AnchorPoint: "bottom_center" 662 0 basechar 0
AnchorPoint: "top_center" 662 1380 basechar 0
LayerCount: 2
Fore
SplineSet
662 1174 m 256
 522 1174 458 1132 458 1052 c 256
 458 992 556 973 662 945 c 256
 1029 847 1277 725 1277 445 c 256
 1277 165 1072 -30 662 -30 c 256
 357 -30 93 91 50 361 c 257
 423 461 l 257
 423 361 512 306 662 306 c 256
 812 306 897 355 897 445 c 256
 897 535 768 549 662 577 c 256
 314 670 78 792 78 1052 c 256
 78 1312 292 1510 662 1510 c 256
 967 1510 1206 1394 1249 1124 c 257
 876 1024 l 257
 876 1124 802 1174 662 1174 c 256
EndSplineSet
Substitution2: "c2sc_CapitalesverspetitescapitalesdansLatinlookup0 subtable" s.sc
EndChar

StartChar: eight
Encoding: 56 56 53
GlifName: eight
Width: 1278
VWidth: 0
GlyphClass: 2
Flags: HW
LayerCount: 2
Fore
SplineSet
45 453 m 256
 45 685 245 781 245 781 c 257
 245 781 99 839 99 1058 c 256
 99 1341 319 1510 639 1510 c 256
 959 1510 1179 1341 1179 1058 c 256
 1179 839 1033 781 1033 781 c 257
 1033 781 1233 685 1233 453 c 256
 1233 120 999 -30 639 -30 c 256
 279 -30 45 120 45 453 c 256
479 1050 m 256
 479 970 554 936 639 936 c 257
 724 936 799 970 799 1050 c 256
 799 1130 764 1174 639 1174 c 256
 514 1174 479 1130 479 1050 c 256
639 616 m 257
 489 616 425 561 425 461 c 256
 425 361 489 306 639 306 c 256
 789 306 853 361 853 461 c 256
 853 561 789 616 639 616 c 257
EndSplineSet
Substitution2: "tnumTabularNumbers subtable" eight.tnum
Substitution2: "pnumProportionalNumbers subtable" eight.pnum
Substitution2: "dnomDenominators subtable" eight.dnom
Substitution2: "numrNumerators subtable" eight.numr
Substitution2: "onumOldstyleFigures subtable" eight.onum
Substitution2: "subsSubscriptnumbers subtable" eight.subscript
Substitution2: "supsSupscriptnumbers subtable" eight.superior
Substitution2: "ss02Alternativenumbersset2 subtable" eight.cv18
Substitution2: "ss01Alternativenumbersset1 subtable" eight.cv08
Substitution2: "cv18Alternativedigit82 subtable" eight.cv18
Substitution2: "cv08Alternativedigit81 subtable" eight.cv08
EndChar

StartChar: six
Encoding: 54 54 54
GlifName: six
Width: 1278
VWidth: 0
GlyphClass: 2
Flags: HW
LayerCount: 2
Fore
SplineSet
796 1510 m 256
 1038 1510 1210 1370 1210 1370 c 257
 1052 1077 l 257
 1052 1077 969 1174 709 1174 c 256
 559 1174 403 1016 403 716 c 256
 403 486 518 282 518 282 c 257
 188 194 l 257
 188 194 46 376 46 696 c 256
 46 1206 314 1510 796 1510 c 256
456 491 m 256
 456 371 534 306 654 306 c 256
 774 306 852 371 852 491 c 256
 852 611 774 676 654 676 c 256
 534 676 456 611 456 491 c 256
102 491 m 257
 192 491 l 257
 192 614 345 1012 654 1012 c 256
 1003 1012 1232 802 1232 491 c 256
 1232 180 1003 -30 654 -30 c 256
 305 -30 102 200 102 491 c 257
EndSplineSet
Substitution2: "tnumTabularNumbers subtable" six.tnum
Substitution2: "pnumProportionalNumbers subtable" six.pnum
Substitution2: "dnomDenominators subtable" six.dnom
Substitution2: "numrNumerators subtable" six.numr
Substitution2: "onumOldstyleFigures subtable" six.onum
Substitution2: "subsSubscriptnumbers subtable" six.subscript
Substitution2: "supsSupscriptnumbers subtable" six.superior
Substitution2: "ss02Alternativenumbersset2 subtable" six.cv16
Substitution2: "ss01Alternativenumbersset1 subtable" six.cv06
Substitution2: "cv16Alternativedigit62 subtable" six.cv16
Substitution2: "cv06Alternativedigit61 subtable" six.cv06
EndChar

StartChar: nine
Encoding: 57 57 55
GlifName: nine
Width: 1278
VWidth: 0
GlyphClass: 2
Flags: HW
LayerCount: 2
Fore
SplineSet
482 -30 m 256
 240 -30 68 110 68 110 c 257
 226 403 l 257
 226 403 309 306 569 306 c 256
 719 306 875 464 875 764 c 256
 875 994 760 1198 760 1198 c 257
 1090 1286 l 257
 1090 1286 1232 1104 1232 784 c 256
 1232 274 964 -30 482 -30 c 256
822 989 m 256
 822 1109 744 1174 624 1174 c 256
 504 1174 426 1109 426 989 c 256
 426 869 504 804 624 804 c 256
 744 804 822 869 822 989 c 256
1176 989 m 257
 1086 989 l 257
 1086 866 933 468 624 468 c 256
 275 468 46 678 46 989 c 256
 46 1300 275 1510 624 1510 c 256
 973 1510 1176 1280 1176 989 c 257
EndSplineSet
Substitution2: "tnumTabularNumbers subtable" nine.tnum
Substitution2: "pnumProportionalNumbers subtable" nine.pnum
Substitution2: "dnomDenominators subtable" nine.dnom
Substitution2: "numrNumerators subtable" nine.numr
Substitution2: "onumOldstyleFigures subtable" nine.onum
Substitution2: "subsSubscriptnumbers subtable" nine.subscript
Substitution2: "supsSupscriptnumbers subtable" nine.superior
Substitution2: "ss02Alternativenumbersset2 subtable" nine.cv19
Substitution2: "ss01Alternativenumbersset1 subtable" nine.cv09
Substitution2: "cv19Alternativedigit92 subtable" nine.cv19
Substitution2: "cv09Alternativedigit91 subtable" nine.cv09
EndChar

StartChar: three
Encoding: 51 51 56
GlifName: three
Width: 1278
VWidth: 0
GlyphClass: 2
Flags: HW
LayerCount: 2
Fore
SplineSet
638 936 m 258
 723 936 798 970 798 1050 c 256
 798 1130 763 1174 638 1174 c 256
 513 1174 460 1130 460 1050 c 257
 89 1150 l 257
 134 1377 336 1510 638 1510 c 256
 958 1510 1178 1341 1178 1058 c 256
 1178 839 1032 781 1032 781 c 257
 1032 781 1232 685 1232 453 c 256
 1232 120 998 -30 638 -30 c 256
 353 -30 89 91 46 361 c 257
 419 461 l 257
 419 361 488 306 638 306 c 256
 788 306 852 361 852 461 c 256
 852 561 788 616 638 616 c 258
 524 616 l 257
 524 936 l 257
 638 936 l 258
EndSplineSet
Substitution2: "tnumTabularNumbers subtable" three.tnum
Substitution2: "pnumProportionalNumbers subtable" three.pnum
Substitution2: "dnomDenominators subtable" three.dnom
Substitution2: "numrNumerators subtable" three.numr
Substitution2: "onumOldstyleFigures subtable" three.onum
Substitution2: "subsSubscriptnumbers subtable" three.subscript
Substitution2: "supsSupscriptnumbers subtable" three.superior
Substitution2: "ss02Alternativenumbersset2 subtable" three.cv13
Substitution2: "ss01Alternativenumbersset1 subtable" three.cv03
Substitution2: "cv13Alternativedigit32 subtable" three.cv13
Substitution2: "cv03Alternativedigit31 subtable" three.cv03
EndChar

StartChar: zero
Encoding: 48 48 57
GlifName: zero
Width: 1278
VWidth: 0
GlyphClass: 2
Flags: HW
LayerCount: 2
Fore
SplineSet
436 740 m 256
 436 445 506 306 639 306 c 256
 772 306 842 445 842 740 c 256
 842 1035 772 1174 639 1174 c 256
 506 1174 436 1035 436 740 c 256
56 740 m 256
 56 1240 279 1510 639 1510 c 256
 999 1510 1222 1240 1222 740 c 256
 1222 240 999 -30 639 -30 c 256
 279 -30 56 240 56 740 c 256
EndSplineSet
Substitution2: "tnumTabularNumbers subtable" zero.tnum
Substitution2: "pnumProportionalNumbers subtable" zero.pnum
Substitution2: "dnomDenominators subtable" zero.dnom
Substitution2: "numrNumerators subtable" zero.numr
Substitution2: "onumOldstyleFigures subtable" zero.onum
Substitution2: "subsSubscriptnumbers subtable" zero.subscript
Substitution2: "supsSupscriptnumbers subtable" zero.superior
Substitution2: "zeroSlashedZerolookups61 subtable" zero.zero
Substitution2: "ss02Alternativenumbersset2 subtable" zero.cv20
Substitution2: "ss01Alternativenumbersset1 subtable" zero.cv10
Substitution2: "cv20Alternativedigit02 subtable" zero.cv20
Substitution2: "cv10Alternativedigit01 subtable" zero.cv10
EndChar

StartChar: two
Encoding: 50 50 58
GlifName: two
Width: 1278
VWidth: 0
GlyphClass: 2
Flags: HW
LayerCount: 2
Fore
SplineSet
468 906 m 257
 81 990 l 257
 81 1310 307 1510 643 1510 c 256
 979 1510 1205 1310 1205 1030 c 257
 825 1030 l 257
 825 1120 738 1174 643 1174 c 256
 528 1174 461 1090 461 990 c 256
 461 932 468 906 468 906 c 257
64 0 m 257
 64 160 84 465 643 788 c 256
 823 892 825 950 825 1030 c 257
 1205 1030 l 257
 1205 739 1020 628 743 468 c 256
 483 318 444 90 444 0 c 257
 377 0 131 0 64 0 c 257
344 336 m 257
 1214 336 l 257
 1214 0 l 257
 444 0 l 257
 344 336 l 257
EndSplineSet
Substitution2: "tnumTabularNumbers subtable" two.tnum
Substitution2: "pnumProportionalNumbers subtable" two.pnum
Substitution2: "dnomDenominators subtable" two.dnom
Substitution2: "numrNumerators subtable" two.numr
Substitution2: "onumOldstyleFigures subtable" two.onum
Substitution2: "subsSubscriptnumbers subtable" two.subscript
Substitution2: "supsSupscriptnumbers subtable" two.superior
Substitution2: "ss02Alternativenumbersset2 subtable" two.cv12
Substitution2: "ss01Alternativenumbersset1 subtable" two.cv02
Substitution2: "cv12Alternativedigit22 subtable" two.cv12
Substitution2: "cv02Alternativedigit21 subtable" two.cv02
EndChar

StartChar: seven
Encoding: 55 55 59
GlifName: seven
Width: 1278
VWidth: 0
GlyphClass: 2
Flags: HW
LayerCount: 2
Fore
SplineSet
772 1144 m 257
 1228 1172 l 257
 1228 1172 710 837 622 0 c 257
 551 0 313 0 242 0 c 257
 326 840 772 1144 772 1144 c 257
50 1144 m 257
 50 1480 l 257
 1228 1480 l 257
 1228 1172 l 257
 772 1144 l 257
 50 1144 l 257
EndSplineSet
Substitution2: "tnumTabularNumbers subtable" seven.tnum
Substitution2: "pnumProportionalNumbers subtable" seven.pnum
Substitution2: "dnomDenominators subtable" seven.dnom
Substitution2: "numrNumerators subtable" seven.numr
Substitution2: "onumOldstyleFigures subtable" seven.onum
Substitution2: "subsSubscriptnumbers subtable" seven.subscript
Substitution2: "supsSupscriptnumbers subtable" seven.superior
Substitution2: "ss07StyleSet7lookups59 subtable" seven.ss07
Substitution2: "ss02Alternativenumbersset2 subtable" seven.cv17
Substitution2: "ss01Alternativenumbersset1 subtable" seven.cv07
Substitution2: "cv17Alternativedigit72 subtable" seven.cv17
Substitution2: "cv07Alternativedigit71 subtable" seven.cv07
EndChar

StartChar: four
Encoding: 52 52 60
GlifName: four
Width: 1278
VWidth: 0
GlyphClass: 2
Flags: HW
LayerCount: 2
Fore
SplineSet
70 572 m 257
 502 1480 l 257
 908 1480 l 257
 481 572 l 257
 688 572 l 257
 688 808 l 257
 1068 808 l 257
 1068 572 l 257
 1208 572 l 257
 1208 236 l 257
 1068 236 l 257
 1068 0 l 257
 688 0 l 257
 688 236 l 257
 70 236 l 257
 70 572 l 257
EndSplineSet
Substitution2: "tnumTabularNumbers subtable" four.tnum
Substitution2: "pnumProportionalNumbers subtable" four.pnum
Substitution2: "dnomDenominators subtable" four.dnom
Substitution2: "numrNumerators subtable" four.numr
Substitution2: "onumOldstyleFigures subtable" four.onum
Substitution2: "subsSubscriptnumbers subtable" four.subscript
Substitution2: "supsSupscriptnumbers subtable" four.superior
Substitution2: "ss02Alternativenumbersset2 subtable" four.cv14
Substitution2: "ss01Alternativenumbersset1 subtable" four.cv04
Substitution2: "cv14Alternativedigit42 subtable" four.cv14
Substitution2: "cv04Alternativedigit41 subtable" four.cv04
EndChar

StartChar: five
Encoding: 53 53 61
GlifName: five
Width: 1278
VWidth: 0
GlyphClass: 2
Flags: HW
LayerCount: 2
Fore
SplineSet
437 615 m 257
 243 678 l 257
 325 829 424 1012 647 1012 c 256
 996 1012 1224 802 1224 491 c 256
 1224 180 996 -30 646 -30 c 256
 351 -30 97 91 54 361 c 257
 427 461 l 257
 427 361 496 306 646 306 c 256
 767 306 844 371 844 491 c 256
 844 611 747 676 627 676 c 256
 573 676 480 668 437 615 c 257
456 678 m 257
 243 678 l 257
 112 720 l 257
 220 1480 l 257
 277 1480 517 1480 574 1480 c 257
 456 678 l 257
363 1144 m 257
 574 1480 l 257
 1152 1480 l 257
 1152 1144 l 257
 363 1144 l 257
EndSplineSet
Substitution2: "tnumTabularNumbers subtable" five.tnum
Substitution2: "pnumProportionalNumbers subtable" five.pnum
Substitution2: "dnomDenominators subtable" five.dnom
Substitution2: "numrNumerators subtable" five.numr
Substitution2: "onumOldstyleFigures subtable" five.onum
Substitution2: "subsSubscriptnumbers subtable" five.subscript
Substitution2: "supsSupscriptnumbers subtable" five.superior
Substitution2: "ss02Alternativenumbersset2 subtable" five.cv15
Substitution2: "ss01Alternativenumbersset1 subtable" five.cv05
Substitution2: "cv15Alternativedigit52 subtable" five.cv15
Substitution2: "cv05Alternativedigit51 subtable" five.cv05
EndChar

StartChar: one
Encoding: 49 49 62
GlifName: one
Width: 1278
VWidth: 0
GlyphClass: 2
Flags: HW
LayerCount: 2
Fore
SplineSet
580 848 m 257
 200 848 l 257
 200 1184 l 257
 296 1184 l 258
 470 1184 604 1300 604 1448 c 258
 604 1480 l 257
 960 1480 l 257
 960 1040 l 257
 960 0 l 257
 580 0 l 257
 580 848 l 257
EndSplineSet
Substitution2: "tnumTabularNumbers subtable" one.tnum
Substitution2: "pnumProportionalNumbers subtable" one.pnum
Substitution2: "dnomDenominators subtable" one.dnom
Substitution2: "numrNumerators subtable" one.numr
Substitution2: "onumOldstyleFigures subtable" one.onum
Substitution2: "subsSubscriptnumbers subtable" one.subscript
Substitution2: "supsSupscriptnumbers subtable" one.superior
Substitution2: "ss06StyleSet6lookups58 subtable" one.ss06
Substitution2: "ss02Alternativenumbersset2 subtable" one.cv11
Substitution2: "ss01Alternativenumbersset1 subtable" one.cv01
Substitution2: "cv11Alternativedigit12 subtable" one.cv11
Substitution2: "cv01Alternativedigit11 subtable" one.cv01
EndChar

StartChar: period
Encoding: 46 46 63
GlifName: period
Width: 540
VWidth: 0
GlyphClass: 2
Flags: HW
LayerCount: 2
Fore
SplineSet
70 170 m 256
 70 281 159 370 270 370 c 256
 381 370 470 281 470 170 c 256
 470 59 381 -30 270 -30 c 256
 159 -30 70 59 70 170 c 256
EndSplineSet
EndChar

StartChar: comma
Encoding: 44 44 64
GlifName: comma
Width: 565
VWidth: 0
GlyphClass: 2
Flags: HW
LayerCount: 2
Fore
SplineSet
50 170 m 256
 50 281 139 370 250 370 c 256
 361 370 450 281 450 170 c 256
 450 59 361 -30 250 -30 c 256
 139 -30 50 59 50 170 c 256
65 -141 m 257
 194 -121 291 -56 291 32 c 256
 291 76 252 170 252 170 c 257
 250 370 l 257
 363 370 515 298 515 32 c 256
 515 -179 284 -343 125 -371 c 257
 65 -141 l 257
EndSplineSet
EndChar

StartChar: colon
Encoding: 58 58 65
GlifName: colon
Width: 540
VWidth: 0
GlyphClass: 2
Flags: HW
LayerCount: 2
Fore
SplineSet
70 930 m 256
 70 1041 159 1130 270 1130 c 256
 381 1130 470 1041 470 930 c 256
 470 819 381 730 270 730 c 256
 159 730 70 819 70 930 c 256
70 170 m 256
 70 281 159 370 270 370 c 256
 381 370 470 281 470 170 c 256
 470 59 381 -30 270 -30 c 256
 159 -30 70 59 70 170 c 256
EndSplineSet
Substitution2: "Single Substitution lookup 61 subtable" colon.centered
EndChar

StartChar: semicolon
Encoding: 59 59 66
GlifName: semicolon
Width: 605
VWidth: 0
GlyphClass: 2
Flags: HW
LayerCount: 2
Fore
SplineSet
70 170 m 256
 70 281 159 370 270 370 c 256
 381 370 470 281 470 170 c 256
 470 59 381 -30 270 -30 c 256
 159 -30 70 59 70 170 c 256
85 -141 m 257
 214 -121 311 -56 311 32 c 256
 311 76 272 170 272 170 c 257
 270 370 l 257
 383 370 535 298 535 32 c 256
 535 -179 304 -343 145 -371 c 257
 85 -141 l 257
70 930 m 256
 70 1041 159 1130 270 1130 c 256
 381 1130 470 1041 470 930 c 256
 470 819 381 730 270 730 c 256
 159 730 70 819 70 930 c 256
EndSplineSet
EndChar

StartChar: slash
Encoding: 47 47 67
GlifName: slash
Width: 1211
VWidth: 0
GlyphClass: 2
Flags: HW
LayerCount: 2
Fore
SplineSet
1176 1640 m 257
 415 -200 l 257
 35 -200 l 257
 796 1640 l 257
 1176 1640 l 257
EndSplineSet
EndChar

StartChar: parenleft
Encoding: 40 40 68
GlifName: parenleft
Width: 877
VWidth: 0
GlyphClass: 2
Flags: HW
LayerCount: 2
Fore
SplineSet
50 658 m 256
 50 1258 504 1583 684 1658 c 257
 852 1369 l 257
 716 1318 410 1078 410 658 c 256
 410 240 716 0 852 -51 c 257
 684 -340 l 257
 504 -265 50 60 50 658 c 256
EndSplineSet
EndChar

StartChar: exclam
Encoding: 33 33 69
GlifName: exclam
Width: 552
VWidth: 0
GlyphClass: 2
Flags: HW
LayerCount: 2
Fore
SplineSet
76 160 m 256
 76 271 165 360 276 360 c 256
 387 360 476 271 476 160 c 256
 476 49 387 -40 276 -40 c 256
 165 -40 76 49 76 160 c 256
70 1480 m 257
 482 1480 l 257
 436 452 l 257
 116 452 l 257
 70 1480 l 257
EndSplineSet
EndChar

StartChar: question
Encoding: 63 63 70
GlifName: question
Width: 1204
VWidth: 0
GlyphClass: 2
Flags: HW
LayerCount: 2
Fore
SplineSet
602 1190 m 256
 497 1190 410 1127 410 1027 c 256
 410 969 417 943 417 943 c 257
 50 1027 l 257
 50 1347 306 1510 602 1510 c 256
 898 1510 1154 1325 1154 1025 c 256
 1154 725 938 540 602 540 c 257
 602 876 l 257
 697 876 794 905 794 1025 c 256
 794 1145 687 1190 602 1190 c 256
408 160 m 256
 408 271 497 360 608 360 c 256
 719 360 808 271 808 160 c 256
 808 49 719 -40 608 -40 c 256
 497 -40 408 49 408 160 c 256
428 452 m 257
 428 876 l 257
 788 876 l 257
 788 452 l 257
 428 452 l 257
EndSplineSet
EndChar

StartChar: quotesingle
Encoding: 39 39 71
GlifName: quotesingle
Width: 508
VWidth: 0
GlyphClass: 2
Flags: HW
LayerCount: 2
Fore
SplineSet
94 968 m 257
 70 1480 l 257
 438 1480 l 257
 414 968 l 257
 94 968 l 257
EndSplineSet
EndChar

StartChar: quotedbl
Encoding: 34 34 72
GlifName: quotedbl
Width: 1036
VWidth: 0
GlyphClass: 2
Flags: HW
LayerCount: 2
Fore
SplineSet
622 968 m 257
 598 1480 l 257
 966 1480 l 257
 942 968 l 257
 622 968 l 257
94 968 m 257
 70 1480 l 257
 438 1480 l 257
 414 968 l 257
 94 968 l 257
EndSplineSet
EndChar

StartChar: bracketleft
Encoding: 91 91 73
GlifName: bracketleft
Width: 883
VWidth: 0
GlyphClass: 2
Flags: HW
LayerCount: 2
Fore
SplineSet
848 1320 m 257
 430 1320 l 257
 430 0 l 257
 848 0 l 257
 848 -320 l 257
 70 -320 l 257
 70 1640 l 257
 848 1640 l 257
 848 1320 l 257
EndSplineSet
EndChar

StartChar: bracketright
Encoding: 93 93 74
GlifName: bracketright
Width: 883
VWidth: 0
GlyphClass: 2
Flags: HW
LayerCount: 2
Fore
SplineSet
35 1320 m 257
 35 1640 l 257
 813 1640 l 257
 813 -320 l 257
 35 -320 l 257
 35 0 l 257
 453 0 l 257
 453 1320 l 257
 35 1320 l 257
EndSplineSet
EndChar

StartChar: parenright
Encoding: 41 41 75
GlifName: parenright
Width: 877
VWidth: 0
GlyphClass: 2
Flags: HW
LayerCount: 2
Fore
SplineSet
827 658 m 256
 827 60 373 -265 193 -340 c 257
 25 -51 l 257
 161 0 467 240 467 658 c 256
 467 1078 161 1318 25 1369 c 257
 193 1658 l 257
 373 1583 827 1258 827 658 c 256
EndSplineSet
EndChar

StartChar: braceleft
Encoding: 123 123 76
GlifName: braceleft
Width: 779
VWidth: 0
GlyphClass: 2
Flags: HW
LayerCount: 2
Fore
SplineSet
582 152 m 258
 582 52 654 -20 754 -20 c 257
 754 -340 l 257
 454 -340 222 -148 222 152 c 258
 222 302 l 258
 222 402 150 500 50 500 c 257
 50 820 l 257
 350 820 582 602 582 302 c 258
 582 152 l 258
582 1168 m 258
 582 1018 l 258
 582 718 350 500 50 500 c 257
 50 820 l 257
 150 820 222 918 222 1018 c 258
 222 1168 l 258
 222 1468 454 1660 754 1660 c 257
 754 1340 l 257
 654 1340 582 1268 582 1168 c 258
EndSplineSet
EndChar

StartChar: braceright
Encoding: 125 125 77
GlifName: braceright
Width: 779
VWidth: 0
GlyphClass: 2
Flags: HW
LayerCount: 2
Fore
SplineSet
197 152 m 258
 197 302 l 258
 197 602 429 820 729 820 c 257
 729 500 l 257
 629 500 557 402 557 302 c 258
 557 152 l 258
 557 -148 325 -340 25 -340 c 257
 25 -20 l 257
 125 -20 197 52 197 152 c 258
197 1168 m 258
 197 1268 125 1340 25 1340 c 257
 25 1660 l 257
 325 1660 557 1468 557 1168 c 258
 557 1018 l 258
 557 918 629 820 729 820 c 257
 729 500 l 257
 429 500 197 718 197 1018 c 258
 197 1168 l 258
EndSplineSet
EndChar

StartChar: backslash
Encoding: 92 92 78
GlifName: backslash
Width: 1211
VWidth: 0
GlyphClass: 2
Flags: HW
LayerCount: 2
Fore
SplineSet
35 1640 m 257
 415 1640 l 257
 1176 -200 l 257
 796 -200 l 257
 35 1640 l 257
EndSplineSet
EndChar

StartChar: bar
Encoding: 124 124 79
GlifName: bar
Width: 500
VWidth: 0
GlyphClass: 2
Flags: HW
LayerCount: 2
Fore
SplineSet
430 1660 m 257
 430 -440 l 257
 70 -440 l 257
 70 1660 l 257
 430 1660 l 257
EndSplineSet
EndChar

StartChar: numbersign
Encoding: 35 35 80
GlifName: numbersign
Width: 1602
VWidth: 0
GlyphClass: 2
Flags: HW
LayerCount: 2
Fore
SplineSet
70 320 m 257
 70 640 l 257
 1486 640 l 257
 1486 320 l 257
 70 320 l 257
116 840 m 257
 116 1160 l 257
 1532 1160 l 257
 1532 840 l 257
 116 840 l 257
1013 1480 m 257
 1379 1480 l 257
 1146 0 l 257
 1078 0 848 0 780 0 c 257
 1013 1480 l 257
456 1480 m 257
 822 1480 l 257
 589 0 l 257
 521 0 291 0 223 0 c 257
 456 1480 l 257
EndSplineSet
EndChar

StartChar: gravecomb
Encoding: 768 768 83
GlifName: gravecomb
Width: 0
VWidth: 0
GlyphClass: 4
Flags: HW
AnchorPoint: "mark_anchor_left" 642 1224 mark 0
AnchorPoint: "top_center" 642 1040 mark 0
LayerCount: 2
Fore
SplineSet
474 1224 m 261
 248 1480 l 261
 652 1480 l 261
 830 1224 l 261
 474 1224 l 261
EndSplineSet
PickledDataWithLists: "(dp0
Vcom.fontlab.hintData
p1
(dp2
Vhhints
p3
(lp4
(dp5
Vposition
p6
I1224
sVwidth
p7
I256
sasVvhints
p8
(lp9
(dp10
g6
I337
sg7
I404
sass."
EndChar

StartChar: acutecomb
Encoding: 769 769 84
GlifName: acutecomb
Width: 0
VWidth: 0
GlyphClass: 4
Flags: HW
AnchorPoint: "mark_anchor_right" 642 1224 mark 0
AnchorPoint: "top_center" 642 1040 mark 0
LayerCount: 2
Fore
SplineSet
810 1224 m 261
 454 1224 l 261
 632 1480 l 261
 1036 1480 l 261
 810 1224 l 261
EndSplineSet
EndChar

StartChar: uni0302
Encoding: 770 770 85
GlifName: uni0302
Width: 0
VWidth: 0
GlyphClass: 4
Flags: HW
AnchorPoint: "mark_anchor_left" 291 1400 basemark 0
AnchorPoint: "mark_anchor_right" 993 1400 basemark 0
AnchorPoint: "mark_anchor_top" 642 1506 basemark 0
AnchorPoint: "top_center" 642 1040 mark 0
LayerCount: 2
Fore
SplineSet
699 1224 m 257
 539 1480 l 257
 845 1480 l 257
 1050 1224 l 257
 699 1224 l 257
585 1224 m 257
 234 1224 l 257
 439 1480 l 257
 745 1480 l 257
 585 1224 l 257
EndSplineSet
EndChar

StartChar: tildecomb
Encoding: 771 771 86
GlifName: tildecomb
Width: 0
VWidth: 0
GlyphClass: 4
Flags: HW
AnchorPoint: "mark_anchor_right" 642 1526 basemark 0
AnchorPoint: "mark_anchor_left" 642 1526 basemark 0
AnchorPoint: "mark_anchor_top" 642 1592 basemark 0
AnchorPoint: "mark_anchor_center" 642 1602 basemark 0
AnchorPoint: "mark_anchor_top" 642 1224 mark 0
AnchorPoint: "top_center" 642 1040 mark 0
LayerCount: 2
Fore
SplineSet
488 1204 m 257
 279 1260 l 257
 296 1377 389 1499 545 1499 c 256
 635 1499 689 1436 731 1436 c 256
 776 1436 788 1478 788 1499 c 257
 997 1443 l 257
 980 1326 887 1204 731 1204 c 256
 641 1204 587 1267 545 1267 c 256
 494 1267 488 1225 488 1204 c 257
EndSplineSet
EndChar

StartChar: uni0308
Encoding: 776 776 87
GlifName: uni0308
Width: 0
VWidth: 0
GlyphClass: 4
Flags: HW
AnchorPoint: "mark_anchor_left" 642 1480 basemark 0
AnchorPoint: "mark_anchor_right" 642 1480 basemark 0
AnchorPoint: "mark_anchor_top" 642 1592 basemark 0
AnchorPoint: "mark_anchor_center" 642 1525 basemark 0
AnchorPoint: "mark_anchor_center" 642 1372 mark 0
AnchorPoint: "top_center" 642 1040 mark 0
LayerCount: 2
Fore
SplineSet
755 1352 m 256
 755 1463 844 1552 955 1552 c 256
 1066 1552 1155 1463 1155 1352 c 256
 1155 1241 1066 1152 955 1152 c 256
 844 1152 755 1241 755 1352 c 256
125 1352 m 256
 125 1463 214 1552 325 1552 c 256
 436 1552 525 1463 525 1352 c 256
 525 1241 436 1152 325 1152 c 256
 214 1152 125 1241 125 1352 c 256
EndSplineSet
EndChar

StartChar: uni030A
Encoding: 778 778 88
GlifName: uni030A_
Width: 0
VWidth: 0
GlyphClass: 4
Flags: HW
AnchorPoint: "mark_anchor_right" 964 1400 basemark 0
AnchorPoint: "mark_anchor_left" 321 1400 basemark 0
AnchorPoint: "top_center" 642 1040 mark 0
LayerCount: 2
Fore
SplineSet
436 1347 m 256
 436 1457 522 1542 642 1542 c 256
 762 1542 848 1457 848 1347 c 256
 848 1237 762 1152 642 1152 c 256
 522 1152 436 1237 436 1347 c 256
596 1347 m 256
 596 1321 616 1302 642 1302 c 256
 668 1302 687 1321 687 1347 c 256
 687 1373 668 1392 642 1392 c 256
 616 1392 596 1373 596 1347 c 256
EndSplineSet
EndChar

StartChar: uni0327
Encoding: 807 807 90
GlifName: uni0327
Width: 0
VWidth: 0
GlyphClass: 4
Flags: HW
AnchorPoint: "bottom_cedilla" 704 -20 mark 0
LayerCount: 2
Fore
SplineSet
516 -314 m 257
 645 -239 l 257
 667 -268 707 -272 722 -272 c 256
 757 -272 778 -261 778 -246 c 256
 778 -231 757 -220 722 -220 c 256
 707 -220 688 -223 675 -232 c 257
 545 -170 l 257
 580 -120 624 -60 722 -60 c 256
 842 -60 938 -146 938 -246 c 256
 938 -346 872 -432 722 -432 c 256
 622 -432 562 -375 516 -314 c 257
647 0 m 257
 807 0 l 257
 682 -205 l 257
 675 -232 l 257
 546 -171 l 257
 647 0 l 257
EndSplineSet
EndChar

StartChar: dotlessi
Encoding: 305 305 141
GlifName: dotlessi
Width: 500
VWidth: 0
GlyphClass: 3
Flags: HW
AnchorPoint: "top_center" 250 1040 basechar 0
AnchorPoint: "bottom_center" 250 0 basechar 0
AnchorPoint: "bottom_right" 430 0 basechar 0
LayerCount: 2
Fore
SplineSet
70 0 m 257
 70 1040 l 257
 430 1040 l 257
 430 0 l 257
 70 0 l 257
EndSplineSet
Ligature2: "ligaStandardLigatureslookup0 subtable" i uni030A
EndChar

StartChar: dollar
Encoding: 36 36 142
GlifName: dollar
Width: 1327
VWidth: 0
GlyphClass: 2
Flags: HW
LayerCount: 2
Fore
SplineSet
662 1174 m 256
 522 1174 458 1132 458 1052 c 256
 458 992 556 973 662 945 c 256
 1029 847 1277 725 1277 445 c 256
 1277 165 1072 -30 662 -30 c 256
 357 -30 93 91 50 361 c 257
 423 461 l 257
 423 361 512 306 662 306 c 256
 812 306 897 355 897 445 c 256
 897 535 768 549 662 577 c 256
 314 670 78 792 78 1052 c 256
 78 1312 292 1510 662 1510 c 256
 967 1510 1206 1394 1249 1124 c 257
 876 1024 l 257
 876 1124 802 1174 662 1174 c 256
814 1660 m 257
 814 -180 l 257
 510 -180 l 257
 510 1660 l 257
 814 1660 l 257
EndSplineSet
Substitution2: "ss05StyleSet5lookups57 subtable" dollar.ss05
EndChar

StartChar: plus
Encoding: 43 43 143
GlifName: plus
Width: 1278
VWidth: 0
GlyphClass: 2
Flags: HW
LayerCount: 2
Fore
SplineSet
459 1230 m 257
 819 1230 l 257
 819 90 l 257
 459 90 l 257
 459 1230 l 257
70 500 m 257
 70 820 l 257
 1208 820 l 257
 1208 500 l 257
 70 500 l 257
EndSplineSet
EndChar

StartChar: hyphen
Encoding: 45 45 144
GlifName: hyphen
Width: 1038
VWidth: 0
GlyphClass: 2
Flags: HW
LayerCount: 2
Fore
SplineSet
70 500 m 257
 70 820 l 257
 968 820 l 257
 968 500 l 257
 70 500 l 257
EndSplineSet
EndChar

StartChar: equal
Encoding: 61 61 145
GlifName: equal
Width: 1278
VWidth: 0
GlyphClass: 2
Flags: HW
LayerCount: 2
Fore
SplineSet
1208 1070 m 257
 1208 750 l 257
 70 750 l 257
 70 1070 l 257
 1208 1070 l 257
70 250 m 257
 70 570 l 257
 1208 570 l 257
 1208 250 l 257
 70 250 l 257
EndSplineSet
EndChar

StartChar: percent
Encoding: 37 37 146
GlifName: percent
Width: 2144
VWidth: 0
GlyphClass: 2
Flags: HW
LayerCount: 2
Fore
SplineSet
399 1116 m 256
 399 1066 434 1032 484 1032 c 256
 534 1032 568 1066 568 1116 c 256
 568 1166 534 1200 484 1200 c 256
 434 1200 399 1166 399 1116 c 256
50 1116 m 256
 50 1341 259 1520 484 1520 c 256
 709 1520 918 1341 918 1116 c 256
 918 891 709 712 484 712 c 256
 259 712 50 891 50 1116 c 256
1575 364 m 256
 1575 314 1610 280 1660 280 c 256
 1710 280 1744 314 1744 364 c 256
 1744 414 1710 448 1660 448 c 256
 1610 448 1575 414 1575 364 c 256
1226 364 m 256
 1226 589 1435 768 1660 768 c 256
 1885 768 2094 589 2094 364 c 256
 2094 139 1885 -40 1660 -40 c 256
 1435 -40 1226 139 1226 364 c 256
1602 1302 m 257
 850 0 l 257
 542 178 l 257
 1294 1480 l 257
 1602 1302 l 257
EndSplineSet
EndChar

StartChar: degree
Encoding: 176 176 147
GlifName: degree
Width: 968
VWidth: 0
GlyphClass: 2
Flags: HW
LayerCount: 2
Fore
SplineSet
399 1116 m 256
 399 1066 434 1032 484 1032 c 256
 534 1032 568 1066 568 1116 c 256
 568 1166 534 1200 484 1200 c 256
 434 1200 399 1166 399 1116 c 256
50 1116 m 256
 50 1346 254 1520 484 1520 c 256
 714 1520 918 1346 918 1116 c 256
 918 886 714 712 484 712 c 256
 254 712 50 886 50 1116 c 256
EndSplineSet
EndChar

StartChar: ampersand
Encoding: 38 38 148
GlifName: ampersand
Width: 1498
VWidth: 0
GlyphClass: 2
Flags: HW
LayerCount: 2
Fore
SplineSet
290 815 m 257
 290 815 170 929 170 1083 c 256
 170 1262 290 1510 650 1510 c 256
 1010 1510 1130 1287 1130 1147 c 257
 770 1107 l 257
 770 1167 730 1190 650 1190 c 256
 570 1190 530 1153 530 1083 c 256
 530 1053 540 1027 576 989 c 257
 1448 0 l 257
 1363 0 1105 0 1020 0 c 257
 290 815 l 257
409 423 m 256
 409 347 472 290 692 290 c 256
 962 290 1059 517 1059 667 c 257
 1401 573 l 257
 1381 288 1150 -30 650 -30 c 256
 290 -30 50 120 50 423 c 256
 50 656 304 789 650 989 c 256
 702 1019 770 1067 770 1107 c 257
 1130 1147 l 257
 1130 917 996 817 650 617 c 256
 563 567 409 506 409 423 c 256
EndSplineSet
Substitution2: "cv26CharacterVariants26lookups67 subtable" ampersand.cv26
EndChar

StartChar: asterisk
Encoding: 42 42 149
GlifName: asterisk
Width: 1186
VWidth: 0
GlyphClass: 2
Flags: HW
LayerCount: 2
Fore
SplineSet
50 951 m 257
 163 1301 l 257
 643 1120 l 257
 593 968 l 257
 544 816 l 257
 50 951 l 257
441 446 m 257
 143 662 l 257
 464 1062 l 257
 593 968 l 257
 722 874 l 257
 441 446 l 257
1043 662 m 257
 745 446 l 257
 464 874 l 257
 593 968 l 257
 722 1062 l 257
 1043 662 l 257
1023 1301 m 257
 1136 951 l 257
 642 816 l 257
 593 968 l 257
 543 1120 l 257
 1023 1301 l 257
409 1480 m 257
 777 1480 l 257
 753 968 l 257
 593 968 l 257
 433 968 l 257
 409 1480 l 257
EndSplineSet
Substitution2: "Single Substitution lookup 60 subtable" asterisk.centered
EndChar

StartChar: less
Encoding: 60 60 150
GlifName: less
Width: 1278
VWidth: 0
GlyphClass: 2
Flags: HW
LayerCount: 2
Fore
SplineSet
70 498 m 257
 70 822 l 257
 1208 1274 l 257
 1208 930 l 257
 472 660 l 257
 1208 390 l 257
 1208 46 l 257
 70 498 l 257
EndSplineSet
EndChar

StartChar: greater
Encoding: 62 62 151
GlifName: greater
Width: 1278
VWidth: 0
GlyphClass: 2
Flags: HW
LayerCount: 2
Fore
SplineSet
1208 498 m 257
 70 46 l 257
 70 390 l 257
 806 660 l 257
 70 930 l 257
 70 1274 l 257
 1208 822 l 257
 1208 498 l 257
EndSplineSet
EndChar

StartChar: at
Encoding: 64 64 152
GlifName: at
Width: 2080
VWidth: 0
GlyphClass: 2
Flags: HW
LayerCount: 2
Fore
SplineSet
1030 1510 m 256
 1590 1510 2030 1180 2030 660 c 257
 1670 660 l 257
 1670 980 1440 1190 1040 1190 c 256
 640 1190 410 900 410 580 c 256
 410 260 640 -30 1040 -30 c 256
 1213 -30 1356 16 1463 106 c 257
 1676 -148 l 257
 1504 -280 1284 -350 1040 -350 c 256
 480 -350 50 60 50 580 c 256
 50 1100 470 1510 1030 1510 c 256
1033 713 m 256
 973 713 928 670 915 580 c 256
 913 569 913 559 913 549 c 256
 913 480 942 457 995 457 c 256
 1055 457 1097 490 1113 580 c 256
 1115 591 1115 601 1115 611 c 256
 1115 680 1086 713 1033 713 c 256
1058 1023 m 256
 1139 1023 1174 971 1179 963 c 257
 1185 1004 l 257
 1534 1004 l 257
 1463 580 l 258
 1420 335 1200 137 950 137 c 256
 720 137 551 299 551 521 c 256
 551 540 552 580 555 600 c 256
 590 850 808 1023 1058 1023 c 256
1531 128 m 256
 1304 128 1106 254 1106 497 c 256
 1106 523 1107 538 1113 580 c 257
 1463 580 l 257
 1463 580 1460 558 1460 546 c 256
 1460 507 1473 447 1556 447 c 256
 1640 447 1670 561 1670 660 c 257
 2030 660 l 257
 2030 360 1819 128 1531 128 c 256
EndSplineSet
EndChar

StartChar: asciicircum
Encoding: 94 94 153
GlifName: asciicircum
Width: 1176
VWidth: 0
GlyphClass: 2
Flags: HW
LayerCount: 2
Fore
SplineSet
754 656 m 257
 589 1080 l 257
 422 656 l 257
 50 656 l 257
 412 1480 l 257
 764 1480 l 257
 1126 656 l 257
 754 656 l 257
EndSplineSet
EndChar

StartChar: underscore
Encoding: 95 95 154
GlifName: underscore
Width: 1278
VWidth: 0
GlyphClass: 2
Flags: HW
LayerCount: 2
Fore
SplineSet
0 0 m 257
 1278 0 l 257
 1278 -320 l 257
 0 -320 l 257
 0 0 l 257
EndSplineSet
EndChar

StartChar: grave
Encoding: 96 96 155
GlifName: grave
Width: 652
VWidth: 0
GlyphClass: 2
Flags: HW
LayerCount: 2
Fore
SplineSet
261 1224 m 257
 35 1480 l 257
 439 1480 l 257
 617 1224 l 257
 261 1224 l 257
EndSplineSet
EndChar

StartChar: asciitilde
Encoding: 126 126 156
GlifName: asciitilde
Width: 1278
VWidth: 0
GlyphClass: 2
Flags: HW
LayerCount: 2
Fore
SplineSet
384 427 m 257
 70 520 l 257
 98 715 218 885 478 885 c 256
 628 885 725 747 800 747 c 256
 875 747 894 850 894 885 c 257
 1208 792 l 257
 1180 597 1060 427 800 427 c 256
 650 427 553 565 478 565 c 256
 403 565 384 462 384 427 c 257
EndSplineSet
EndChar

StartChar: exclamdown
Encoding: 161 161 157
GlifName: exclamdown
Width: 552
VWidth: 0
GlyphClass: 2
Flags: HW
LayerCount: 2
Fore
SplineSet
476 880 m 256
 476 769 387 680 276 680 c 256
 165 680 76 769 76 880 c 256
 76 991 165 1080 276 1080 c 256
 387 1080 476 991 476 880 c 256
482 -440 m 257
 70 -440 l 257
 116 588 l 257
 436 588 l 257
 482 -440 l 257
EndSplineSet
EndChar

StartChar: cent
Encoding: 162 162 158
GlifName: cent
Width: 1137
VWidth: 0
GlyphClass: 2
Flags: HW
LayerCount: 2
Fore
SplineSet
937 1220 m 257
 557 -180 l 257
 261 -180 l 257
 641 1220 l 257
 937 1220 l 257
410 520 m 256
 410 383 463 290 600 290 c 256
 704 290 759 344 780 430 c 257
 1087 252 l 257
 999 79 821 -30 600 -30 c 256
 280 -30 50 200 50 520 c 256
 50 840 279 1070 599 1070 c 256
 820 1070 999 961 1087 788 c 257
 780 610 l 257
 759 696 704 750 600 750 c 256
 463 750 410 657 410 520 c 256
EndSplineSet
Substitution2: "ss05StyleSet5lookups57 subtable" cent.ss05
EndChar

StartChar: sterling
Encoding: 163 163 159
GlifName: sterling
Width: 1452
VWidth: 0
GlyphClass: 2
Flags: HW
LayerCount: 2
Fore
SplineSet
346 560 m 257
 854 560 l 257
 854 880 l 257
 346 880 l 257
 50 880 l 257
 50 834 50 606 50 560 c 257
 346 560 l 257
529 1010 m 256
 529 1130 656 1174 751 1174 c 260
 866 1174 973 1110 973 1000 c 256
 973 942 966 916 966 916 c 257
 1333 1000 l 257
 1333 1320 1087 1510 751 1510 c 260
 415 1510 170 1320 170 1040 c 256
 170 808 322 774 322 594 c 256
 322 474 194 356 82 281 c 257
 359 61 l 257
 411 121 662 430 662 650 c 256
 662 810 529 840 529 1010 c 256
1314 351 m 257
 1278 331 1148 280 1052 280 c 256
 865 280 790 388 550 388 c 256
 382 388 190 316 82 281 c 257
 169 -40 l 257
 302 14 408 68 550 68 c 256
 737 68 812 -40 1052 -40 c 256
 1196 -40 1347 3 1402 30 c 257
 1314 351 l 257
EndSplineSet
EndChar

StartChar: currency
Encoding: 164 164 160
GlifName: currency
Width: 1278
VWidth: 0
GlyphClass: 2
Flags: HW
LayerCount: 2
Fore
SplineSet
958 753 m 257
 728 975 l 257
 1001 1248 l 257
 1227 1022 l 257
 958 753 l 257
282 529 m 257
 505 300 l 257
 277 72 l 257
 51 298 l 257
 282 529 l 257
722 351 m 257
 920 605 l 257
 1228 297 l 257
 1002 71 l 257
 722 351 l 257
572 953 m 257
 333 740 l 257
 50 1023 l 257
 276 1249 l 257
 572 953 l 257
154 656 m 256
 154 907 371 1116 634 1116 c 256
 897 1116 1114 907 1114 656 c 256
 1114 405 897 196 634 196 c 256
 371 196 154 405 154 656 c 256
514 656 m 256
 514 576 554 516 634 516 c 256
 714 516 754 576 754 656 c 256
 754 736 714 796 634 796 c 256
 554 796 514 736 514 656 c 256
EndSplineSet
EndChar

StartChar: yen
Encoding: 165 165 161
GlifName: yen
Width: 1572
VWidth: 0
GlyphClass: 2
Flags: HW
LayerCount: 2
Fore
SplineSet
229 532 m 257
 229 836 l 257
 1343 836 l 257
 1343 532 l 257
 229 532 l 257
229 168 m 257
 229 472 l 257
 1343 472 l 257
 1343 168 l 257
 229 168 l 257
596 0 m 257
 596 834 l 257
 976 834 l 257
 976 0 l 257
 596 0 l 257
789 426 m 257
 659 608 l 257
 35 1480 l 257
 463 1480 l 257
 786 988 l 257
 1109 1480 l 257
 1537 1480 l 257
 789 426 l 257
EndSplineSet
EndChar

StartChar: brokenbar
Encoding: 166 166 162
GlifName: brokenbar
Width: 460
VWidth: 0
GlyphClass: 2
Flags: HW
LayerCount: 2
Fore
SplineSet
70 480 m 257
 390 480 l 257
 390 -320 l 257
 70 -320 l 257
 70 480 l 257
390 840 m 257
 70 840 l 257
 70 1640 l 257
 390 1640 l 257
 390 840 l 257
EndSplineSet
EndChar

StartChar: section
Encoding: 167 167 163
GlifName: section
Width: 1292
VWidth: 0
GlyphClass: 2
Flags: HW
LayerCount: 2
Fore
SplineSet
646 713 m 257
 496 713 431 646 431 568 c 256
 431 490 539 462 646 439 c 256
 1018 360 1222 217 1222 -33 c 256
 1222 -283 1056 -470 646 -470 c 256
 341 -470 110 -362 70 -107 c 257
 423 -7 l 257
 423 -87 496 -150 646 -150 c 256
 796 -150 862 -111 862 -33 c 256
 862 45 753 78 646 101 c 256
 274 180 71 318 71 568 c 256
 71 818 236 971 646 971 c 257
 646 713 l 257
646 359 m 257
 796 359 862 426 862 504 c 256
 862 582 753 610 646 633 c 256
 294 708 122 855 122 1075 c 256
 122 1295 296 1510 646 1510 c 256
 916 1510 1141 1385 1174 1149 c 257
 821 1049 l 257
 821 1129 786 1190 646 1190 c 256
 506 1190 482 1147 482 1075 c 256
 482 1023 539 994 646 971 c 256
 1018 892 1222 754 1222 504 c 256
 1222 254 1056 101 646 101 c 257
 646 359 l 257
EndSplineSet
EndChar

StartChar: dieresis
Encoding: 168 168 164
GlifName: dieresis
Width: 1100
VWidth: 0
GlyphClass: 2
Flags: HW
LayerCount: 2
Fore
SplineSet
665 1352 m 256
 665 1463 754 1552 865 1552 c 256
 976 1552 1065 1463 1065 1352 c 256
 1065 1241 976 1152 865 1152 c 256
 754 1152 665 1241 665 1352 c 256
35 1352 m 256
 35 1463 124 1552 235 1552 c 256
 346 1552 435 1463 435 1352 c 256
 435 1241 346 1152 235 1152 c 256
 124 1152 35 1241 35 1352 c 256
EndSplineSet
EndChar

StartChar: copyright
Encoding: 169 169 165
GlifName: copyright
Width: 1720
VWidth: 0
GlyphClass: 2
Flags: HW
LayerCount: 2
Fore
SplineSet
220 740 m 256
 220 380 500 100 860 100 c 256
 1220 100 1500 380 1500 740 c 256
 1500 1100 1220 1380 860 1380 c 256
 500 1380 220 1100 220 740 c 256
100 740 m 256
 100 1160 440 1500 860 1500 c 256
 1280 1500 1620 1160 1620 740 c 256
 1620 320 1280 -20 860 -20 c 256
 440 -20 100 320 100 740 c 256
677 738 m 256
 677 858 740 947 860 947 c 256
 944 947 1002 909 1027 843 c 257
 1258 975 l 257
 1185 1109 1044 1187 860 1187 c 256
 586 1187 406 1013 406 739 c 256
 406 465 586 291 860 291 c 256
 1044 291 1185 369 1258 503 c 257
 1027 635 l 257
 1002 569 944 531 860 531 c 256
 740 531 677 618 677 738 c 256
EndSplineSet
EndChar

StartChar: registered
Encoding: 174 174 166
GlifName: registered
Width: 1720
VWidth: 0
GlyphClass: 2
Flags: HW
LayerCount: 2
Fore
SplineSet
220 740 m 256
 220 380 500 100 860 100 c 256
 1220 100 1500 380 1500 740 c 256
 1500 1100 1220 1380 860 1380 c 256
 500 1380 220 1100 220 740 c 256
100 740 m 256
 100 1160 440 1500 860 1500 c 256
 1280 1500 1620 1160 1620 740 c 256
 1620 320 1280 -20 860 -20 c 256
 440 -20 100 320 100 740 c 256
513 311 m 257
 513 1169 l 257
 873 1169 l 258
 1111 1169 1234 1018 1234 859 c 256
 1234 700 1103 550 873 550 c 258
 783 550 l 257
 783 311 l 257
 513 311 l 257
783 929 m 257
 783 790 l 257
 873 790 l 258
 933 790 963 812 963 860 c 256
 963 908 933 929 873 929 c 258
 783 929 l 257
761 632 m 257
 1017 700 l 257
 1280 311 l 257
 972 311 l 257
 761 632 l 257
EndSplineSet
EndChar

StartChar: questiondown
Encoding: 191 191 167
GlifName: questiondown
Width: 1264
VWidth: 0
GlyphClass: 2
Flags: HW
LayerCount: 2
Fore
SplineSet
632 -150 m 256
 547 -150 440 -105 440 15 c 256
 440 135 537 164 632 164 c 257
 632 500 l 257
 296 500 80 315 80 15 c 256
 80 -285 336 -470 632 -470 c 256
 928 -470 1184 -307 1184 13 c 257
 817 97 l 257
 817 97 824 71 824 13 c 256
 824 -87 737 -150 632 -150 c 256
826 880 m 256
 826 769 737 680 626 680 c 256
 515 680 426 769 426 880 c 256
 426 991 515 1080 626 1080 c 256
 737 1080 826 991 826 880 c 256
806 588 m 257
 446 588 l 257
 446 164 l 257
 806 164 l 257
 806 588 l 257
EndSplineSet
EndChar

StartChar: acute
Encoding: 180 180 169
GlifName: acute
Width: 652
VWidth: 0
GlyphClass: 2
Flags: HW
LayerCount: 2
Fore
SplineSet
391 1224 m 257
 35 1224 l 257
 213 1480 l 257
 617 1480 l 257
 391 1224 l 257
EndSplineSet
EndChar

StartChar: two.superior
Encoding: 178 178 170
GlifName: uni00B_2
Width: 956
VWidth: 0
GlyphClass: 2
Flags: HW
LayerCount: 2
Fore
SplineSet
102 810 m 261
 170 810 l 261
 339 810 l 257
 854 810 l 257
 854 1050 l 257
 506 1050 l 257
 519 1065 551 1080 596 1101 c 256
 757 1176 854 1223 854 1401 c 256
 854 1579 687 1686 478 1686 c 256
 269 1686 112 1561 112 1360 c 257
 392 1300 l 257
 392 1300 383 1319 383 1360 c 256
 383 1407 411 1446 478 1446 c 256
 533 1446 586 1425 586 1376 c 256
 586 1333 532 1313 478 1288 c 256
 115 1119 102 937 102 810 c 261
EndSplineSet
Substitution2: "tnumTabularNumbers subtable" two.superior.tnum
Substitution2: "pnumProportionalNumbers subtable" two.superior.pnum
EndChar

StartChar: three.superior
Encoding: 179 179 171
GlifName: uni00B_3
Width: 956
VWidth: 0
GlyphClass: 2
Flags: HW
LayerCount: 2
Fore
SplineSet
477 1352 m 262
 407 1352 l 261
 407 1168 l 257
 477 1168 l 258
 565 1168 610 1144 610 1100 c 256
 610 1056 565 1032 477 1032 c 256
 389 1032 346 1066 346 1120 c 257
 77 1047 l 257
 102 895 241 792 477 792 c 256
 725 792 880 885 880 1075 c 256
 880 1222 763 1263 763 1263 c 257
 763 1263 842 1300 842 1420 c 256
 842 1593 704 1686 477 1686 c 256
 264 1686 131 1604 114 1452 c 257
 380 1379 l 261
 380 1417 407 1446 477 1446 c 256
 547 1446 574 1427 574 1399 c 256
 574 1371 547 1352 477 1352 c 262
EndSplineSet
Substitution2: "tnumTabularNumbers subtable" three.superior.tnum
Substitution2: "pnumProportionalNumbers subtable" three.superior.pnum
EndChar

StartChar: one.superior
Encoding: 185 185 172
GlifName: uni00B_9
Width: 956
VWidth: 0
GlyphClass: 2
Flags: HW
LayerCount: 2
Fore
SplineSet
388 1266 m 261
 388 810 l 257
 658 810 l 257
 658 1413 l 257
 658 1668 l 257
 405 1668 l 257
 405 1652 l 258
 405 1576 326 1506 224 1506 c 258
 168 1506 l 257
 168 1266 l 257
 388 1266 l 261
EndSplineSet
Substitution2: "tnumTabularNumbers subtable" one.superior.tnum
Substitution2: "pnumProportionalNumbers subtable" one.superior.pnum
EndChar

StartChar: zero.superior
Encoding: 8304 8304 173
GlifName: uni2070
Width: 956
VWidth: 0
GlyphClass: 2
Flags: HW
LayerCount: 2
Fore
SplineSet
352 1239 m 260
 352 1395 406 1446 478 1446 c 256
 550 1446 604 1395 604 1239 c 256
 604 1083 550 1032 478 1032 c 256
 406 1032 352 1083 352 1239 c 260
82 1238 m 260
 82 948 240 792 478 792 c 256
 716 792 874 948 874 1238 c 256
 874 1528 716 1686 478 1686 c 256
 240 1686 82 1528 82 1238 c 260
EndSplineSet
Substitution2: "tnumTabularNumbers subtable" zero.superior.tnum
Substitution2: "pnumProportionalNumbers subtable" zero.superior.pnum
EndChar

StartChar: four.superior
Encoding: 8308 8308 174
GlifName: uni2074
Width: 956
VWidth: 0
GlyphClass: 2
Flags: HW
LayerCount: 2
Fore
SplineSet
649 1668 m 257
 355 1668 l 257
 93 1164 l 257
 93 924 l 257
 489 924 l 257
 489 810 l 257
 759 810 l 257
 759 924 l 257
 863 924 l 257
 863 1164 l 257
 759 1164 l 257
 759 1278 l 257
 489 1278 l 257
 489 1164 l 257
 381 1164 l 257
 649 1668 l 257
EndSplineSet
Substitution2: "tnumTabularNumbers subtable" four.superior.tnum
Substitution2: "pnumProportionalNumbers subtable" four.superior.pnum
EndChar

StartChar: five.superior
Encoding: 8309 8309 175
GlifName: uni2075
Width: 956
VWidth: 0
GlyphClass: 2
Flags: HW
LayerCount: 2
Fore
SplineSet
310 1668 m 261
 181 1668 l 257
 123 1206 l 257
 367 1141 l 257
 403 1168 407 1176 477 1176 c 256
 547 1176 590 1150 590 1104 c 256
 590 1058 547 1032 477 1032 c 256
 389 1032 364 1066 364 1120 c 257
 95 1047 l 257
 120 895 241 792 477 792 c 256
 702 792 861 889 861 1089 c 256
 861 1289 718 1386 493 1386 c 256
 433 1386 414 1378 389 1356 c 257
 399 1428 l 257
 805 1428 l 257
 805 1668 l 257
 439 1668 l 257
 310 1668 l 261
EndSplineSet
Substitution2: "tnumTabularNumbers subtable" five.superior.tnum
Substitution2: "pnumProportionalNumbers subtable" five.superior.pnum
EndChar

StartChar: six.superior
Encoding: 8310 8310 176
GlifName: uni2076
Width: 956
VWidth: 0
GlyphClass: 2
Flags: HW
LayerCount: 2
Fore
SplineSet
357 1334 m 261
 370 1395 412 1446 524 1446 c 256
 636 1446 714 1400 714 1400 c 257
 831 1606 l 257
 831 1606 735 1686 574 1686 c 256
 214 1686 90 1494 90 1212 c 256
 90 1109 121 1013 174 930 c 256
 237 832 346 792 488 792 c 256
 718 792 866 898 866 1092 c 256
 866 1286 736 1392 511 1392 c 256
 414 1392 389 1375 357 1334 c 261
382 1107 m 256
 382 1157 428 1182 488 1182 c 256
 548 1182 595 1157 595 1107 c 256
 595 1057 548 1032 488 1032 c 256
 428 1032 382 1057 382 1107 c 256
EndSplineSet
Substitution2: "tnumTabularNumbers subtable" six.superior.tnum
Substitution2: "pnumProportionalNumbers subtable" six.superior.pnum
EndChar

StartChar: seven.superior
Encoding: 8311 8311 177
GlifName: uni2077
Width: 956
VWidth: 0
GlyphClass: 2
Flags: HW
LayerCount: 2
Fore
SplineSet
108 1429 m 261
 527 1429 l 257
 527 1429 296 1265 239 810 c 257
 290 810 459 810 510 810 c 257
 561 1266 848 1449 848 1449 c 257
 848 1668 l 257
 108 1668 l 257
 108 1429 l 261
EndSplineSet
Substitution2: "tnumTabularNumbers subtable" seven.superior.tnum
Substitution2: "pnumProportionalNumbers subtable" seven.superior.pnum
EndChar

StartChar: eight.superior
Encoding: 8312 8312 178
GlifName: uni2078
Width: 956
VWidth: 0
GlyphClass: 2
Flags: HW
LayerCount: 2
Fore
SplineSet
76 1075 m 260
 76 885 229 792 477 792 c 256
 725 792 880 885 880 1075 c 256
 880 1222 763 1263 763 1263 c 257
 763 1263 842 1300 842 1420 c 256
 842 1593 704 1686 477 1686 c 256
 250 1686 112 1593 112 1420 c 260
 112 1300 190 1263 190 1263 c 261
 190 1263 76 1222 76 1075 c 260
380 1399 m 260
 380 1427 407 1446 477 1446 c 256
 547 1446 574 1427 574 1399 c 256
 574 1371 547 1352 477 1352 c 260
 407 1352 380 1371 380 1399 c 260
477 1168 m 260
 565 1168 610 1144 610 1100 c 256
 610 1056 565 1032 477 1032 c 260
 389 1032 346 1056 346 1100 c 260
 346 1144 389 1168 477 1168 c 260
EndSplineSet
Substitution2: "tnumTabularNumbers subtable" eight.superior.tnum
Substitution2: "pnumProportionalNumbers subtable" eight.superior.pnum
EndChar

StartChar: nine.superior
Encoding: 8313 8313 179
GlifName: uni2079
Width: 956
VWidth: 0
GlyphClass: 2
Flags: HW
LayerCount: 2
Fore
SplineSet
599 1144 m 261
 586 1083 544 1032 432 1032 c 256
 320 1032 242 1078 242 1078 c 257
 125 872 l 257
 125 872 221 792 382 792 c 256
 742 792 866 984 866 1266 c 256
 866 1369 835 1465 782 1548 c 256
 719 1646 610 1686 468 1686 c 256
 238 1686 90 1580 90 1386 c 256
 90 1192 220 1086 445 1086 c 256
 542 1086 567 1103 599 1144 c 261
574 1371 m 260
 574 1321 528 1296 468 1296 c 256
 408 1296 361 1321 361 1371 c 256
 361 1421 408 1446 468 1446 c 256
 528 1446 574 1421 574 1371 c 260
EndSplineSet
Substitution2: "tnumTabularNumbers subtable" nine.superior.tnum
Substitution2: "pnumProportionalNumbers subtable" nine.superior.pnum
EndChar

StartChar: ordfeminine
Encoding: 170 170 180
GlifName: ordfeminine
Width: 952
VWidth: 0
GlyphClass: 2
Flags: HW
LayerCount: 2
Fore
SplineSet
100 681 m 257
 100 921 l 257
 852 921 l 257
 852 681 l 257
 100 681 l 257
615 1060 m 257
 587 1016 510 980 425 980 c 256
 248 980 147 1081 147 1212 c 256
 147 1343 276 1421 453 1421 c 256
 472 1421 504 1416 530 1404 c 257
 529 1412 507 1436 453 1436 c 256
 322 1436 256 1404 256 1404 c 257
 175 1591 l 257
 175 1591 297 1646 453 1646 c 256
 624 1646 759 1606 759 1401 c 258
 759 1342 l 257
 759 1313 l 257
 759 1266 l 258
 759 1231 780 1196 822 1196 c 257
 775 979 l 257
 704 986 652 1021 615 1060 c 257
520 1230 m 256
 520 1238 503 1240 453 1240 c 256
 403 1240 385 1238 385 1230 c 256
 385 1222 403 1220 453 1220 c 256
 503 1220 520 1222 520 1230 c 256
EndSplineSet
Substitution2: "ss04StyleSet4lookups56 subtable" ordfeminine.cv23
Substitution2: "cv23CharacterVariants23lookups64 subtable" ordfeminine.cv23
EndChar

StartChar: ordmasculine
Encoding: 186 186 181
GlifName: ordmasculine
Width: 952
VWidth: 0
GlyphClass: 2
Flags: HW
LayerCount: 2
Fore
SplineSet
476 1619 m 256
 276 1619 135 1499 135 1299 c 256
 135 1099 276 980 476 980 c 256
 676 980 817 1099 817 1299 c 256
 817 1499 676 1619 476 1619 c 256
476 1220 m 256
 426 1220 405 1249 405 1299 c 256
 405 1349 426 1379 476 1379 c 256
 526 1379 547 1349 547 1299 c 256
 547 1249 526 1220 476 1220 c 256
100 681 m 257
 100 921 l 257
 852 921 l 257
 852 681 l 257
 100 681 l 257
EndSplineSet
EndChar

StartChar: guillemotleft
Encoding: 171 171 182
GlifName: guillemotleft
Width: 1460
VWidth: 0
GlyphClass: 2
Flags: HW
LayerCount: 2
Fore
SplineSet
1017 196 m 257
 667 660 l 257
 1017 1126 l 257
 1425 1126 l 257
 1071 660 l 257
 1425 196 l 257
 1017 196 l 257
385 196 m 257
 35 660 l 257
 385 1126 l 257
 793 1126 l 257
 439 660 l 257
 793 196 l 257
 385 196 l 257
EndSplineSet
EndChar

StartChar: logicalnot
Encoding: 172 172 183
GlifName: logicalnot
Width: 1278
VWidth: 0
GlyphClass: 2
Flags: HW
LayerCount: 2
Fore
SplineSet
848 647 m 257
 848 260 l 257
 1208 260 l 257
 1208 820 l 257
 848 647 l 257
70 500 m 257
 1048 500 l 257
 1208 820 l 257
 70 820 l 257
 70 500 l 257
EndSplineSet
EndChar

StartChar: guillemotright
Encoding: 187 187 184
GlifName: guillemotright
Width: 1460
VWidth: 0
GlyphClass: 2
Flags: HW
LayerCount: 2
Fore
SplineSet
443 196 m 257
 793 660 l 257
 443 1126 l 257
 35 1126 l 257
 389 660 l 257
 35 196 l 257
 443 196 l 257
1075 196 m 257
 1425 660 l 257
 1075 1126 l 257
 667 1126 l 257
 1021 660 l 257
 667 196 l 257
 1075 196 l 257
EndSplineSet
EndChar

StartChar: plusminus
Encoding: 177 177 185
GlifName: plusminus
Width: 1278
VWidth: 0
GlyphClass: 2
Flags: HW
LayerCount: 2
Fore
SplineSet
70 0 m 257
 1208 0 l 257
 1208 -320 l 257
 70 -320 l 257
 70 0 l 257
459 1230 m 257
 459 90 l 257
 819 90 l 257
 819 1230 l 257
 459 1230 l 257
70 500 m 257
 1208 500 l 257
 1208 820 l 257
 70 820 l 257
 70 500 l 257
EndSplineSet
EndChar

StartChar: paragraph
Encoding: 182 182 186
GlifName: paragraph
Width: 1318
VWidth: 0
GlyphClass: 2
Flags: HW
LayerCount: 2
Fore
SplineSet
1178 1500 m 257
 567 1500 l 257
 567 1340 l 257
 1178 1340 l 257
 1178 1500 l 257
866 1439 m 257
 866 -440 l 257
 1018 -440 l 257
 1018 1439 l 257
 866 1439 l 257
506 1440 m 257
 506 -440 l 257
 658 -440 l 257
 658 1440 l 257
 577 1440 l 257
 506 1440 l 257
100 1058 m 256
 100 788 297 616 567 616 c 257
 567 1500 l 257
 297 1500 100 1328 100 1058 c 256
EndSplineSet
EndChar

StartChar: periodcentered
Encoding: 183 183 187
GlifName: periodcentered
Width: 500
VWidth: 0
GlyphClass: 2
Flags: HW
LayerCount: 2
Fore
SplineSet
50 660 m 256
 50 771 139 860 250 860 c 256
 361 860 450 771 450 660 c 256
 450 549 361 460 250 460 c 256
 139 460 50 549 50 660 c 256
EndSplineSet
EndChar

StartChar: cedilla
Encoding: 184 184 188
GlifName: cedilla
Width: 492
VWidth: 0
GlyphClass: 2
Flags: HW
LayerCount: 2
Fore
SplineSet
35 -314 m 257
 164 -239 l 257
 186 -268 226 -272 241 -272 c 256
 276 -272 297 -261 297 -246 c 256
 297 -231 276 -220 241 -220 c 256
 226 -220 207 -223 194 -232 c 257
 64 -170 l 257
 99 -120 143 -60 241 -60 c 256
 361 -60 457 -146 457 -246 c 256
 457 -346 391 -432 241 -432 c 256
 141 -432 81 -375 35 -314 c 257
166 0 m 257
 326 0 l 257
 201 -205 l 257
 194 -232 l 257
 65 -171 l 257
 166 0 l 257
EndSplineSet
EndChar

StartChar: threequarters
Encoding: 190 190 189
GlifName: threequarters
Width: 2228
VWidth: 0
GlyphClass: 2
Flags: HW
LayerCount: 2
Fore
SplineSet
460 1164 m 258
 530 1164 557 1183 557 1211 c 256
 557 1239 530 1258 460 1258 c 256
 390 1258 363 1229 363 1191 c 257
 97 1264 l 257
 114 1416 247 1498 460 1498 c 256
 687 1498 825 1405 825 1232 c 256
 825 1112 746 1075 746 1075 c 257
 746 1075 863 1034 863 887 c 256
 863 697 708 604 460 604 c 256
 224 604 85 707 60 859 c 257
 329 932 l 257
 329 878 372 844 460 844 c 256
 548 844 593 868 593 912 c 256
 593 956 548 980 460 980 c 258
 390 980 l 257
 390 1164 l 257
 460 1164 l 258
1939 858 m 257
 1645 858 l 257
 1383 354 l 257
 1383 114 l 257
 1779 114 l 257
 1779 0 l 257
 2049 0 l 257
 2049 114 l 257
 2153 114 l 257
 2153 354 l 257
 2049 354 l 257
 2049 468 l 257
 1779 468 l 257
 1779 354 l 257
 1671 354 l 257
 1939 858 l 257
868 67 m 257
 652 191 l 257
 1360 1413 l 257
 1576 1289 l 257
 868 67 l 257
EndSplineSet
Substitution2: "ss02Alternativenumbersset2 subtable" threequarters.cv13
Substitution2: "ss01Alternativenumbersset1 subtable" threequarters.cv03
Substitution2: "cv14Alternativedigit42 subtable" threequarters.cv14
Substitution2: "cv13Alternativedigit32 subtable" threequarters.cv13
Substitution2: "cv04Alternativedigit41 subtable" threequarters.cv04
Substitution2: "cv03Alternativedigit31 subtable" threequarters.cv03
EndChar

StartChar: onequarter
Encoding: 188 188 190
GlifName: onequarter
Width: 2228
VWidth: 0
GlyphClass: 2
Flags: HW
LayerCount: 2
Fore
SplineSet
1939 858 m 257
 1645 858 l 257
 1383 354 l 257
 1383 114 l 257
 1779 114 l 257
 1779 0 l 257
 2049 0 l 257
 2049 114 l 257
 2153 114 l 257
 2153 354 l 257
 2049 354 l 257
 2049 468 l 257
 1779 468 l 257
 1779 354 l 257
 1671 354 l 257
 1939 858 l 257
383 1078 m 257
 163 1078 l 257
 163 1318 l 257
 219 1318 l 258
 321 1318 400 1388 400 1464 c 258
 400 1480 l 257
 653 1480 l 257
 653 1225 l 257
 653 622 l 257
 383 622 l 257
 383 1078 l 257
868 67 m 257
 652 191 l 257
 1360 1413 l 257
 1576 1289 l 257
 868 67 l 257
EndSplineSet
Substitution2: "ss06StyleSet6lookups58 subtable" onequarter.ss06
Substitution2: "ss02Alternativenumbersset2 subtable" onequarter.cv11
Substitution2: "ss01Alternativenumbersset1 subtable" onequarter.cv01
Substitution2: "cv14Alternativedigit42 subtable" onequarter.cv14
Substitution2: "cv11Alternativedigit12 subtable" onequarter.cv11
Substitution2: "cv04Alternativedigit41 subtable" onequarter.cv04
Substitution2: "cv01Alternativedigit11 subtable" onequarter.cv01
EndChar

StartChar: onehalf
Encoding: 189 189 191
GlifName: onehalf
Width: 2228
VWidth: 0
GlyphClass: 2
Flags: HW
LayerCount: 2
Fore
SplineSet
1392 0 m 257
 1392 127 1405 309 1768 478 c 256
 1822 503 1876 523 1876 566 c 256
 1876 615 1823 636 1768 636 c 256
 1701 636 1672 597 1672 550 c 256
 1672 509 1681 490 1681 490 c 257
 1402 550 l 257
 1402 751 1559 876 1768 876 c 256
 1977 876 2144 769 2144 591 c 256
 2144 413 2047 366 1886 291 c 256
 1841 270 1809 255 1796 240 c 257
 2144 240 l 257
 2144 0 l 257
 1629 0 l 257
 1460 0 l 257
 1392 0 l 257
383 1078 m 257
 163 1078 l 257
 163 1318 l 257
 219 1318 l 258
 321 1318 400 1388 400 1464 c 258
 400 1480 l 257
 653 1480 l 257
 653 1225 l 257
 653 622 l 257
 383 622 l 257
 383 1078 l 257
868 67 m 257
 652 191 l 257
 1360 1413 l 257
 1576 1289 l 257
 868 67 l 257
EndSplineSet
Substitution2: "ss06StyleSet6lookups58 subtable" onehalf.ss06
Substitution2: "ss02Alternativenumbersset2 subtable" onehalf.cv11
Substitution2: "ss01Alternativenumbersset1 subtable" onehalf.cv01
Substitution2: "cv12Alternativedigit22 subtable" onehalf.cv12
Substitution2: "cv11Alternativedigit12 subtable" onehalf.cv11
Substitution2: "cv02Alternativedigit21 subtable" onehalf.cv02
Substitution2: "cv01Alternativedigit11 subtable" onehalf.cv01
EndChar

StartChar: uni2156
Encoding: 8534 8534 192
GlifName: uni2156
Width: 2228
VWidth: 0
GlyphClass: 2
Flags: HW
LayerCount: 2
Fore
SplineSet
1414 396 m 257
 1472 858 l 257
 1601 858 l 257
 1730 858 l 257
 2096 858 l 257
 2096 618 l 257
 1690 618 l 257
 1680 546 l 257
 1705 568 1724 576 1784 576 c 256
 2009 576 2152 479 2152 279 c 256
 2152 79 1993 -18 1768 -18 c 256
 1532 -18 1411 85 1386 237 c 257
 1655 310 l 257
 1655 256 1680 222 1768 222 c 256
 1838 222 1881 248 1881 294 c 256
 1881 340 1838 366 1768 366 c 256
 1698 366 1694 358 1658 331 c 257
 1414 396 l 257
84 622 m 257
 84 749 97 931 460 1100 c 256
 514 1125 568 1145 568 1188 c 256
 568 1237 515 1258 460 1258 c 256
 393 1258 364 1219 364 1172 c 256
 364 1131 373 1112 373 1112 c 257
 94 1172 l 257
 94 1373 251 1498 460 1498 c 256
 669 1498 836 1391 836 1213 c 256
 836 1035 739 988 578 913 c 256
 533 892 501 877 488 862 c 257
 836 862 l 257
 836 622 l 257
 321 622 l 257
 152 622 l 257
 84 622 l 257
868 67 m 257
 652 191 l 257
 1360 1413 l 257
 1576 1289 l 257
 868 67 l 257
EndSplineSet
Substitution2: "ss02Alternativenumbersset2 subtable" uni2156.cv12
Substitution2: "ss01Alternativenumbersset1 subtable" uni2156.cv02
Substitution2: "cv15Alternativedigit52 subtable" uni2156.cv15
Substitution2: "cv12Alternativedigit22 subtable" uni2156.cv12
Substitution2: "cv05Alternativedigit51 subtable" uni2156.cv05
Substitution2: "cv02Alternativedigit21 subtable" uni2156.cv02
EndChar

StartChar: twothirds
Encoding: 8532 8532 193
GlifName: twothirds
Width: 2228
VWidth: 0
GlyphClass: 2
Flags: HW
LayerCount: 2
Fore
SplineSet
1768 542 m 258
 1838 542 1865 561 1865 589 c 256
 1865 617 1838 636 1768 636 c 256
 1698 636 1671 607 1671 569 c 257
 1405 642 l 257
 1422 794 1555 876 1768 876 c 256
 1995 876 2133 783 2133 610 c 256
 2133 490 2054 453 2054 453 c 257
 2054 453 2171 412 2171 265 c 256
 2171 75 2016 -18 1768 -18 c 256
 1532 -18 1393 85 1368 237 c 257
 1637 310 l 257
 1637 256 1680 222 1768 222 c 256
 1856 222 1901 246 1901 290 c 256
 1901 334 1856 358 1768 358 c 258
 1698 358 l 257
 1698 542 l 257
 1768 542 l 258
84 622 m 257
 84 749 97 931 460 1100 c 256
 514 1125 568 1145 568 1188 c 256
 568 1237 515 1258 460 1258 c 256
 393 1258 364 1219 364 1172 c 256
 364 1131 373 1112 373 1112 c 257
 94 1172 l 257
 94 1373 251 1498 460 1498 c 256
 669 1498 836 1391 836 1213 c 256
 836 1035 739 988 578 913 c 256
 533 892 501 877 488 862 c 257
 836 862 l 257
 836 622 l 257
 321 622 l 257
 152 622 l 257
 84 622 l 257
868 67 m 257
 652 191 l 257
 1360 1413 l 257
 1576 1289 l 257
 868 67 l 257
EndSplineSet
Substitution2: "ss02Alternativenumbersset2 subtable" twothirds.cv12
Substitution2: "ss01Alternativenumbersset1 subtable" twothirds.cv02
Substitution2: "cv13Alternativedigit32 subtable" twothirds.cv13
Substitution2: "cv12Alternativedigit22 subtable" twothirds.cv12
Substitution2: "cv03Alternativedigit31 subtable" twothirds.cv03
Substitution2: "cv02Alternativedigit21 subtable" twothirds.cv02
EndChar

StartChar: uni215F
Encoding: 8543 8543 194
GlifName: uni215F_
Width: 2228
VWidth: 0
GlyphClass: 2
Flags: HW
LayerCount: 2
Fore
SplineSet
383 1078 m 257
 163 1078 l 257
 163 1318 l 257
 219 1318 l 258
 321 1318 400 1388 400 1464 c 258
 400 1480 l 257
 653 1480 l 257
 653 1225 l 257
 653 622 l 257
 383 622 l 257
 383 1078 l 257
868 67 m 257
 652 191 l 257
 1360 1413 l 257
 1576 1289 l 257
 868 67 l 257
EndSplineSet
Substitution2: "ss06StyleSet6lookups58 subtable" uni215F.ss06
Substitution2: "ss02Alternativenumbersset2 subtable" uni215F.cv11
Substitution2: "ss01Alternativenumbersset1 subtable" uni215F.cv01
Substitution2: "cv11Alternativedigit12 subtable" uni215F.cv11
Substitution2: "cv01Alternativedigit11 subtable" uni215F.cv01
EndChar

StartChar: uni2150
Encoding: 8528 8528 195
GlifName: uni2150
Width: 2228
VWidth: 0
GlyphClass: 2
Flags: HW
LayerCount: 2
Fore
SplineSet
1378 619 m 257
 1378 858 l 257
 2118 858 l 257
 2118 639 l 257
 2118 639 1831 456 1780 0 c 257
 1729 0 1560 0 1509 0 c 257
 1566 455 1797 619 1797 619 c 257
 1378 619 l 257
383 1078 m 257
 163 1078 l 257
 163 1318 l 257
 219 1318 l 258
 321 1318 400 1388 400 1464 c 258
 400 1480 l 257
 653 1480 l 257
 653 1225 l 257
 653 622 l 257
 383 622 l 257
 383 1078 l 257
868 67 m 257
 652 191 l 257
 1360 1413 l 257
 1576 1289 l 257
 868 67 l 257
EndSplineSet
Substitution2: "ss07StyleSet7lookups59 subtable" uni2150.ss07
Substitution2: "ss06StyleSet6lookups58 subtable" uni2150.ss06
Substitution2: "ss02Alternativenumbersset2 subtable" uni2150.cv11
Substitution2: "ss01Alternativenumbersset1 subtable" uni2150.cv01
Substitution2: "cv17Alternativedigit72 subtable" uni2150.cv17
Substitution2: "cv11Alternativedigit12 subtable" uni2150.cv11
Substitution2: "cv07Alternativedigit71 subtable" uni2150.cv07
Substitution2: "cv01Alternativedigit11 subtable" uni2150.cv01
EndChar

StartChar: uni2151
Encoding: 8529 8529 196
GlifName: uni2151
Width: 2228
VWidth: 0
GlyphClass: 2
Flags: HW
LayerCount: 2
Fore
SplineSet
1899 334 m 257
 1867 293 1842 276 1745 276 c 256
 1520 276 1390 382 1390 576 c 256
 1390 770 1538 876 1768 876 c 256
 1910 876 2019 836 2082 738 c 256
 2135 655 2166 559 2166 456 c 256
 2166 174 2042 -18 1682 -18 c 256
 1521 -18 1425 62 1425 62 c 257
 1542 268 l 257
 1542 268 1620 222 1732 222 c 256
 1844 222 1886 273 1899 334 c 257
1874 561 m 256
 1874 611 1828 636 1768 636 c 256
 1708 636 1661 611 1661 561 c 256
 1661 511 1708 486 1768 486 c 256
 1828 486 1874 511 1874 561 c 256
383 1078 m 257
 163 1078 l 257
 163 1318 l 257
 219 1318 l 258
 321 1318 400 1388 400 1464 c 258
 400 1480 l 257
 653 1480 l 257
 653 1225 l 257
 653 622 l 257
 383 622 l 257
 383 1078 l 257
868 67 m 257
 652 191 l 257
 1360 1413 l 257
 1576 1289 l 257
 868 67 l 257
EndSplineSet
Substitution2: "ss06StyleSet6lookups58 subtable" uni2151.ss06
Substitution2: "ss02Alternativenumbersset2 subtable" uni2151.cv11
Substitution2: "ss01Alternativenumbersset1 subtable" uni2151.cv01
Substitution2: "cv19Alternativedigit92 subtable" uni2151.cv19
Substitution2: "cv11Alternativedigit12 subtable" uni2151.cv11
Substitution2: "cv09Alternativedigit91 subtable" uni2151.cv09
Substitution2: "cv01Alternativedigit11 subtable" uni2151.cv01
EndChar

StartChar: uni2152
Encoding: 8530 8530 197
GlifName: uni2152
Width: 2793
VWidth: 0
GlyphClass: 2
Flags: HW
LayerCount: 2
Fore
SplineSet
2187 429 m 256
 2187 273 2241 222 2313 222 c 256
 2385 222 2439 273 2439 429 c 256
 2439 585 2385 636 2313 636 c 256
 2241 636 2187 585 2187 429 c 256
1917 428 m 256
 1917 718 2075 876 2313 876 c 256
 2551 876 2709 718 2709 428 c 256
 2709 138 2551 -18 2313 -18 c 256
 2075 -18 1917 138 1917 428 c 256
1532 456 m 257
 1312 456 l 257
 1312 696 l 257
 1368 696 l 258
 1470 696 1549 766 1549 842 c 258
 1549 858 l 257
 1802 858 l 257
 1802 603 l 257
 1802 0 l 257
 1532 0 l 257
 1532 456 l 257
383 1078 m 257
 163 1078 l 257
 163 1318 l 257
 219 1318 l 258
 321 1318 400 1388 400 1464 c 258
 400 1480 l 257
 653 1480 l 257
 653 1225 l 257
 653 622 l 257
 383 622 l 257
 383 1078 l 257
868 67 m 257
 652 191 l 257
 1360 1413 l 257
 1576 1289 l 257
 868 67 l 257
EndSplineSet
Substitution2: "zeroSlashedZerolookups61 subtable" uni2152.zero
Substitution2: "ss06StyleSet6lookups58 subtable" uni2152.ss06
Substitution2: "ss02Alternativenumbersset2 subtable" uni2152.cv11
Substitution2: "ss01Alternativenumbersset1 subtable" uni2152.cv01
Substitution2: "cv20Alternativedigit02 subtable" uni2152.cv20
Substitution2: "cv11Alternativedigit12 subtable" uni2152.cv11
Substitution2: "cv10Alternativedigit01 subtable" uni2152.cv10
Substitution2: "cv01Alternativedigit11 subtable" uni2152.cv01
EndChar

StartChar: onethird
Encoding: 8531 8531 198
GlifName: onethird
Width: 2228
VWidth: 0
GlyphClass: 2
Flags: HW
LayerCount: 2
Fore
SplineSet
1768 542 m 258
 1838 542 1865 561 1865 589 c 256
 1865 617 1838 636 1768 636 c 256
 1698 636 1671 607 1671 569 c 257
 1405 642 l 257
 1422 794 1555 876 1768 876 c 256
 1995 876 2133 783 2133 610 c 256
 2133 490 2054 453 2054 453 c 257
 2054 453 2171 412 2171 265 c 256
 2171 75 2016 -18 1768 -18 c 256
 1532 -18 1393 85 1368 237 c 257
 1637 310 l 257
 1637 256 1680 222 1768 222 c 256
 1856 222 1901 246 1901 290 c 256
 1901 334 1856 358 1768 358 c 258
 1698 358 l 257
 1698 542 l 257
 1768 542 l 258
383 1078 m 257
 163 1078 l 257
 163 1318 l 257
 219 1318 l 258
 321 1318 400 1388 400 1464 c 258
 400 1480 l 257
 653 1480 l 257
 653 1225 l 257
 653 622 l 257
 383 622 l 257
 383 1078 l 257
868 67 m 257
 652 191 l 257
 1360 1413 l 257
 1576 1289 l 257
 868 67 l 257
EndSplineSet
Substitution2: "ss06StyleSet6lookups58 subtable" onethird.ss06
Substitution2: "ss02Alternativenumbersset2 subtable" onethird.cv11
Substitution2: "ss01Alternativenumbersset1 subtable" onethird.cv01
Substitution2: "cv13Alternativedigit32 subtable" onethird.cv13
Substitution2: "cv11Alternativedigit12 subtable" onethird.cv11
Substitution2: "cv03Alternativedigit31 subtable" onethird.cv03
Substitution2: "cv01Alternativedigit11 subtable" onethird.cv01
EndChar

StartChar: uni2159
Encoding: 8537 8537 199
GlifName: uni2159
Width: 2228
VWidth: 0
GlyphClass: 2
Flags: HW
LayerCount: 2
Fore
SplineSet
1637 524 m 257
 1669 565 1694 582 1791 582 c 256
 2016 582 2146 476 2146 282 c 256
 2146 88 1998 -18 1768 -18 c 256
 1626 -18 1517 22 1454 120 c 256
 1401 203 1370 299 1370 402 c 256
 1370 684 1494 876 1854 876 c 256
 2015 876 2111 796 2111 796 c 257
 1994 590 l 257
 1994 590 1916 636 1804 636 c 256
 1692 636 1650 585 1637 524 c 257
1662 297 m 256
 1662 247 1708 222 1768 222 c 256
 1828 222 1875 247 1875 297 c 256
 1875 347 1828 372 1768 372 c 256
 1708 372 1662 347 1662 297 c 256
383 1078 m 257
 163 1078 l 257
 163 1318 l 257
 219 1318 l 258
 321 1318 400 1388 400 1464 c 258
 400 1480 l 257
 653 1480 l 257
 653 1225 l 257
 653 622 l 257
 383 622 l 257
 383 1078 l 257
868 67 m 257
 652 191 l 257
 1360 1413 l 257
 1576 1289 l 257
 868 67 l 257
EndSplineSet
Substitution2: "ss06StyleSet6lookups58 subtable" uni2159.ss06
Substitution2: "ss02Alternativenumbersset2 subtable" uni2159.cv11
Substitution2: "ss01Alternativenumbersset1 subtable" uni2159.cv01
Substitution2: "cv16Alternativedigit62 subtable" uni2159.cv16
Substitution2: "cv11Alternativedigit12 subtable" uni2159.cv11
Substitution2: "cv06Alternativedigit61 subtable" uni2159.cv06
Substitution2: "cv01Alternativedigit11 subtable" uni2159.cv01
EndChar

StartChar: oneeighth
Encoding: 8539 8539 200
GlifName: oneeighth
Width: 2228
VWidth: 0
GlyphClass: 2
Flags: HW
LayerCount: 2
Fore
SplineSet
1367 265 m 256
 1367 412 1481 453 1481 453 c 257
 1481 453 1403 490 1403 610 c 256
 1403 783 1541 876 1768 876 c 256
 1995 876 2133 783 2133 610 c 256
 2133 490 2054 453 2054 453 c 257
 2054 453 2171 412 2171 265 c 256
 2171 75 2016 -18 1768 -18 c 256
 1520 -18 1367 75 1367 265 c 256
1671 589 m 256
 1671 561 1698 542 1768 542 c 256
 1838 542 1865 561 1865 589 c 256
 1865 617 1838 636 1768 636 c 256
 1698 636 1671 617 1671 589 c 256
1768 358 m 256
 1680 358 1637 334 1637 290 c 256
 1637 246 1680 222 1768 222 c 256
 1856 222 1901 246 1901 290 c 256
 1901 334 1856 358 1768 358 c 256
383 1078 m 257
 163 1078 l 257
 163 1318 l 257
 219 1318 l 258
 321 1318 400 1388 400 1464 c 258
 400 1480 l 257
 653 1480 l 257
 653 1225 l 257
 653 622 l 257
 383 622 l 257
 383 1078 l 257
868 67 m 257
 652 191 l 257
 1360 1413 l 257
 1576 1289 l 257
 868 67 l 257
EndSplineSet
Substitution2: "ss06StyleSet6lookups58 subtable" oneeighth.ss06
Substitution2: "ss02Alternativenumbersset2 subtable" oneeighth.cv11
Substitution2: "ss01Alternativenumbersset1 subtable" oneeighth.cv01
Substitution2: "cv18Alternativedigit82 subtable" oneeighth.cv18
Substitution2: "cv11Alternativedigit12 subtable" oneeighth.cv11
Substitution2: "cv08Alternativedigit81 subtable" oneeighth.cv08
Substitution2: "cv01Alternativedigit11 subtable" oneeighth.cv01
EndChar

StartChar: uni2155
Encoding: 8533 8533 201
GlifName: uni2155
Width: 2228
VWidth: 0
GlyphClass: 2
Flags: HW
LayerCount: 2
Fore
SplineSet
1414 396 m 257
 1472 858 l 257
 1601 858 l 257
 1730 858 l 257
 2096 858 l 257
 2096 618 l 257
 1690 618 l 257
 1680 546 l 257
 1705 568 1724 576 1784 576 c 256
 2009 576 2152 479 2152 279 c 256
 2152 79 1993 -18 1768 -18 c 256
 1532 -18 1411 85 1386 237 c 257
 1655 310 l 257
 1655 256 1680 222 1768 222 c 256
 1838 222 1881 248 1881 294 c 256
 1881 340 1838 366 1768 366 c 256
 1698 366 1694 358 1658 331 c 257
 1414 396 l 257
383 1078 m 257
 163 1078 l 257
 163 1318 l 257
 219 1318 l 258
 321 1318 400 1388 400 1464 c 258
 400 1480 l 257
 653 1480 l 257
 653 1225 l 257
 653 622 l 257
 383 622 l 257
 383 1078 l 257
868 67 m 257
 652 191 l 257
 1360 1413 l 257
 1576 1289 l 257
 868 67 l 257
EndSplineSet
Substitution2: "ss06StyleSet6lookups58 subtable" uni2155.ss06
Substitution2: "ss02Alternativenumbersset2 subtable" uni2155.cv11
Substitution2: "ss01Alternativenumbersset1 subtable" uni2155.cv01
Substitution2: "cv15Alternativedigit52 subtable" uni2155.cv15
Substitution2: "cv11Alternativedigit12 subtable" uni2155.cv11
Substitution2: "cv05Alternativedigit51 subtable" uni2155.cv05
Substitution2: "cv01Alternativedigit11 subtable" uni2155.cv01
EndChar

StartChar: uni2157
Encoding: 8535 8535 202
GlifName: uni2157
Width: 2228
VWidth: 0
GlyphClass: 2
Flags: HW
LayerCount: 2
Fore
SplineSet
1414 396 m 257
 1472 858 l 257
 1601 858 l 257
 1730 858 l 257
 2096 858 l 257
 2096 618 l 257
 1690 618 l 257
 1680 546 l 257
 1705 568 1724 576 1784 576 c 256
 2009 576 2152 479 2152 279 c 256
 2152 79 1993 -18 1768 -18 c 256
 1532 -18 1411 85 1386 237 c 257
 1655 310 l 257
 1655 256 1680 222 1768 222 c 256
 1838 222 1881 248 1881 294 c 256
 1881 340 1838 366 1768 366 c 256
 1698 366 1694 358 1658 331 c 257
 1414 396 l 257
460 1164 m 258
 530 1164 557 1183 557 1211 c 256
 557 1239 530 1258 460 1258 c 256
 390 1258 363 1229 363 1191 c 257
 97 1264 l 257
 114 1416 247 1498 460 1498 c 256
 687 1498 825 1405 825 1232 c 256
 825 1112 746 1075 746 1075 c 257
 746 1075 863 1034 863 887 c 256
 863 697 708 604 460 604 c 256
 224 604 85 707 60 859 c 257
 329 932 l 257
 329 878 372 844 460 844 c 256
 548 844 593 868 593 912 c 256
 593 956 548 980 460 980 c 258
 390 980 l 257
 390 1164 l 257
 460 1164 l 258
868 67 m 257
 652 191 l 257
 1360 1413 l 257
 1576 1289 l 257
 868 67 l 257
EndSplineSet
Substitution2: "ss02Alternativenumbersset2 subtable" uni2157.cv13
Substitution2: "ss01Alternativenumbersset1 subtable" uni2157.cv03
Substitution2: "cv15Alternativedigit52 subtable" uni2157.cv15
Substitution2: "cv13Alternativedigit32 subtable" uni2157.cv13
Substitution2: "cv05Alternativedigit51 subtable" uni2157.cv05
Substitution2: "cv03Alternativedigit31 subtable" uni2157.cv03
EndChar

StartChar: uni2158
Encoding: 8536 8536 203
GlifName: uni2158
Width: 2228
VWidth: 0
GlyphClass: 2
Flags: HW
LayerCount: 2
Fore
SplineSet
1414 396 m 257
 1472 858 l 257
 1601 858 l 257
 1730 858 l 257
 2096 858 l 257
 2096 618 l 257
 1690 618 l 257
 1680 546 l 257
 1705 568 1724 576 1784 576 c 256
 2009 576 2152 479 2152 279 c 256
 2152 79 1993 -18 1768 -18 c 256
 1532 -18 1411 85 1386 237 c 257
 1655 310 l 257
 1655 256 1680 222 1768 222 c 256
 1838 222 1881 248 1881 294 c 256
 1881 340 1838 366 1768 366 c 256
 1698 366 1694 358 1658 331 c 257
 1414 396 l 257
631 1480 m 257
 337 1480 l 257
 75 976 l 257
 75 736 l 257
 471 736 l 257
 471 622 l 257
 741 622 l 257
 741 736 l 257
 845 736 l 257
 845 976 l 257
 741 976 l 257
 741 1090 l 257
 479 1090 l 257
 479 976 l 257
 363 976 l 257
 631 1480 l 257
868 67 m 257
 652 191 l 257
 1360 1413 l 257
 1576 1289 l 257
 868 67 l 257
EndSplineSet
Substitution2: "ss02Alternativenumbersset2 subtable" uni2158.cv14
Substitution2: "ss01Alternativenumbersset1 subtable" uni2158.cv04
Substitution2: "cv15Alternativedigit52 subtable" uni2158.cv15
Substitution2: "cv14Alternativedigit42 subtable" uni2158.cv14
Substitution2: "cv05Alternativedigit51 subtable" uni2158.cv05
Substitution2: "cv04Alternativedigit41 subtable" uni2158.cv04
EndChar

StartChar: uni215A
Encoding: 8538 8538 204
GlifName: uni215A_
Width: 2228
VWidth: 0
GlyphClass: 2
Flags: HW
LayerCount: 2
Fore
SplineSet
1637 524 m 257
 1669 565 1694 582 1791 582 c 256
 2016 582 2146 476 2146 282 c 256
 2146 88 1998 -18 1768 -18 c 256
 1626 -18 1517 22 1454 120 c 256
 1401 203 1370 299 1370 402 c 256
 1370 684 1494 876 1854 876 c 256
 2015 876 2111 796 2111 796 c 257
 1994 590 l 257
 1994 590 1916 636 1804 636 c 256
 1692 636 1650 585 1637 524 c 257
1662 297 m 256
 1662 247 1708 222 1768 222 c 256
 1828 222 1875 247 1875 297 c 256
 1875 347 1828 372 1768 372 c 256
 1708 372 1662 347 1662 297 c 256
106 1018 m 257
 164 1480 l 257
 293 1480 l 257
 422 1480 l 257
 788 1480 l 257
 788 1240 l 257
 382 1240 l 257
 372 1168 l 257
 397 1190 416 1198 476 1198 c 256
 701 1198 844 1101 844 901 c 256
 844 701 685 604 460 604 c 256
 224 604 103 707 78 859 c 257
 347 932 l 257
 347 878 372 844 460 844 c 256
 530 844 573 870 573 916 c 256
 573 962 530 988 460 988 c 256
 390 988 386 980 350 953 c 257
 106 1018 l 257
868 67 m 257
 652 191 l 257
 1360 1413 l 257
 1576 1289 l 257
 868 67 l 257
EndSplineSet
Substitution2: "ss02Alternativenumbersset2 subtable" uni215A.cv15
Substitution2: "ss01Alternativenumbersset1 subtable" uni215A.cv05
Substitution2: "cv16Alternativedigit62 subtable" uni215A.cv16
Substitution2: "cv15Alternativedigit52 subtable" uni215A.cv15
Substitution2: "cv06Alternativedigit61 subtable" uni215A.cv06
Substitution2: "cv05Alternativedigit51 subtable" uni215A.cv05
EndChar

StartChar: threeeighths
Encoding: 8540 8540 205
GlifName: threeeighths
Width: 2228
VWidth: 0
GlyphClass: 2
Flags: HW
LayerCount: 2
Fore
SplineSet
1367 265 m 256
 1367 412 1481 453 1481 453 c 257
 1481 453 1403 490 1403 610 c 256
 1403 783 1541 876 1768 876 c 256
 1995 876 2133 783 2133 610 c 256
 2133 490 2054 453 2054 453 c 257
 2054 453 2171 412 2171 265 c 256
 2171 75 2016 -18 1768 -18 c 256
 1520 -18 1367 75 1367 265 c 256
1671 589 m 256
 1671 561 1698 542 1768 542 c 256
 1838 542 1865 561 1865 589 c 256
 1865 617 1838 636 1768 636 c 256
 1698 636 1671 617 1671 589 c 256
1768 358 m 256
 1680 358 1637 334 1637 290 c 256
 1637 246 1680 222 1768 222 c 256
 1856 222 1901 246 1901 290 c 256
 1901 334 1856 358 1768 358 c 256
460 1164 m 258
 530 1164 557 1183 557 1211 c 256
 557 1239 530 1258 460 1258 c 256
 390 1258 363 1229 363 1191 c 257
 97 1264 l 257
 114 1416 247 1498 460 1498 c 256
 687 1498 825 1405 825 1232 c 256
 825 1112 746 1075 746 1075 c 257
 746 1075 863 1034 863 887 c 256
 863 697 708 604 460 604 c 256
 224 604 85 707 60 859 c 257
 329 932 l 257
 329 878 372 844 460 844 c 256
 548 844 593 868 593 912 c 256
 593 956 548 980 460 980 c 258
 390 980 l 257
 390 1164 l 257
 460 1164 l 258
868 67 m 257
 652 191 l 257
 1360 1413 l 257
 1576 1289 l 257
 868 67 l 257
EndSplineSet
Substitution2: "ss02Alternativenumbersset2 subtable" threeeighths.cv13
Substitution2: "ss01Alternativenumbersset1 subtable" threeeighths.cv03
Substitution2: "cv18Alternativedigit82 subtable" threeeighths.cv18
Substitution2: "cv13Alternativedigit32 subtable" threeeighths.cv13
Substitution2: "cv08Alternativedigit81 subtable" threeeighths.cv08
Substitution2: "cv03Alternativedigit31 subtable" threeeighths.cv03
EndChar

StartChar: fiveeighths
Encoding: 8541 8541 206
GlifName: fiveeighths
Width: 2228
VWidth: 0
GlyphClass: 2
Flags: HW
LayerCount: 2
Fore
SplineSet
1367 265 m 256
 1367 412 1481 453 1481 453 c 257
 1481 453 1403 490 1403 610 c 256
 1403 783 1541 876 1768 876 c 256
 1995 876 2133 783 2133 610 c 256
 2133 490 2054 453 2054 453 c 257
 2054 453 2171 412 2171 265 c 256
 2171 75 2016 -18 1768 -18 c 256
 1520 -18 1367 75 1367 265 c 256
1671 589 m 256
 1671 561 1698 542 1768 542 c 256
 1838 542 1865 561 1865 589 c 256
 1865 617 1838 636 1768 636 c 256
 1698 636 1671 617 1671 589 c 256
1768 358 m 256
 1680 358 1637 334 1637 290 c 256
 1637 246 1680 222 1768 222 c 256
 1856 222 1901 246 1901 290 c 256
 1901 334 1856 358 1768 358 c 256
106 1018 m 257
 164 1480 l 257
 293 1480 l 257
 422 1480 l 257
 788 1480 l 257
 788 1240 l 257
 382 1240 l 257
 372 1168 l 257
 397 1190 416 1198 476 1198 c 256
 701 1198 844 1101 844 901 c 256
 844 701 685 604 460 604 c 256
 224 604 103 707 78 859 c 257
 347 932 l 257
 347 878 372 844 460 844 c 256
 530 844 573 870 573 916 c 256
 573 962 530 988 460 988 c 256
 390 988 386 980 350 953 c 257
 106 1018 l 257
868 67 m 257
 652 191 l 257
 1360 1413 l 257
 1576 1289 l 257
 868 67 l 257
EndSplineSet
Substitution2: "ss02Alternativenumbersset2 subtable" fiveeighths.cv15
Substitution2: "ss01Alternativenumbersset1 subtable" fiveeighths.cv05
Substitution2: "cv18Alternativedigit82 subtable" fiveeighths.cv18
Substitution2: "cv15Alternativedigit52 subtable" fiveeighths.cv15
Substitution2: "cv08Alternativedigit81 subtable" fiveeighths.cv08
Substitution2: "cv05Alternativedigit51 subtable" fiveeighths.cv05
EndChar

StartChar: seveneighths
Encoding: 8542 8542 207
GlifName: seveneighths
Width: 2228
VWidth: 0
GlyphClass: 2
Flags: HW
LayerCount: 2
Fore
SplineSet
1367 265 m 256
 1367 412 1481 453 1481 453 c 257
 1481 453 1403 490 1403 610 c 256
 1403 783 1541 876 1768 876 c 256
 1995 876 2133 783 2133 610 c 256
 2133 490 2054 453 2054 453 c 257
 2054 453 2171 412 2171 265 c 256
 2171 75 2016 -18 1768 -18 c 256
 1520 -18 1367 75 1367 265 c 256
1671 589 m 256
 1671 561 1698 542 1768 542 c 256
 1838 542 1865 561 1865 589 c 256
 1865 617 1838 636 1768 636 c 256
 1698 636 1671 617 1671 589 c 256
1768 358 m 256
 1680 358 1637 334 1637 290 c 256
 1637 246 1680 222 1768 222 c 256
 1856 222 1901 246 1901 290 c 256
 1901 334 1856 358 1768 358 c 256
90 1241 m 257
 90 1480 l 257
 830 1480 l 257
 830 1261 l 257
 830 1261 543 1078 492 622 c 257
 441 622 272 622 221 622 c 257
 278 1077 509 1241 509 1241 c 257
 90 1241 l 257
868 67 m 257
 652 191 l 257
 1360 1413 l 257
 1576 1289 l 257
 868 67 l 257
EndSplineSet
Substitution2: "ss07StyleSet7lookups59 subtable" seveneighths.ss07
Substitution2: "ss02Alternativenumbersset2 subtable" seveneighths.cv17
Substitution2: "ss01Alternativenumbersset1 subtable" seveneighths.cv07
Substitution2: "cv18Alternativedigit82 subtable" seveneighths.cv18
Substitution2: "cv17Alternativedigit72 subtable" seveneighths.cv17
Substitution2: "cv08Alternativedigit81 subtable" seveneighths.cv08
Substitution2: "cv07Alternativedigit71 subtable" seveneighths.cv07
EndChar

StartChar: uni2189
Encoding: 8585 8585 208
GlifName: uni2189
Width: 2228
VWidth: 0
GlyphClass: 2
Flags: HW
LayerCount: 2
Fore
SplineSet
334 1051 m 256
 334 895 388 844 460 844 c 256
 532 844 586 895 586 1051 c 256
 586 1207 532 1258 460 1258 c 256
 388 1258 334 1207 334 1051 c 256
64 1050 m 256
 64 1340 222 1498 460 1498 c 256
 698 1498 856 1340 856 1050 c 256
 856 760 698 604 460 604 c 256
 222 604 64 760 64 1050 c 256
1768 542 m 258
 1838 542 1865 561 1865 589 c 256
 1865 617 1838 636 1768 636 c 256
 1698 636 1671 607 1671 569 c 257
 1405 642 l 257
 1422 794 1555 876 1768 876 c 256
 1995 876 2133 783 2133 610 c 256
 2133 490 2054 453 2054 453 c 257
 2054 453 2171 412 2171 265 c 256
 2171 75 2016 -18 1768 -18 c 256
 1532 -18 1393 85 1368 237 c 257
 1637 310 l 257
 1637 256 1680 222 1768 222 c 256
 1856 222 1901 246 1901 290 c 256
 1901 334 1856 358 1768 358 c 258
 1698 358 l 257
 1698 542 l 257
 1768 542 l 258
868 67 m 257
 652 191 l 257
 1360 1413 l 257
 1576 1289 l 257
 868 67 l 257
EndSplineSet
Substitution2: "zeroSlashedZerolookups61 subtable" uni2189.zero
Substitution2: "ss02Alternativenumbersset2 subtable" uni2189.cv13
Substitution2: "ss01Alternativenumbersset1 subtable" uni2189.cv03
Substitution2: "cv20Alternativedigit02 subtable" uni2189.cv20
Substitution2: "cv13Alternativedigit32 subtable" uni2189.cv13
Substitution2: "cv10Alternativedigit01 subtable" uni2189.cv10
Substitution2: "cv03Alternativedigit31 subtable" uni2189.cv03
EndChar

StartChar: AE
Encoding: 198 198 209
GlifName: A_E_
Width: 2351
VWidth: 0
GlyphClass: 2
Flags: HW
AnchorPoint: "top_center" 1564 1380 basechar 0
AnchorPoint: "bottom_center" 1167 0 basechar 0
LayerCount: 2
Fore
SplineSet
876 1144 m 257
 876 1480 l 257
 1299 1480 l 257
 1299 1144 l 257
 876 1144 l 257
580 688 m 257
 1167 688 l 257
 1167 352 l 257
 580 352 l 257
 580 688 l 257
35 0 m 257
 876 1480 l 257
 1299 1480 l 257
 475 0 l 257
 35 0 l 257
2167 908 m 257
 2167 572 l 257
 1547 572 l 257
 1547 336 l 257
 2281 336 l 257
 2281 0 l 257
 1167 0 l 257
 1167 1480 l 257
 2281 1480 l 257
 2281 1144 l 257
 1547 1144 l 257
 1547 908 l 257
 2167 908 l 257
EndSplineSet
EndChar

StartChar: multiply
Encoding: 215 215 210
GlifName: multiply
Width: 1278
VWidth: 0
GlyphClass: 2
Flags: HW
LayerCount: 2
Fore
SplineSet
123 950 m 257
 929 144 l 257
 1155 370 l 257
 349 1176 l 257
 123 950 l 257
350 145 m 257
 1154 949 l 257
 928 1175 l 257
 124 371 l 257
 350 145 l 257
EndSplineSet
EndChar

StartChar: Eth
Encoding: 208 208 211
GlifName: E_th
Width: 1626
VWidth: 0
GlyphClass: 2
Flags: HW
LayerCount: 2
Fore
SplineSet
860 620 m 257
 860 860 l 257
 0 860 l 257
 0 814 0 666 0 620 c 257
 860 620 l 257
590 1144 m 257
 810 1144 l 257
 1004 1144 1196 1013 1196 740 c 256
 1196 467 1014 336 810 336 c 257
 590 336 l 257
 590 1144 l 257
810 0 m 257
 1266 0 1576 290 1576 740 c 256
 1576 1190 1266 1480 810 1480 c 257
 210 1480 l 257
 210 0 l 257
 438 0 l 257
 810 0 l 257
EndSplineSet
EndChar

StartChar: Oslash
Encoding: 216 216 212
GlifName: O_slash
Width: 1688
VWidth: 0
GlyphClass: 2
Flags: HW
AnchorPoint: "bottom_center" 844 0 basechar 0
AnchorPoint: "top_center" 844 1380 basechar 0
LayerCount: 2
Fore
SplineSet
1341 1650 m 257
 1594 1454 l 257
 347 -170 l 257
 94 26 l 257
 1341 1650 l 257
464 740 m 256
 464 490 594 306 844 306 c 256
 1094 306 1224 490 1224 740 c 256
 1224 990 1094 1174 844 1174 c 256
 594 1174 464 990 464 740 c 256
84 740 m 256
 84 1190 384 1510 844 1510 c 256
 1304 1510 1604 1190 1604 740 c 256
 1604 290 1304 -30 844 -30 c 256
 384 -30 84 290 84 740 c 256
EndSplineSet
Substitution2: "c2sc_CapitalesverspetitescapitalesdansLatinlookup0 subtable" oslash.sc
EndChar

StartChar: Thorn
Encoding: 222 222 213
GlifName: T_horn
Width: 1258
VWidth: 0
GlyphClass: 2
Flags: HW
LayerCount: 2
Fore
SplineSet
450 899 m 257
 450 579 l 257
 637 579 l 257
 757 579 828 629 828 739 c 256
 828 849 757 899 637 899 c 257
 450 899 l 257
70 0 m 257
 70 1193 l 257
 70 1480 l 257
 450 1480 l 257
 450 1235 l 257
 637 1235 l 257
 1023 1235 1208 994 1208 739 c 256
 1208 484 1023 243 637 243 c 257
 450 243 l 257
 450 0 l 257
 70 0 l 257
EndSplineSet
Substitution2: "c2sc_CapitalesverspetitescapitalesdansLatinlookup0 subtable" thorn.sc
EndChar

StartChar: thorn
Encoding: 254 254 214
GlifName: thorn
Width: 1250
VWidth: 0
GlyphClass: 2
Flags: HW
LayerCount: 2
Fore
SplineSet
420 518 m 256
 420 388 493 290 630 290 c 256
 767 290 840 390 840 520 c 256
 840 650 767 750 630 750 c 256
 493 750 420 648 420 518 c 256
70 520 m 257
 70 1480 l 257
 430 1480 l 257
 430 1480 430 960 430 920 c 257
 440 959 545 1070 695 1070 c 256
 1015 1070 1200 840 1200 520 c 256
 1200 200 1015 -30 695 -30 c 256
 545 -30 440 81 430 120 c 257
 430 -440 l 257
 70 -440 l 257
 70 520 l 257
EndSplineSet
Substitution2: "smcpBasdecasseverspetitescapitalesdansLatinlookup0 subtable" thorn.sc
EndChar

StartChar: ae
Encoding: 230 230 215
GlifName: ae
Width: 1896
VWidth: 0
GlyphClass: 2
Flags: HW
AnchorPoint: "bottom_center" 931 0 basechar 0
AnchorPoint: "top_center" 971 1040 basechar 0
LayerCount: 2
Fore
SplineSet
872 660 m 257
 1778 660 l 257
 1476 400 l 257
 872 400 l 257
 872 660 l 257
1485 368 m 257
 1792 242 l 257
 1700 65 1518 -30 1296 -30 c 256
 975 -30 746 200 746 520 c 256
 746 840 976 1070 1296 1070 c 256
 1616 1070 1846 840 1846 520 c 256
 1846 479 1841 438 1834 400 c 257
 1476 400 l 257
 1490 435 1516 476 1516 520 c 256
 1516 657 1433 750 1296 750 c 256
 1159 750 1080 657 1080 520 c 256
 1080 390 1158 290 1296 290 c 256
 1410 290 1467 329 1485 368 c 257
530 -30 m 256
 224 -30 50 135 50 335 c 256
 50 535 272 680 578 680 c 256
 848 680 1018 545 1018 345 c 257
 1018 145 900 -30 530 -30 c 256
746 345 m 256
 746 385 678 400 578 400 c 256
 478 400 410 385 410 345 c 256
 410 305 478 290 578 290 c 256
 678 290 746 305 746 345 c 256
1106 257 m 257
 746 450 l 257
 746 658 l 257
 746 718 710 761 578 761 c 256
 352 761 262 695 262 695 c 257
 98 966 l 257
 98 966 292 1080 578 1080 c 256
 873 1080 1106 978 1106 628 c 257
 1106 257 l 257
EndSplineSet
Substitution2: "ss04StyleSet4lookups56 subtable" ae.cv23
Substitution2: "cv23CharacterVariants23lookups64 subtable" ae.cv23
Substitution2: "smcpBasdecasseverspetitescapitalesdansLatinlookup0 subtable" ae.sc
EndChar

StartChar: oslash
Encoding: 248 248 216
GlifName: oslash
Width: 1180
VWidth: 0
GlyphClass: 2
Flags: HW
AnchorPoint: "bottom_center" 590 0 basechar 0
AnchorPoint: "top_center" 590 1040 basechar 0
LayerCount: 2
Fore
SplineSet
923 1209 m 257
 1178 1016 l 257
 255 -170 l 257
 2 26 l 257
 923 1209 l 257
400 520 m 256
 400 390 453 290 590 290 c 256
 727 290 780 383 780 520 c 256
 780 657 727 750 590 750 c 256
 453 750 400 657 400 520 c 256
40 520 m 256
 40 840 270 1070 590 1070 c 256
 910 1070 1140 840 1140 520 c 256
 1140 200 910 -30 590 -30 c 256
 270 -30 40 200 40 520 c 256
EndSplineSet
Substitution2: "smcpBasdecasseverspetitescapitalesdansLatinlookup0 subtable" oslash.sc
EndChar

StartChar: divide
Encoding: 247 247 217
GlifName: divide
Width: 1278
VWidth: 0
GlyphClass: 2
Flags: HW
LayerCount: 2
Fore
SplineSet
439 230 m 256
 439 341 528 430 639 430 c 256
 750 430 839 341 839 230 c 256
 839 119 750 30 639 30 c 256
 528 30 439 119 439 230 c 256
439 1090 m 256
 439 1201 528 1290 639 1290 c 256
 750 1290 839 1201 839 1090 c 256
 839 979 750 890 639 890 c 256
 528 890 439 979 439 1090 c 256
70 500 m 257
 70 820 l 257
 1208 820 l 257
 1208 500 l 257
 70 500 l 257
EndSplineSet
EndChar

StartChar: germandbls
Encoding: 223 223 218
GlifName: germandbls
Width: 1300
VWidth: 0
GlyphClass: 2
Flags: HW
LayerCount: 2
Fore
SplineSet
682 290 m 256
 640 290 614 296 555 329 c 257
 490 10 l 257
 530 -3 632 -30 682 -30 c 256
 1041 -30 1250 176 1250 456 c 256
 1250 736 978 932 618 932 c 257
 618 612 l 257
 738 612 890 576 890 456 c 256
 890 336 802 290 682 290 c 256
430 1056 m 256
 430 1136 516 1190 606 1190 c 256
 696 1190 782 1141 782 1056 c 256
 782 981 748 932 618 932 c 257
 678 692 l 257
 904 692 1142 801 1142 1056 c 256
 1142 1311 912 1510 606 1510 c 256
 300 1510 70 1311 70 1056 c 256
 70 801 70 0 70 0 c 257
 430 0 l 257
 430 0 430 976 430 1056 c 256
EndSplineSet
Substitution2: "smcpBasdecasseverspetitescapitalesdansLatinlookup0 subtable" germandbls.sc
EndChar

StartChar: eth
Encoding: 240 240 219
GlifName: eth
Width: 1296
VWidth: 0
GlyphClass: 2
Flags: HW
LayerCount: 2
Fore
SplineSet
842 1257 m 257
 993 1330 l 257
 923 1465 l 257
 753 1385 l 257
 347 1190 l 257
 416 1052 l 257
 842 1257 l 257
347 1260 m 257
 465 1193 906 1080 906 520 c 257
 1246 520 l 257
 1246 1000 946 1352 492 1540 c 257
 347 1260 l 257
410 520 m 256
 410 660 498 750 648 750 c 256
 798 750 886 660 886 520 c 256
 886 380 798 290 648 290 c 256
 498 290 410 380 410 520 c 256
50 520 m 256
 50 208 291 -30 648 -30 c 256
 1005 -30 1246 208 1246 520 c 257
 1246 520 1109 520 1086 520 c 257
 1086 832 878 1070 648 1070 c 256
 291 1070 50 832 50 520 c 256
EndSplineSet
EndChar

StartChar: macron
Encoding: 175 175 220
GlifName: macron
Width: 802
VWidth: 0
GlyphClass: 2
Flags: HW
LayerCount: 2
Fore
SplineSet
35 1192 m 257
 35 1472 l 257
 767 1472 l 257
 767 1192 l 257
 35 1192 l 257
EndSplineSet
EndChar

StartChar: uni0304
Encoding: 772 772 221
GlifName: uni0304
Width: 0
VWidth: 0
GlyphClass: 4
Flags: HW
AnchorPoint: "mark_anchor_top" 642 1224 mark 0
AnchorPoint: "mark_anchor_top" 642 1504 basemark 0
AnchorPoint: "mark_anchor_right" 642 1504 basemark 0
AnchorPoint: "mark_anchor_left" 642 1504 basemark 0
AnchorPoint: "mark_anchor_center" 642 1654 basemark 0
AnchorPoint: "top_center" 643 1040 mark 0
LayerCount: 2
Fore
SplineSet
277 1224 m 257
 277 1414 l 257
 1009 1414 l 257
 1009 1224 l 257
 277 1224 l 257
EndSplineSet
EndChar

StartChar: uni0306
Encoding: 774 774 224
GlifName: uni0306
Width: 0
VWidth: 0
GlyphClass: 4
Flags: HW
AnchorPoint: "mark_anchor_right" 642 1460 basemark 0
AnchorPoint: "mark_anchor_left" 642 1460 basemark 0
AnchorPoint: "mark_anchor_top" 642 1506 basemark 0
AnchorPoint: "top_center" 642 1040 mark 0
LayerCount: 2
Fore
SplineSet
642 1194 m 256
 432 1194 306 1340 306 1480 c 257
 564 1480 l 257
 564 1450 592 1404 642 1404 c 256
 692 1404 718 1450 718 1480 c 257
 978 1480 l 257
 978 1340 852 1194 642 1194 c 256
EndSplineSet
EndChar

StartChar: uni0328
Encoding: 808 808 226
GlifName: uni0328
Width: 0
VWidth: 0
GlyphClass: 4
Flags: HW
AnchorPoint: "bottom_right" 642 0 mark 0
LayerCount: 2
Fore
SplineSet
599 -225 m 257
 677 -368 l 257
 620 -418 569 -432 505 -432 c 256
 405 -432 292 -374 292 -224 c 256
 292 -64 494 65 542 100 c 257
 642 0 l 257
 534 -78 462 -137 462 -204 c 256
 462 -230 483 -261 515 -261 c 256
 559 -261 579 -256 599 -225 c 257
EndSplineSet
EndChar

StartChar: uni0307
Encoding: 775 775 229
GlifName: uni0307
Width: 0
VWidth: 0
GlyphClass: 4
Flags: HW
AnchorPoint: "mark_anchor_top" 642 1592 basemark 0
AnchorPoint: "mark_anchor_center" 642 1372 mark 0
AnchorPoint: "top_center" 642 1040 mark 0
LayerCount: 2
Fore
SplineSet
442 1352 m 256
 442 1463 531 1552 642 1552 c 256
 753 1552 842 1463 842 1352 c 256
 842 1241 753 1152 642 1152 c 256
 531 1152 442 1241 442 1352 c 256
EndSplineSet
EndChar

StartChar: uni030C
Encoding: 780 780 230
GlifName: uni030C_
Width: 0
VWidth: 0
GlyphClass: 4
Flags: HW
AnchorPoint: "mark_anchor_center" 642 1602 basemark 0
AnchorPoint: "mark_anchor_center" 642 1224 mark 0
AnchorPoint: "top_center" 642 1040 mark 0
LayerCount: 2
Fore
SplineSet
585 1480 m 257
 745 1224 l 257
 439 1224 l 257
 234 1480 l 257
 585 1480 l 257
699 1480 m 257
 1050 1480 l 257
 845 1224 l 257
 539 1224 l 257
 699 1480 l 257
EndSplineSet
EndChar

StartChar: uni0237
Encoding: 567 567 317
GlifName: uni0237
Width: 665
VWidth: 0
GlyphClass: 2
Flags: HW
AnchorPoint: "bottom_center" 311 -360 basechar 0
AnchorPoint: "top_center" 415 1040 basechar 0
LayerCount: 2
Fore
SplineSet
105 -134 m 257
 118 -143 148 -150 167 -150 c 256
 219 -150 235 -128 235 -78 c 258
 235 0 l 257
 235 138 l 257
 235 1040 l 257
 595 1040 l 257
 595 138 l 257
 595 0 l 257
 595 -78 l 258
 595 -378 351 -470 167 -470 c 256
 79 -470 31 -439 5 -426 c 257
 105 -134 l 257
EndSplineSet
Substitution2: "smcpBasdecasseverspetitescapitalesdansLatinlookup0 subtable" uni0237.sc
EndChar

StartChar: oe
Encoding: 339 339 319
GlifName: oe
Width: 1940
VWidth: 0
GlyphClass: 2
Flags: HW
LayerCount: 2
Fore
SplineSet
916 660 m 257
 1822 660 l 257
 1520 400 l 257
 916 400 l 257
 916 660 l 257
1529 368 m 257
 1836 242 l 257
 1744 65 1562 -30 1340 -30 c 256
 1019 -30 790 200 790 520 c 256
 790 840 1020 1070 1340 1070 c 256
 1660 1070 1890 840 1890 520 c 256
 1890 479 1885 438 1878 400 c 257
 1520 400 l 257
 1534 435 1560 476 1560 520 c 256
 1560 657 1477 750 1340 750 c 256
 1203 750 1110 657 1110 520 c 256
 1110 390 1202 290 1340 290 c 256
 1454 290 1511 329 1529 368 c 257
410 520 m 256
 410 390 463 290 600 290 c 256
 737 290 790 383 790 520 c 256
 790 657 737 750 600 750 c 256
 463 750 410 657 410 520 c 256
50 520 m 256
 50 840 280 1070 600 1070 c 256
 920 1070 1150 840 1150 520 c 256
 1150 200 920 -30 600 -30 c 256
 280 -30 50 200 50 520 c 256
EndSplineSet
Substitution2: "smcpBasdecasseverspetitescapitalesdansLatinlookup0 subtable" oe.sc
EndChar

StartChar: OE
Encoding: 338 338 320
GlifName: O_E_
Width: 2374
VWidth: 0
GlyphClass: 2
Flags: HW
LayerCount: 2
Fore
SplineSet
430 740 m 256
 430 490 560 306 810 306 c 256
 1060 306 1190 490 1190 740 c 256
 1190 990 1060 1174 810 1174 c 256
 560 1174 430 990 430 740 c 256
50 740 m 256
 50 1190 350 1510 810 1510 c 256
 1270 1510 1570 1190 1570 740 c 256
 1570 290 1270 -30 810 -30 c 256
 350 -30 50 290 50 740 c 256
2190 908 m 257
 2190 572 l 257
 1570 572 l 257
 1570 336 l 257
 2304 336 l 257
 2304 0 l 257
 1190 0 l 257
 1190 1480 l 257
 2304 1480 l 257
 2304 1144 l 257
 1570 1144 l 257
 1570 908 l 257
 2190 908 l 257
EndSplineSet
EndChar

StartChar: dcaron
Encoding: 271 271 322
GlifName: dcaron
Width: 1575
VWidth: 0
GlyphClass: 2
Flags: HW
LayerCount: 2
Fore
SplineSet
1296 1390 m 256
 1296 1457 1349 1510 1416 1510 c 256
 1483 1510 1536 1457 1536 1390 c 256
 1536 1323 1483 1270 1416 1270 c 256
 1349 1270 1296 1323 1296 1390 c 256
1305 1193 m 257
 1382 1205 1441 1254 1441 1307 c 256
 1441 1333 1417 1390 1417 1390 c 257
 1416 1510 l 257
 1484 1510 1575 1467 1575 1307 c 256
 1575 1180 1436 1082 1341 1065 c 257
 1305 1193 l 257
820 510 m 256
 820 640 757 750 620 750 c 256
 483 750 410 650 410 520 c 256
 410 390 483 290 620 290 c 256
 751 290 820 380 820 510 c 256
1180 168 m 257
 1180 66 1204 0 1204 0 c 257
 856 0 l 257
 856 0 832 60 832 120 c 257
 832 80 705 -30 555 -30 c 256
 235 -30 50 200 50 520 c 256
 50 840 235 1070 555 1070 c 256
 705 1070 810 959 820 920 c 257
 820 1480 l 257
 1180 1480 l 257
 1180 168 l 257
EndSplineSet
Substitution2: "smcpBasdecasseverspetitescapitalesdansLatinlookup0 subtable" dcaron.sc
EndChar

StartChar: dcroat
Encoding: 273 273 323
GlifName: dcroat
Width: 1390
VWidth: 0
GlyphClass: 2
Flags: HW
LayerCount: 2
Fore
SplineSet
1390 1120 m 257
 550 1120 l 257
 550 1166 550 1314 550 1360 c 257
 1390 1360 l 257
 1390 1120 l 257
820 510 m 256
 820 640 757 750 620 750 c 256
 483 750 410 650 410 520 c 256
 410 390 483 290 620 290 c 256
 751 290 820 380 820 510 c 256
1180 168 m 257
 1180 66 1204 0 1204 0 c 257
 856 0 l 257
 856 0 832 60 832 120 c 257
 832 80 705 -30 555 -30 c 256
 235 -30 50 200 50 520 c 256
 50 840 235 1070 555 1070 c 256
 705 1070 810 959 820 920 c 257
 820 1480 l 257
 1180 1480 l 257
 1180 168 l 257
EndSplineSet
Substitution2: "smcpBasdecasseverspetitescapitalesdansLatinlookup0 subtable" dcroat.sc
EndChar

StartChar: Hbar
Encoding: 294 294 324
GlifName: H_bar
Width: 1678
VWidth: 0
GlyphClass: 2
Flags: HW
LayerCount: 2
Fore
SplineSet
1678 1004 m 257
 0 1004 l 257
 0 1050 0 1198 0 1244 c 257
 1678 1244 l 257
 1678 1004 l 257
168 1480 m 257
 548 1480 l 257
 548 908 l 257
 1130 908 l 257
 1130 1480 l 257
 1510 1480 l 257
 1510 0 l 257
 1130 0 l 257
 1130 572 l 257
 548 572 l 257
 548 0 l 257
 168 -10 l 257
 168 1480 l 257
EndSplineSet
Substitution2: "c2sc_CapitalesverspetitescapitalesdansLatinlookup0 subtable" hbar.sc
EndChar

StartChar: hbar
Encoding: 295 295 325
GlifName: hbar
Width: 1332
VWidth: 0
GlyphClass: 2
Flags: HW
LayerCount: 2
Fore
SplineSet
840 1120 m 257
 0 1120 l 257
 0 1166 0 1314 0 1360 c 257
 840 1360 l 257
 840 1120 l 257
902 0 m 257
 902 572 l 258
 902 682 866 750 736 750 c 256
 606 750 570 682 570 572 c 258
 570 0 l 257
 210 0 l 257
 210 1480 l 257
 558 1480 l 257
 558 920 l 257
 593 981 682 1070 832 1070 c 256
 1096 1070 1262 892 1262 572 c 257
 1262 0 l 257
 902 0 l 257
EndSplineSet
Substitution2: "smcpBasdecasseverspetitescapitalesdansLatinlookup0 subtable" hbar.sc
EndChar

StartChar: Lcaron
Encoding: 317 317 332
GlifName: L_caron
Width: 1254
VWidth: 0
GlyphClass: 2
Flags: HW
LayerCount: 2
Fore
SplineSet
566 1390 m 256
 566 1457 619 1510 686 1510 c 256
 753 1510 806 1457 806 1390 c 256
 806 1323 753 1270 686 1270 c 256
 619 1270 566 1323 566 1390 c 256
575 1193 m 257
 652 1205 711 1254 711 1307 c 256
 711 1333 687 1390 687 1390 c 257
 686 1510 l 257
 754 1510 845 1467 845 1307 c 256
 845 1180 706 1082 611 1065 c 257
 575 1193 l 257
450 1480 m 257
 450 336 l 257
 1184 336 l 257
 1184 0 l 257
 70 0 l 257
 70 1480 l 257
 450 1480 l 257
EndSplineSet
Substitution2: "c2sc_CapitalesverspetitescapitalesdansLatinlookup0 subtable" lcaron.sc
EndChar

StartChar: lcaron
Encoding: 318 318 333
GlifName: lcaron
Width: 825
VWidth: 0
GlyphClass: 2
Flags: HW
LayerCount: 2
Fore
SplineSet
546 1390 m 256
 546 1457 599 1510 666 1510 c 256
 733 1510 786 1457 786 1390 c 256
 786 1323 733 1270 666 1270 c 256
 599 1270 546 1323 546 1390 c 256
555 1193 m 257
 632 1205 691 1254 691 1307 c 256
 691 1333 667 1390 667 1390 c 257
 666 1510 l 257
 734 1510 825 1467 825 1307 c 256
 825 1180 686 1082 591 1065 c 257
 555 1193 l 257
560 306 m 257
 660 14 l 257
 634 1 586 -30 498 -30 c 256
 314 -30 70 62 70 362 c 258
 70 440 l 257
 70 578 l 257
 70 1480 l 257
 430 1480 l 257
 430 578 l 257
 430 440 l 257
 430 362 l 258
 430 312 446 290 498 290 c 256
 517 290 547 297 560 306 c 257
EndSplineSet
Substitution2: "smcpBasdecasseverspetitescapitalesdansLatinlookup0 subtable" lcaron.sc
EndChar

StartChar: Lslash
Encoding: 321 321 334
GlifName: L_slash
Width: 1359
VWidth: 0
GlyphClass: 2
Flags: HW
LayerCount: 2
Fore
SplineSet
825 1245 m 257
 825 956 l 257
 -35 460 l 257
 -35 749 l 257
 825 1245 l 257
555 1480 m 257
 555 336 l 257
 1289 336 l 257
 1289 0 l 257
 175 0 l 257
 175 1480 l 257
 555 1480 l 257
EndSplineSet
Substitution2: "c2sc_CapitalesverspetitescapitalesdansLatinlookup0 subtable" lslash.sc
EndChar

StartChar: lslash
Encoding: 322 322 335
GlifName: lslash
Width: 835
VWidth: 0
GlyphClass: 2
Flags: HW
LayerCount: 2
Fore
SplineSet
815 1199 m 257
 815 910 l 257
 35 461 l 257
 35 750 l 257
 815 1199 l 257
735 306 m 257
 835 14 l 257
 809 1 761 -30 673 -30 c 256
 489 -30 245 62 245 362 c 258
 245 440 l 257
 245 578 l 257
 245 1480 l 257
 605 1480 l 257
 605 578 l 257
 605 440 l 257
 605 362 l 258
 605 312 621 290 673 290 c 256
 692 290 722 297 735 306 c 257
EndSplineSet
Substitution2: "smcpBasdecasseverspetitescapitalesdansLatinlookup0 subtable" lslash.sc
EndChar

StartChar: Eng
Encoding: 330 330 339
GlifName: E_ng
Width: 1482
VWidth: 0
GlyphClass: 2
Flags: HW
LayerCount: 2
Fore
SplineSet
1412 -78 m 258
 1412 -378 1244 -470 980 -470 c 256
 892 -470 844 -439 818 -426 c 257
 918 -134 l 257
 931 -143 961 -150 980 -150 c 256
 1032 -150 1048 -128 1048 -78 c 258
 1048 0 l 257
 1412 0 l 257
 1412 -78 l 258
434 1480 m 257
 1032 652 l 257
 1032 1480 l 257
 1412 1480 l 257
 1412 0 l 257
 1048 0 l 257
 450 828 l 257
 450 0 l 257
 70 0 l 257
 70 1480 l 257
 434 1480 l 257
EndSplineSet
Substitution2: "c2sc_CapitalesverspetitescapitalesdansLatinlookup0 subtable" eng.sc
EndChar

StartChar: eng
Encoding: 331 331 340
GlifName: eng
Width: 1192
VWidth: 0
GlyphClass: 2
Flags: HW
LayerCount: 2
Fore
SplineSet
1122 -78 m 258
 1122 -378 958 -470 694 -470 c 256
 606 -470 558 -439 532 -426 c 257
 632 -134 l 257
 645 -143 675 -150 694 -150 c 256
 746 -150 762 -128 762 -78 c 258
 762 0 l 257
 1122 0 l 257
 1122 -78 l 258
762 572 m 258
 762 682 726 750 596 750 c 256
 466 750 430 682 430 572 c 258
 430 0 l 257
 70 0 l 257
 70 1040 l 257
 418 1040 l 257
 418 920 l 257
 453 981 542 1070 692 1070 c 256
 956 1070 1122 892 1122 572 c 257
 1122 0 l 257
 762 0 l 257
 762 572 l 258
EndSplineSet
Substitution2: "smcpBasdecasseverspetitescapitalesdansLatinlookup0 subtable" eng.sc
EndChar

StartChar: uni02BC
Encoding: 700 700 341
GlifName: uni02B_C_
Width: 565
VWidth: 0
GlyphClass: 2
Flags: HW
LayerCount: 2
Fore
SplineSet
50 1308 m 256
 50 1419 139 1508 250 1508 c 256
 361 1508 450 1419 450 1308 c 256
 450 1197 361 1108 250 1108 c 256
 139 1108 50 1197 50 1308 c 256
65 997 m 257
 194 1017 291 1082 291 1170 c 256
 291 1214 252 1308 252 1308 c 257
 250 1508 l 257
 363 1508 515 1436 515 1170 c 256
 515 959 284 795 125 767 c 257
 65 997 l 257
EndSplineSet
EndChar

StartChar: uni030B
Encoding: 779 779 342
GlifName: uni030B_
Width: 0
VWidth: 0
GlyphClass: 4
Flags: HW
AnchorPoint: "top_center" 642 1040 mark 0
LayerCount: 2
Fore
SplineSet
1061 1224 m 257
 705 1224 l 257
 883 1480 l 257
 1287 1480 l 257
 1061 1224 l 257
481 1224 m 257
 125 1224 l 257
 303 1480 l 257
 707 1480 l 257
 481 1224 l 257
EndSplineSet
EndChar

StartChar: tcaron
Encoding: 357 357 349
GlifName: tcaron
Width: 1337
VWidth: 0
GlyphClass: 2
Flags: HW
LayerCount: 2
Fore
SplineSet
1058 1427 m 256
 1058 1494 1111 1547 1178 1547 c 256
 1245 1547 1298 1494 1298 1427 c 256
 1298 1360 1245 1307 1178 1307 c 256
 1111 1307 1058 1360 1058 1427 c 256
1067 1230 m 257
 1144 1242 1203 1291 1203 1344 c 256
 1203 1370 1179 1427 1179 1427 c 257
 1178 1547 l 257
 1246 1547 1337 1504 1337 1344 c 256
 1337 1217 1198 1119 1103 1102 c 257
 1067 1230 l 257
97 1028 m 257
 217 1028 301 1106 301 1226 c 257
 301 1320 l 257
 637 1320 l 257
 637 1040 l 257
 942 1040 l 257
 942 720 l 257
 637 720 l 257
 637 440 l 258
 637 340 685 290 775 290 c 256
 835 290 910 313 942 345 c 257
 1033 22 l 257
 977 -2 892 -30 771 -30 c 256
 411 -30 277 160 277 440 c 258
 277 720 l 257
 25 720 l 257
 25 740 25 1008 25 1028 c 257
 97 1028 l 257
EndSplineSet
Substitution2: "smcpBasdecasseverspetitescapitalesdansLatinlookup0 subtable" tcaron.sc
EndChar

StartChar: tbar
Encoding: 359 359 350
GlifName: tbar
Width: 1058
VWidth: 0
GlyphClass: 2
Flags: HW
LayerCount: 2
Fore
SplineSet
25 410 m 257
 25 456 25 604 25 650 c 257
 942 650 l 257
 942 410 l 257
 25 410 l 257
97 1028 m 257
 217 1028 301 1106 301 1226 c 257
 301 1320 l 257
 637 1320 l 257
 637 1040 l 257
 942 1040 l 257
 942 720 l 257
 637 720 l 257
 637 440 l 258
 637 340 685 290 775 290 c 256
 835 290 910 313 942 345 c 257
 1033 22 l 257
 977 -2 892 -30 771 -30 c 256
 411 -30 277 160 277 440 c 258
 277 720 l 257
 25 720 l 257
 25 750 25 998 25 1028 c 257
 97 1028 l 257
EndSplineSet
Substitution2: "smcpBasdecasseverspetitescapitalesdansLatinlookup0 subtable" tbar.sc
EndChar

StartChar: Tbar
Encoding: 358 358 351
GlifName: T_bar
Width: 1482
VWidth: 0
GlyphClass: 2
Flags: HW
LayerCount: 2
Fore
SplineSet
1171 620 m 257
 311 620 l 257
 311 666 311 814 311 860 c 257
 1171 860 l 257
 1171 620 l 257
931 0 m 257
 551 0 l 257
 551 1144 l 257
 70 1144 l 257
 70 1480 l 257
 1412 1480 l 257
 1412 1144 l 257
 931 1144 l 257
 931 0 l 257
EndSplineSet
Substitution2: "c2sc_CapitalesverspetitescapitalesdansLatinlookup0 subtable" tbar.sc
EndChar

StartChar: zero.subscript
Encoding: 8320 8320 353
GlifName: uni2080
Width: 956
VWidth: 0
GlyphClass: 2
Flags: HW
LayerCount: 2
Fore
SplineSet
352 241 m 256
 352 85 406 34 478 34 c 256
 550 34 604 85 604 241 c 256
 604 397 550 448 478 448 c 256
 406 448 352 397 352 241 c 256
82 240 m 256
 82 530 240 688 478 688 c 256
 716 688 874 530 874 240 c 256
 874 -50 716 -206 478 -206 c 256
 240 -206 82 -50 82 240 c 256
EndSplineSet
Substitution2: "tnumTabularNumbers subtable" zero.subscript.tnum
Substitution2: "pnumProportionalNumbers subtable" zero.subscript.pnum
EndChar

StartChar: four.subscript
Encoding: 8324 8324 354
GlifName: uni2084
Width: 956
VWidth: 0
GlyphClass: 2
Flags: HW
LayerCount: 2
Fore
SplineSet
649 670 m 257
 355 670 l 257
 93 166 l 257
 93 -74 l 257
 489 -74 l 257
 489 -188 l 257
 759 -188 l 257
 759 -74 l 257
 863 -74 l 257
 863 166 l 257
 759 166 l 257
 759 280 l 257
 489 280 l 257
 489 166 l 257
 381 166 l 257
 649 670 l 257
EndSplineSet
Substitution2: "tnumTabularNumbers subtable" four.subscript.tnum
Substitution2: "pnumProportionalNumbers subtable" four.subscript.pnum
EndChar

StartChar: five.subscript
Encoding: 8325 8325 355
GlifName: uni2085
Width: 956
VWidth: 0
GlyphClass: 2
Flags: HW
LayerCount: 2
Fore
SplineSet
310 670 m 257
 439 670 l 257
 805 670 l 257
 805 430 l 257
 399 430 l 257
 389 358 l 257
 414 380 433 388 493 388 c 256
 718 388 861 291 861 91 c 256
 861 -109 702 -206 477 -206 c 256
 241 -206 120 -103 95 49 c 257
 364 122 l 257
 364 68 389 34 477 34 c 256
 547 34 590 60 590 106 c 256
 590 152 547 178 477 178 c 256
 407 178 403 170 367 143 c 257
 123 208 l 257
 181 670 l 257
 310 670 l 257
EndSplineSet
Substitution2: "tnumTabularNumbers subtable" five.subscript.tnum
Substitution2: "pnumProportionalNumbers subtable" five.subscript.pnum
EndChar

StartChar: six.subscript
Encoding: 8326 8326 356
GlifName: uni2086
Width: 956
VWidth: 0
GlyphClass: 2
Flags: HW
LayerCount: 2
Fore
SplineSet
357 336 m 257
 389 377 414 394 511 394 c 256
 736 394 866 288 866 94 c 256
 866 -100 718 -206 488 -206 c 256
 346 -206 237 -166 174 -68 c 256
 121 15 90 111 90 214 c 256
 90 496 214 688 574 688 c 256
 735 688 831 608 831 608 c 257
 714 402 l 257
 714 402 636 448 524 448 c 256
 412 448 370 397 357 336 c 257
382 109 m 256
 382 59 428 34 488 34 c 256
 548 34 595 59 595 109 c 256
 595 159 548 184 488 184 c 256
 428 184 382 159 382 109 c 256
EndSplineSet
Substitution2: "tnumTabularNumbers subtable" six.subscript.tnum
Substitution2: "pnumProportionalNumbers subtable" six.subscript.pnum
EndChar

StartChar: seven.subscript
Encoding: 8327 8327 357
GlifName: uni2087
Width: 956
VWidth: 0
GlyphClass: 2
Flags: HW
LayerCount: 2
Fore
SplineSet
108 431 m 257
 108 670 l 257
 848 670 l 257
 848 451 l 257
 848 451 561 268 510 -188 c 257
 459 -188 290 -188 239 -188 c 257
 296 267 527 431 527 431 c 257
 108 431 l 257
EndSplineSet
Substitution2: "tnumTabularNumbers subtable" seven.subscript.tnum
Substitution2: "pnumProportionalNumbers subtable" seven.subscript.pnum
EndChar

StartChar: eight.subscript
Encoding: 8328 8328 358
GlifName: uni2088
Width: 956
VWidth: 0
GlyphClass: 2
Flags: HW
LayerCount: 2
Fore
SplineSet
76 77 m 256
 76 224 190 265 190 265 c 257
 190 265 112 302 112 422 c 256
 112 595 250 688 477 688 c 256
 704 688 842 595 842 422 c 256
 842 302 763 265 763 265 c 257
 763 265 880 224 880 77 c 256
 880 -113 725 -206 477 -206 c 256
 229 -206 76 -113 76 77 c 256
380 401 m 256
 380 373 407 354 477 354 c 256
 547 354 574 373 574 401 c 256
 574 429 547 448 477 448 c 256
 407 448 380 429 380 401 c 256
477 170 m 256
 389 170 346 146 346 102 c 256
 346 58 389 34 477 34 c 256
 565 34 610 58 610 102 c 256
 610 146 565 170 477 170 c 256
EndSplineSet
Substitution2: "tnumTabularNumbers subtable" eight.subscript.tnum
Substitution2: "pnumProportionalNumbers subtable" eight.subscript.pnum
EndChar

StartChar: nine.subscript
Encoding: 8329 8329 359
GlifName: uni2089
Width: 956
VWidth: 0
GlyphClass: 2
Flags: HW
LayerCount: 2
Fore
SplineSet
599 146 m 257
 567 105 542 88 445 88 c 256
 220 88 90 194 90 388 c 256
 90 582 238 688 468 688 c 256
 610 688 719 648 782 550 c 256
 835 467 866 371 866 268 c 256
 866 -14 742 -206 382 -206 c 256
 221 -206 125 -126 125 -126 c 257
 242 80 l 257
 242 80 320 34 432 34 c 256
 544 34 586 85 599 146 c 257
574 373 m 256
 574 423 528 448 468 448 c 256
 408 448 361 423 361 373 c 256
 361 323 408 298 468 298 c 256
 528 298 574 323 574 373 c 256
EndSplineSet
Substitution2: "tnumTabularNumbers subtable" nine.subscript.tnum
Substitution2: "pnumProportionalNumbers subtable" nine.subscript.pnum
EndChar

StartChar: two.subscript
Encoding: 8322 8322 360
GlifName: uni2082
Width: 956
VWidth: 0
GlyphClass: 2
Flags: HW
LayerCount: 2
Fore
SplineSet
102 -188 m 257
 102 -61 115 121 478 290 c 256
 532 315 586 335 586 378 c 256
 586 427 533 448 478 448 c 256
 411 448 382 409 382 362 c 256
 382 321 391 302 391 302 c 257
 112 362 l 257
 112 563 269 688 478 688 c 256
 687 688 854 581 854 403 c 256
 854 225 757 178 596 103 c 256
 551 82 519 67 506 52 c 257
 854 52 l 257
 854 -188 l 257
 339 -188 l 257
 170 -188 l 257
 102 -188 l 257
EndSplineSet
Substitution2: "tnumTabularNumbers subtable" two.subscript.tnum
Substitution2: "pnumProportionalNumbers subtable" two.subscript.pnum
EndChar

StartChar: three.subscript
Encoding: 8323 8323 361
GlifName: uni2083
Width: 956
VWidth: 0
GlyphClass: 2
Flags: HW
LayerCount: 2
Fore
SplineSet
477 354 m 258
 547 354 574 373 574 401 c 256
 574 429 547 448 477 448 c 256
 407 448 380 419 380 381 c 257
 114 454 l 257
 131 606 264 688 477 688 c 256
 704 688 842 595 842 422 c 256
 842 302 763 265 763 265 c 257
 763 265 880 224 880 77 c 256
 880 -113 725 -206 477 -206 c 256
 241 -206 102 -103 77 49 c 257
 346 122 l 257
 346 68 389 34 477 34 c 256
 565 34 610 58 610 102 c 256
 610 146 565 170 477 170 c 258
 407 170 l 257
 407 354 l 257
 477 354 l 258
EndSplineSet
Substitution2: "tnumTabularNumbers subtable" three.subscript.tnum
Substitution2: "pnumProportionalNumbers subtable" three.subscript.pnum
EndChar

StartChar: one.subscript
Encoding: 8321 8321 362
GlifName: uni2081
Width: 956
VWidth: 0
GlyphClass: 2
Flags: HW
LayerCount: 2
Fore
SplineSet
388 268 m 257
 168 268 l 257
 168 508 l 257
 224 508 l 258
 326 508 405 578 405 654 c 258
 405 670 l 257
 658 670 l 257
 658 415 l 257
 658 -188 l 257
 388 -188 l 257
 388 268 l 257
EndSplineSet
Substitution2: "tnumTabularNumbers subtable" one.subscript.tnum
Substitution2: "pnumProportionalNumbers subtable" one.subscript.pnum
EndChar

StartChar: longs
Encoding: 383 383 363
GlifName: longs
Width: 851
VWidth: 0
GlyphClass: 2
Flags: HW
AnchorPoint: "top_center" 456 1380 basechar 0
AnchorPoint: "bottom_center" 250 0 basechar 0
LayerCount: 2
Fore
SplineSet
430 690 m 257
 430 1050 l 257
 430 1150 478 1190 568 1190 c 256
 628 1190 703 1167 735 1135 c 257
 826 1458 l 257
 770 1482 685 1510 564 1510 c 256
 204 1510 70 1320 70 1040 c 257
 70 680 l 257
 70 0 l 257
 430 0 l 257
 430 690 l 257
EndSplineSet
EndChar

StartChar: uni0180
Encoding: 384 384 364
GlifName: uni0180
Width: 1390
VWidth: 0
GlyphClass: 2
Flags: HW
LayerCount: 2
Fore
SplineSet
840 1120 m 257
 0 1120 l 257
 0 1166 0 1314 0 1360 c 257
 840 1360 l 257
 840 1120 l 257
570 510 m 256
 570 380 639 290 770 290 c 256
 907 290 980 390 980 520 c 256
 980 650 907 750 770 750 c 256
 633 750 570 640 570 510 c 256
210 168 m 257
 210 1480 l 257
 570 1480 l 257
 570 920 l 257
 580 959 685 1070 835 1070 c 256
 1155 1070 1340 840 1340 520 c 256
 1340 200 1155 -30 835 -30 c 256
 685 -30 558 80 558 120 c 257
 558 0 l 257
 210 0 l 257
 210 0 210 66 210 168 c 257
EndSplineSet
Substitution2: "smcpBasdecasseverspetitescapitalesdansLatinlookup0 subtable" uni0180.sc
EndChar

StartChar: uni0181
Encoding: 385 385 365
GlifName: uni0181
Width: 1736
VWidth: 0
GlyphClass: 2
Flags: HW
LayerCount: 2
Fore
SplineSet
356 1040 m 257
 2 1040 l 257
 1 1052 0 1064 0 1076 c 256
 0 1326 184 1480 434 1480 c 256
 446 1480 458 1480 470 1479 c 257
 470 1153 l 257
 459 1158 447 1160 434 1160 c 256
 384 1160 349 1126 349 1076 c 256
 349 1063 350 1051 356 1040 c 257
1115 1480 m 257
 1439 1480 1609 1280 1609 1060 c 256
 1609 840 1379 656 1115 656 c 257
 1115 976 l 257
 1205 976 1229 1012 1229 1062 c 256
 1229 1112 1205 1144 1115 1144 c 257
 814 1144 l 257
 814 1480 l 257
 1115 1480 l 257
814 336 m 257
 1115 336 l 257
 1235 336 1306 416 1306 496 c 256
 1306 576 1235 656 1115 656 c 257
 814 656 l 257
 814 336 l 257
434 0 m 257
 434 1480 l 257
 814 1480 l 257
 814 976 l 257
 1115 976 l 257
 1481 976 1686 751 1686 496 c 256
 1686 241 1481 0 1115 0 c 257
 434 0 l 257
EndSplineSet
Substitution2: "c2sc_CapitalesverspetitescapitalesdansLatinlookup0 subtable" uni0253.sc
EndChar

StartChar: uni0182
Encoding: 386 386 366
GlifName: uni0182
Width: 1372
VWidth: 0
GlyphClass: 2
Flags: HW
LayerCount: 2
Fore
SplineSet
1188 1144 m 257
 450 1144 l 257
 450 1480 l 257
 1188 1480 l 257
 1188 1144 l 257
450 336 m 257
 751 336 l 257
 871 336 942 416 942 496 c 256
 942 576 871 656 751 656 c 257
 450 656 l 257
 450 336 l 257
70 1480 m 257
 450 1480 l 257
 450 976 l 257
 751 976 l 257
 1117 976 1322 751 1322 496 c 256
 1322 241 1117 0 751 0 c 257
 70 0 l 257
 70 1480 l 257
EndSplineSet
Substitution2: "c2sc_CapitalesverspetitescapitalesdansLatinlookup0 subtable" uni0183.sc
EndChar

StartChar: uni0183
Encoding: 387 387 367
GlifName: uni0183
Width: 1250
VWidth: 0
GlyphClass: 2
Flags: HW
LayerCount: 2
Fore
SplineSet
1089 1160 m 257
 430 1160 l 257
 430 1480 l 257
 1089 1480 l 257
 1089 1160 l 257
430 510 m 256
 430 380 499 290 630 290 c 256
 767 290 840 390 840 520 c 256
 840 650 767 750 630 750 c 256
 493 750 430 640 430 510 c 256
70 168 m 257
 70 1480 l 257
 430 1480 l 257
 430 920 l 257
 440 959 545 1070 695 1070 c 256
 1015 1070 1200 840 1200 520 c 256
 1200 200 1015 -30 695 -30 c 256
 545 -30 418 80 418 120 c 257
 418 0 l 257
 70 0 l 257
 70 0 70 66 70 168 c 257
EndSplineSet
Substitution2: "smcpBasdecasseverspetitescapitalesdansLatinlookup0 subtable" uni0183.sc
EndChar

StartChar: uni0184
Encoding: 388 388 368
GlifName: uni0184
Width: 1579
VWidth: 0
GlyphClass: 2
Flags: HW
LayerCount: 2
Fore
SplineSet
657 336 m 257
 958 336 l 257
 1078 336 1149 416 1149 496 c 256
 1149 576 1078 656 958 656 c 257
 657 656 l 257
 657 336 l 257
360 1480 m 257
 657 1480 l 257
 657 976 l 257
 958 976 l 257
 1324 976 1529 751 1529 496 c 256
 1529 241 1324 0 958 0 c 257
 277 0 l 257
 277 1000 l 257
 -50 1165 l 257
 360 1480 l 257
EndSplineSet
Substitution2: "c2sc_CapitalesverspetitescapitalesdansLatinlookup0 subtable" uni0185.sc
EndChar

StartChar: uni0185
Encoding: 389 389 369
GlifName: uni0185
Width: 1456
VWidth: 0
GlyphClass: 2
Flags: HW
LayerCount: 2
Fore
SplineSet
636 510 m 256
 636 380 705 290 836 290 c 256
 973 290 1046 390 1046 520 c 256
 1046 650 973 750 836 750 c 256
 699 750 636 640 636 510 c 256
636 1480 m 257
 636 920 l 257
 646 959 751 1070 901 1070 c 256
 1221 1070 1406 840 1406 520 c 256
 1406 200 1221 -30 901 -30 c 256
 751 -30 624 80 624 120 c 257
 624 0 l 257
 276 0 l 257
 276 0 276 66 276 168 c 257
 276 1000 l 257
 -50 1165 l 257
 360 1480 l 257
 636 1480 l 257
EndSplineSet
Substitution2: "smcpBasdecasseverspetitescapitalesdansLatinlookup0 subtable" uni0185.sc
EndChar

StartChar: uni0186
Encoding: 390 390 370
GlifName: uni0186
Width: 1535
VWidth: 0
GlyphClass: 2
Flags: HW
AnchorPoint: "bottom_cedilla" 725 -20 basechar 0
AnchorPoint: "bottom_center" 725 0 basechar 0
AnchorPoint: "top_center" 725 1380 basechar 0
LayerCount: 2
Fore
SplineSet
375 930 m 257
 426 1078 544 1174 725 1174 c 256
 975 1174 1105 990 1105 740 c 256
 1105 490 975 306 725 306 c 256
 544 306 426 402 375 550 c 257
 50 360 l 257
 170 120 410 -30 725 -30 c 256
 1185 -30 1485 290 1485 740 c 256
 1485 1190 1185 1510 725 1510 c 256
 410 1510 170 1360 50 1120 c 257
 375 930 l 257
EndSplineSet
Substitution2: "c2sc_CapitalesverspetitescapitalesdansLatinlookup0 subtable" uni0254.sc
EndChar

StartChar: uni0187
Encoding: 391 391 371
GlifName: uni0187
Width: 1599
VWidth: 0
GlyphClass: 2
Flags: HW
LayerCount: 2
Fore
SplineSet
1563 1560 m 256
 1575 1560 1587 1560 1599 1559 c 257
 1599 1233 l 257
 1588 1238 1576 1240 1563 1240 c 256
 1513 1240 1478 1206 1478 1156 c 256
 1478 1143 1479 1131 1485 1120 c 257
 1131 1120 l 257
 1130 1132 1129 1144 1129 1156 c 256
 1129 1406 1313 1560 1563 1560 c 256
1160 930 m 257
 1109 1078 991 1174 810 1174 c 256
 560 1174 430 990 430 740 c 256
 430 490 560 306 810 306 c 256
 991 306 1109 402 1160 550 c 257
 1485 360 l 257
 1365 120 1125 -30 810 -30 c 256
 350 -30 50 290 50 740 c 256
 50 1190 350 1510 810 1510 c 256
 1125 1510 1365 1360 1485 1120 c 257
 1160 930 l 257
EndSplineSet
Substitution2: "c2sc_CapitalesverspetitescapitalesdansLatinlookup0 subtable" uni0188.sc
EndChar

StartChar: uni0188
Encoding: 392 392 372
GlifName: uni0188
Width: 1201
VWidth: 0
GlyphClass: 2
Flags: HW
LayerCount: 2
Fore
SplineSet
1165 1228 m 256
 1177 1228 1189 1228 1201 1227 c 257
 1201 901 l 257
 1190 906 1178 908 1165 908 c 256
 1115 908 1080 874 1080 824 c 256
 1080 811 1081 799 1087 788 c 257
 733 788 l 257
 732 800 731 812 731 824 c 256
 731 1074 915 1228 1165 1228 c 256
410 520 m 256
 410 383 463 290 600 290 c 256
 704 290 759 344 780 430 c 257
 1087 252 l 257
 999 79 821 -30 600 -30 c 256
 280 -30 50 200 50 520 c 256
 50 840 280 1070 600 1070 c 256
 821 1070 999 961 1087 788 c 257
 780 610 l 257
 759 696 704 750 600 750 c 256
 463 750 410 657 410 520 c 256
EndSplineSet
Substitution2: "smcpBasdecasseverspetitescapitalesdansLatinlookup0 subtable" uni0188.sc
EndChar

StartChar: uni018A
Encoding: 394 394 374
GlifName: uni018A_
Width: 1850
VWidth: 0
GlyphClass: 2
Flags: HW
LayerCount: 2
Fore
SplineSet
356 1040 m 257
 2 1040 l 257
 1 1052 0 1064 0 1076 c 256
 0 1326 184 1480 434 1480 c 256
 446 1480 458 1480 470 1479 c 257
 470 1153 l 257
 459 1158 447 1160 434 1160 c 256
 384 1160 349 1126 349 1076 c 256
 349 1063 350 1051 356 1040 c 257
814 1144 m 257
 814 336 l 257
 1034 336 l 257
 1238 336 1420 467 1420 740 c 256
 1420 1013 1228 1144 1034 1144 c 257
 814 1144 l 257
1034 0 m 257
 662 0 l 257
 434 0 l 257
 434 1480 l 257
 1034 1480 l 257
 1490 1480 1800 1190 1800 740 c 256
 1800 290 1490 0 1034 0 c 257
EndSplineSet
Substitution2: "c2sc_CapitalesverspetitescapitalesdansLatinlookup0 subtable" uni0257.sc
EndChar

StartChar: uni018B
Encoding: 395 395 375
GlifName: uni018B_
Width: 1372
VWidth: 0
GlyphClass: 2
Flags: HW
LayerCount: 2
Fore
SplineSet
184 1144 m 257
 922 1144 l 257
 922 1480 l 257
 184 1480 l 257
 184 1144 l 257
922 336 m 257
 621 336 l 257
 501 336 430 416 430 496 c 256
 430 576 501 656 621 656 c 257
 922 656 l 257
 922 336 l 257
1302 1480 m 257
 922 1480 l 257
 922 976 l 257
 621 976 l 257
 255 976 50 751 50 496 c 256
 50 241 255 0 621 0 c 257
 1302 0 l 257
 1302 1480 l 257
EndSplineSet
Substitution2: "c2sc_CapitalesverspetitescapitalesdansLatinlookup0 subtable" uni018C.sc
EndChar

StartChar: uni018C
Encoding: 396 396 376
GlifName: uni018C_
Width: 1250
VWidth: 0
GlyphClass: 2
Flags: HW
LayerCount: 2
Fore
SplineSet
161 1160 m 257
 820 1160 l 257
 820 1480 l 257
 161 1480 l 257
 161 1160 l 257
820 510 m 256
 820 380 751 290 620 290 c 256
 483 290 410 390 410 520 c 256
 410 650 483 750 620 750 c 256
 757 750 820 640 820 510 c 256
1180 168 m 257
 1180 1480 l 257
 820 1480 l 257
 820 920 l 257
 810 959 705 1070 555 1070 c 256
 235 1070 50 840 50 520 c 256
 50 200 235 -30 555 -30 c 256
 705 -30 832 80 832 120 c 257
 832 60 856 0 856 0 c 257
 1204 0 l 257
 1204 0 1180 66 1180 168 c 257
EndSplineSet
Substitution2: "smcpBasdecasseverspetitescapitalesdansLatinlookup0 subtable" uni018C.sc
EndChar

StartChar: uni018D
Encoding: 397 397 377
GlifName: uni018D_
Width: 1200
VWidth: 0
GlyphClass: 2
Flags: HW
LayerCount: 2
Fore
SplineSet
1150 520 m 256
 1150 200 920 70 600 70 c 257
 600 290 l 257
 737 290 790 383 790 520 c 256
 790 650 737 750 600 750 c 256
 463 750 410 657 410 520 c 256
 410 383 463 290 600 290 c 257
 600 -30 l 257
 280 -30 50 200 50 520 c 256
 50 840 280 1070 600 1070 c 256
 920 1070 1150 840 1150 520 c 256
600 -470 m 256
 384 -470 240 -444 118 -393 c 257
 196 -79 l 257
 323 -134 461 -150 600 -150 c 256
 686 -150 722 -130 722 -90 c 256
 722 -50 686 -30 600 -30 c 257
 600 290 l 257
 936 290 1082 90 1082 -90 c 256
 1082 -270 936 -470 600 -470 c 256
EndSplineSet
EndChar

StartChar: uni018E
Encoding: 398 398 378
GlifName: uni018E_
Width: 1254
VWidth: 0
GlyphClass: 2
Flags: HW
LayerCount: 2
Fore
SplineSet
184 572 m 257
 184 908 l 257
 804 908 l 257
 804 1144 l 257
 70 1144 l 257
 70 1480 l 257
 1184 1480 l 257
 1184 0 l 257
 70 0 l 257
 70 336 l 257
 804 336 l 257
 804 572 l 257
 184 572 l 257
EndSplineSet
Substitution2: "c2sc_CapitalesverspetitescapitalesdansLatinlookup0 subtable" uni01DD.sc
EndChar

StartChar: uni018F
Encoding: 399 399 379
GlifName: uni018F_
Width: 1620
VWidth: 0
GlyphClass: 2
Flags: HW
LayerCount: 2
Fore
SplineSet
65 908 m 257
 55 854 50 798 50 740 c 256
 50 290 350 -30 810 -30 c 256
 1270 -30 1570 290 1570 740 c 256
 1570 1190 1270 1510 810 1510 c 256
 495 1510 255 1360 135 1120 c 257
 460 930 l 257
 511 1078 629 1174 810 1174 c 256
 1060 1174 1190 990 1190 740 c 256
 1190 490 1060 306 810 306 c 256
 560 306 430 490 430 740 c 256
 430 800 438 857 453 908 c 257
 65 908 l 257
1396 572 m 257
 1396 908 l 257
 453 908 l 257
 216 572 l 257
 1396 572 l 257
EndSplineSet
Substitution2: "c2sc_CapitalesverspetitescapitalesdansLatinlookup0 subtable" uni0259.sc
EndChar

StartChar: uni0190
Encoding: 400 400 380
GlifName: uni0190
Width: 1326
VWidth: 0
GlyphClass: 2
Flags: HW
AnchorPoint: "bottom_center" 664 0 basechar 0
AnchorPoint: "top_center" 664 1380 basechar 0
LayerCount: 2
Fore
SplineSet
664 936 m 258
 579 936 484 970 484 1050 c 256
 484 1130 539 1174 664 1174 c 256
 789 1174 852 1130 852 1050 c 257
 1223 1150 l 257
 1178 1377 956 1510 664 1510 c 256
 334 1510 104 1341 104 1058 c 256
 104 829 270 781 270 781 c 257
 270 781 50 695 50 453 c 256
 50 120 304 -30 664 -30 c 256
 959 -30 1233 91 1276 361 c 257
 903 461 l 257
 903 361 814 306 664 306 c 256
 514 306 430 361 430 461 c 256
 430 561 514 616 664 616 c 258
 778 616 l 257
 778 936 l 257
 664 936 l 258
EndSplineSet
Substitution2: "c2sc_CapitalesverspetitescapitalesdansLatinlookup0 subtable" uni025B.sc
EndChar

StartChar: uni0191
Encoding: 401 401 381
GlifName: uni0191
Width: 1305
VWidth: 0
GlyphClass: 2
Flags: HW
LayerCount: 2
Fore
SplineSet
0 -77 m 257
 11 -82 23 -84 36 -84 c 256
 86 -84 121 -50 121 0 c 257
 501 0 l 257
 501 -250 286 -404 36 -404 c 256
 24 -404 12 -404 0 -403 c 257
 0 -77 l 257
501 219 m 257
 501 0 l 257
 121 0 l 257
 121 1480 l 257
 1235 1480 l 257
 1235 1144 l 257
 501 1144 l 257
 501 908 l 257
 1121 908 l 257
 1121 572 l 257
 501 572 l 257
 501 219 l 257
EndSplineSet
EndChar

StartChar: florin
Encoding: 402 402 382
GlifName: florin
Width: 1058
VWidth: 0
GlyphClass: 2
Flags: HW
LayerCount: 2
Fore
SplineSet
156 -77 m 257
 167 -82 179 -84 192 -84 c 256
 242 -84 277 -50 277 0 c 257
 637 0 l 257
 637 -250 442 -404 192 -404 c 256
 180 -404 168 -404 156 -403 c 257
 156 -77 l 257
942 1135 m 257
 910 1167 835 1190 775 1190 c 256
 685 1190 637 1150 637 1050 c 257
 637 1040 l 257
 942 1040 l 257
 942 720 l 257
 637 720 l 257
 637 0 l 257
 277 0 l 257
 277 720 l 257
 25 720 l 257
 25 1040 l 257
 277 1040 l 257
 277 1050 l 257
 277 1330 411 1510 771 1510 c 256
 892 1510 977 1482 1033 1458 c 257
 942 1135 l 257
EndSplineSet
Substitution2: "smcpBasdecasseverspetitescapitalesdansLatinlookup0 subtable" florin.sc
EndChar

StartChar: uni0193
Encoding: 403 403 383
GlifName: uni0193
Width: 1599
VWidth: 0
GlyphClass: 2
Flags: HW
LayerCount: 2
Fore
SplineSet
1563 1560 m 256
 1575 1560 1587 1560 1599 1559 c 257
 1599 1233 l 257
 1588 1238 1576 1240 1563 1240 c 256
 1513 1240 1478 1206 1478 1156 c 256
 1478 1143 1479 1131 1485 1120 c 257
 1131 1120 l 257
 1130 1132 1129 1144 1129 1156 c 256
 1129 1406 1313 1560 1563 1560 c 256
1156 930 m 257
 1105 1078 991 1174 810 1174 c 256
 560 1174 430 990 430 740 c 256
 430 490 560 306 810 306 c 256
 991 306 1105 402 1156 550 c 257
 1321 360 l 257
 1201 120 1125 -30 810 -30 c 256
 350 -30 50 290 50 740 c 256
 50 1190 350 1510 810 1510 c 256
 1125 1510 1365 1360 1485 1120 c 257
 1156 930 l 257
748 824 m 257
 1493 824 l 257
 1493 0 l 257
 1133 0 l 257
 1133 227 l 257
 1113 253 l 257
 1113 488 l 257
 748 488 l 257
 748 824 l 257
EndSplineSet
Substitution2: "ss03StyleSet3lookups55 subtable" uni0193.cv21
Substitution2: "cv21CharacterVariants21lookups62 subtable" uni0193.cv21
Substitution2: "c2sc_CapitalesverspetitescapitalesdansLatinlookup0 subtable" uni0260.sc
EndChar

StartChar: uni0194
Encoding: 404 404 384
GlifName: uni0194
Width: 1530
VWidth: 0
GlyphClass: 2
Flags: HW
LayerCount: 2
Fore
SplineSet
1158 100 m 257
 1188 48 1204 -13 1204 -66 c 256
 1204 -296 1000 -470 770 -470 c 256
 540 -470 336 -296 336 -66 c 256
 336 -13 352 48 382 100 c 257
 527 338 l 257
 35 1480 l 257
 427 1480 l 257
 773 679 l 257
 1103 1480 l 257
 1495 1480 l 257
 1003 338 l 257
 1158 100 l 257
835 0 m 257
 770 107 l 257
 705 0 l 257
 700 -9 685 -38 685 -66 c 256
 685 -116 720 -150 770 -150 c 256
 820 -150 854 -116 854 -66 c 256
 854 -38 842 -12 835 0 c 257
EndSplineSet
Substitution2: "c2sc_CapitalesverspetitescapitalesdansLatinlookup0 subtable" uni0263.sc
EndChar

StartChar: uni0195
Encoding: 405 405 385
GlifName: uni0195
Width: 1864
VWidth: 0
GlyphClass: 2
Flags: HW
LayerCount: 2
Fore
SplineSet
1814 467 m 256
 1814 147 1608 -31 1288 -31 c 256
 968 -31 762 147 762 467 c 257
 762 572 l 258
 762 682 726 750 596 750 c 256
 466 750 430 682 430 572 c 258
 430 0 l 257
 70 0 l 257
 70 1480 l 257
 418 1480 l 257
 418 920 l 257
 453 981 542 1070 692 1070 c 256
 956 1070 1122 892 1122 572 c 257
 1122 467 l 258
 1122 357 1158 289 1288 289 c 256
 1418 289 1454 357 1454 467 c 256
 1454 697 1416 842 1297 945 c 257
 1597 1109 l 257
 1722 980 1814 817 1814 467 c 256
EndSplineSet
Substitution2: "smcpBasdecasseverspetitescapitalesdansLatinlookup0 subtable" uni0195.sc
EndChar

StartChar: uni0196
Encoding: 406 406 386
GlifName: uni0196
Width: 851
VWidth: 0
GlyphClass: 2
Flags: HW
LayerCount: 2
Fore
SplineSet
564 -30 m 256
 204 -30 70 160 70 440 c 257
 70 842 l 257
 70 1480 l 257
 430 1480 l 257
 430 842 l 257
 430 430 l 257
 430 330 478 290 568 290 c 256
 628 290 703 313 735 345 c 257
 826 22 l 257
 770 -2 685 -30 564 -30 c 256
EndSplineSet
Substitution2: "c2sc_CapitalesverspetitescapitalesdansLatinlookup0 subtable" uni0269.sc
EndChar

StartChar: uni0197
Encoding: 407 407 387
GlifName: uni0197
Width: 924
VWidth: 0
GlyphClass: 2
Flags: HW
LayerCount: 2
Fore
SplineSet
892 620 m 257
 32 620 l 257
 32 666 32 814 32 860 c 257
 892 860 l 257
 892 620 l 257
70 1480 m 257
 854 1480 l 257
 854 1144 l 257
 652 1144 l 257
 652 336 l 257
 854 336 l 257
 854 0 l 257
 70 0 l 257
 70 336 l 257
 272 336 l 257
 272 1144 l 257
 70 1144 l 257
 70 1480 l 257
EndSplineSet
Substitution2: "ss03StyleSet3lookups55 subtable" uni0197.cv22
Substitution2: "cv22CharacterVariants22lookups63 subtable" uni0197.cv22
Substitution2: "c2sc_CapitalesverspetitescapitalesdansLatinlookup0 subtable" uni0268.sc
EndChar

StartChar: uni0198
Encoding: 408 408 388
GlifName: uni0198
Width: 1463
VWidth: 0
GlyphClass: 2
Flags: HW
LayerCount: 2
Fore
SplineSet
453 801 m 257
 792 925 l 257
 1458 0 l 257
 1018 0 l 257
 453 801 l 257
70 1106 m 258
 70 1356 285 1510 535 1510 c 256
 547 1510 559 1510 571 1509 c 257
 571 1183 l 257
 560 1188 548 1190 535 1190 c 256
 485 1190 450 1156 450 1106 c 258
 450 940 l 257
 978 1480 l 257
 1050 1480 1386 1480 1458 1480 c 257
 450 450 l 257
 450 0 l 257
 70 0 l 257
 70 1106 l 258
EndSplineSet
Substitution2: "c2sc_CapitalesverspetitescapitalesdansLatinlookup0 subtable" uni0199.sc
EndChar

StartChar: uni0199
Encoding: 409 409 389
GlifName: uni0199
Width: 1163
VWidth: 0
GlyphClass: 2
Flags: HW
LayerCount: 2
Fore
SplineSet
285 643 m 257
 682 660 l 257
 1158 0 l 257
 738 0 l 257
 285 643 l 257
70 1106 m 258
 70 1356 265 1510 515 1510 c 256
 527 1510 539 1510 551 1509 c 257
 551 1183 l 257
 540 1188 528 1190 515 1190 c 256
 465 1190 430 1156 430 1106 c 258
 430 808 l 257
 662 1040 l 257
 734 1040 1054 1040 1126 1040 c 257
 430 344 l 257
 430 0 l 257
 70 0 l 257
 70 1106 l 258
EndSplineSet
Substitution2: "smcpBasdecasseverspetitescapitalesdansLatinlookup0 subtable" uni0199.sc
EndChar

StartChar: uni019A
Encoding: 410 410 390
GlifName: uni019A_
Width: 840
VWidth: 0
GlyphClass: 2
Flags: HW
LayerCount: 2
Fore
SplineSet
840 620 m 257
 0 620 l 257
 0 666 0 814 0 860 c 257
 840 860 l 257
 840 620 l 257
726 306 m 257
 826 14 l 257
 800 1 752 -30 664 -30 c 256
 480 -30 236 62 236 362 c 258
 236 440 l 257
 236 578 l 257
 236 1480 l 257
 596 1480 l 257
 596 578 l 257
 596 440 l 257
 596 362 l 258
 596 312 612 290 664 290 c 256
 683 290 713 297 726 306 c 257
EndSplineSet
Substitution2: "smcpBasdecasseverspetitescapitalesdansLatinlookup0 subtable" uni019A.sc
EndChar

StartChar: uni019B
Encoding: 411 411 391
GlifName: uni019B_
Width: 1375
VWidth: 0
GlyphClass: 2
Flags: HW
LayerCount: 2
Fore
SplineSet
709 1174 m 257
 860 1247 l 257
 790 1382 l 257
 620 1302 l 257
 214 1107 l 257
 283 969 l 257
 709 1174 l 257
784 1040 m 257
 730 1198 l 257
 648 1424 539 1510 260 1510 c 256
 139 1510 109 1489 53 1465 c 257
 149 1145 l 257
 181 1177 200 1190 260 1190 c 256
 320 1190 374 1147 389 1084 c 257
 401 1040 l 257
 35 0 l 257
 419 0 l 257
 595 526 l 257
 673 282 l 257
 746 56 854 -30 1133 -30 c 256
 1254 -30 1284 -9 1340 15 c 257
 1244 335 l 257
 1212 303 1193 290 1133 290 c 256
 1073 290 1019 333 1004 396 c 257
 784 1040 l 257
EndSplineSet
Substitution2: "smcpBasdecasseverspetitescapitalesdansLatinlookup0 subtable" uni019B.sc
EndChar

StartChar: uni019C
Encoding: 412 412 392
GlifName: uni019C_
Width: 1644
VWidth: 0
GlyphClass: 2
Flags: HW
LayerCount: 2
Fore
SplineSet
1574 178 m 257
 1574 76 1598 0 1598 0 c 257
 1250 0 l 257
 1250 0 1226 60 1226 120 c 257
 1226 120 1162 -30 1012 -30 c 256
 748 -30 642 148 642 468 c 257
 642 1460 l 257
 1002 1460 l 257
 1002 468 l 258
 1002 358 1008 290 1108 290 c 256
 1208 290 1214 358 1214 468 c 258
 1214 1460 l 257
 1574 1460 l 257
 1574 178 l 257
810 468 m 257
 810 148 704 -30 440 -30 c 256
 176 -30 70 148 70 468 c 257
 70 1460 l 257
 430 1460 l 257
 430 468 l 258
 430 358 436 290 536 290 c 256
 636 290 642 358 642 468 c 257
 810 468 l 257
EndSplineSet
Substitution2: "c2sc_CapitalesverspetitescapitalesdansLatinlookup0 subtable" uni026F.sc
EndChar

StartChar: uni019D
Encoding: 413 413 393
GlifName: uni019D_
Width: 1533
VWidth: 0
GlyphClass: 2
Flags: HW
LayerCount: 2
Fore
SplineSet
0 -77 m 257
 11 -82 23 -84 36 -84 c 256
 86 -84 121 -50 121 0 c 257
 501 0 l 257
 501 -250 286 -404 36 -404 c 256
 24 -404 12 -404 0 -403 c 257
 0 -77 l 257
485 1480 m 257
 1083 652 l 257
 1083 1480 l 257
 1463 1480 l 257
 1463 0 l 257
 1099 0 l 257
 501 828 l 257
 501 0 l 257
 121 0 l 257
 121 1480 l 257
 485 1480 l 257
EndSplineSet
Substitution2: "c2sc_CapitalesverspetitescapitalesdansLatinlookup0 subtable" uni0272.sc
EndChar

StartChar: uni019E
Encoding: 414 414 394
GlifName: uni019E_
Width: 1192
VWidth: 0
GlyphClass: 2
Flags: HW
LayerCount: 2
Fore
SplineSet
762 -440 m 257
 762 572 l 258
 762 682 726 750 596 750 c 256
 466 750 430 682 430 572 c 258
 430 0 l 257
 70 0 l 257
 70 1040 l 257
 418 1040 l 257
 418 920 l 257
 453 981 542 1070 692 1070 c 256
 956 1070 1122 892 1122 572 c 257
 1122 -440 l 257
 762 -440 l 257
EndSplineSet
Substitution2: "smcpBasdecasseverspetitescapitalesdansLatinlookup0 subtable" uni019E.sc
EndChar

StartChar: uni019F
Encoding: 415 415 395
GlifName: uni019F_
Width: 1620
VWidth: 0
GlyphClass: 2
Flags: HW
LayerCount: 2
Fore
SplineSet
1396 572 m 257
 216 572 l 257
 216 908 l 257
 1396 908 l 257
 1396 572 l 257
430 740 m 256
 430 490 560 306 810 306 c 256
 1060 306 1190 490 1190 740 c 256
 1190 990 1060 1174 810 1174 c 256
 560 1174 430 990 430 740 c 256
50 740 m 256
 50 1190 350 1510 810 1510 c 256
 1270 1510 1570 1190 1570 740 c 256
 1570 290 1270 -30 810 -30 c 256
 350 -30 50 290 50 740 c 256
EndSplineSet
Substitution2: "c2sc_CapitalesverspetitescapitalesdansLatinlookup0 subtable" uni0275.sc
EndChar

StartChar: uni031B
Encoding: 795 795 398
GlifName: uni031B_
Width: 0
VWidth: 0
GlyphClass: 4
Flags: HW
AnchorPoint: "top_right" 0 1480 mark 0
LayerCount: 2
Fore
SplineSet
159 1272 m 257
 156 1271 152 1270 149 1270 c 256
 82 1270 29 1323 29 1390 c 256
 29 1457 82 1510 149 1510 c 256
 217 1510 288 1467 288 1307 c 256
 288 1150 148 1059 0 1033 c 257
 0 1193 l 257
 118 1214 159 1256 159 1272 c 257
EndSplineSet
EndChar

StartChar: uni01A2
Encoding: 418 418 399
GlifName: uni01A_2
Width: 2116
VWidth: 0
GlyphClass: 2
Flags: HW
LayerCount: 2
Fore
SplineSet
1259 1368 m 257
 1259 1052 l 257
 1565 1052 1744 1158 1824 1250 c 257
 1666 1510 l 257
 1600 1458 1451 1368 1259 1368 c 257
1666 -440 m 257
 2046 -440 l 257
 2046 1510 l 257
 1666 1510 l 257
 1666 -440 l 257
1105 360 m 257
 1485 360 l 257
 1485 1120 l 257
 1105 1120 l 257
 1105 360 l 257
1220 550 m 257
 1169 402 991 306 810 306 c 256
 560 306 430 490 430 740 c 256
 430 990 560 1174 810 1174 c 256
 991 1174 1169 1078 1220 930 c 257
 1485 1120 l 257
 1365 1360 1125 1510 810 1510 c 256
 350 1510 50 1190 50 740 c 256
 50 290 350 -30 810 -30 c 256
 1125 -30 1365 120 1485 360 c 257
 1220 550 l 257
EndSplineSet
Substitution2: "c2sc_CapitalesverspetitescapitalesdansLatinlookup0 subtable" uni01A3.sc
EndChar

StartChar: uni01A3
Encoding: 419 419 400
GlifName: uni01A_3
Width: 1677
VWidth: 0
GlyphClass: 2
Flags: HW
LayerCount: 2
Fore
SplineSet
1405 780 m 257
 1247 1040 l 257
 1181 988 1042 898 850 898 c 257
 850 582 l 257
 1156 582 1325 688 1405 780 c 257
1247 -440 m 257
 1607 -440 l 257
 1607 1040 l 257
 1247 1040 l 257
 1247 -440 l 257
727 252 m 257
 1067 252 l 257
 1067 788 l 257
 727 788 l 257
 727 252 l 257
760 430 m 257
 739 344 704 290 600 290 c 256
 463 290 410 383 410 520 c 256
 410 657 463 750 600 750 c 256
 704 750 739 696 760 610 c 257
 1067 788 l 257
 979 961 821 1070 600 1070 c 256
 280 1070 50 840 50 520 c 256
 50 200 280 -30 600 -30 c 256
 821 -30 979 79 1067 252 c 257
 760 430 l 257
EndSplineSet
Substitution2: "smcpBasdecasseverspetitescapitalesdansLatinlookup0 subtable" uni01A3.sc
EndChar

StartChar: uni01A4
Encoding: 420 420 401
GlifName: uni01A_4
Width: 1622
VWidth: 0
GlyphClass: 2
Flags: HW
LayerCount: 2
Fore
SplineSet
356 1040 m 257
 2 1040 l 257
 1 1052 0 1064 0 1076 c 256
 0 1326 184 1480 434 1480 c 256
 446 1480 458 1480 470 1479 c 257
 470 1153 l 257
 459 1158 447 1160 434 1160 c 256
 384 1160 349 1126 349 1076 c 256
 349 1063 350 1051 356 1040 c 257
814 1144 m 257
 814 824 l 257
 1001 824 l 257
 1121 824 1192 874 1192 984 c 256
 1192 1094 1121 1144 1001 1144 c 257
 814 1144 l 257
434 0 m 257
 434 1480 l 257
 1001 1480 l 257
 1387 1480 1572 1239 1572 984 c 256
 1572 729 1387 488 1001 488 c 257
 814 488 l 257
 814 0 l 257
 434 0 l 257
EndSplineSet
Substitution2: "c2sc_CapitalesverspetitescapitalesdansLatinlookup0 subtable" uni01A5.sc
EndChar

StartChar: uni01A5
Encoding: 421 421 402
GlifName: uni01A_5
Width: 1250
VWidth: 0
GlyphClass: 2
Flags: HW
LayerCount: 2
Fore
SplineSet
420 518 m 256
 420 388 493 290 630 290 c 256
 767 290 840 390 840 520 c 256
 840 650 767 750 630 750 c 256
 493 750 420 648 420 518 c 256
70 1106 m 258
 70 1356 265 1510 515 1510 c 256
 527 1510 539 1510 551 1509 c 257
 551 1183 l 257
 540 1188 528 1190 515 1190 c 256
 465 1190 430 1156 430 1106 c 258
 430 1106 430 960 430 920 c 257
 440 959 545 1070 695 1070 c 256
 1015 1070 1200 840 1200 520 c 256
 1200 200 1015 -30 695 -30 c 256
 545 -30 440 81 430 120 c 257
 430 -440 l 257
 70 -440 l 257
 70 520 l 257
 70 1106 l 258
EndSplineSet
Substitution2: "smcpBasdecasseverspetitescapitalesdansLatinlookup0 subtable" uni01A5.sc
EndChar

StartChar: uni01A6
Encoding: 422 422 403
GlifName: uni01A_6
Width: 1293
VWidth: 0
GlyphClass: 2
Flags: HW
LayerCount: 2
Fore
SplineSet
395 475 m 257
 812 492 l 257
 1288 -168 l 257
 848 -168 l 257
 395 475 l 257
450 976 m 257
 450 656 l 257
 637 656 l 257
 757 656 828 706 828 816 c 256
 828 926 757 976 637 976 c 257
 450 976 l 257
70 0 m 257
 70 1480 l 257
 450 1480 l 257
 450 1312 l 257
 637 1312 l 257
 1023 1312 1208 1071 1208 816 c 256
 1208 561 1023 320 637 320 c 257
 450 320 l 257
 450 0 l 257
 70 0 l 257
EndSplineSet
EndChar

StartChar: uni01A7
Encoding: 423 423 404
GlifName: uni01A_7
Width: 1327
VWidth: 0
GlyphClass: 2
Flags: HW
AnchorPoint: "bottom_center" 665 0 basechar 0
AnchorPoint: "top_center" 665 1380 basechar 0
LayerCount: 2
Fore
SplineSet
665 1174 m 256
 805 1174 869 1132 869 1052 c 256
 869 992 771 973 665 945 c 256
 298 847 50 725 50 445 c 256
 50 165 255 -30 665 -30 c 256
 970 -30 1234 91 1277 361 c 257
 904 461 l 257
 904 361 815 306 665 306 c 256
 515 306 430 355 430 445 c 256
 430 535 559 549 665 577 c 256
 1013 670 1249 792 1249 1052 c 256
 1249 1312 1035 1510 665 1510 c 256
 360 1510 121 1394 78 1124 c 257
 451 1024 l 257
 451 1124 525 1174 665 1174 c 256
EndSplineSet
Substitution2: "c2sc_CapitalesverspetitescapitalesdansLatinlookup0 subtable" uni01A8.sc
EndChar

StartChar: uni01A8
Encoding: 424 424 405
GlifName: uni01A_8
Width: 1066
VWidth: 0
GlyphClass: 2
Flags: HW
AnchorPoint: "top_center" 537 1040 basechar 0
AnchorPoint: "bottom_center" 537 0 basechar 0
AnchorPoint: "bottom_right" 316 0 basechar 0
LayerCount: 2
Fore
SplineSet
537 1070 m 256
 257 1070 117 931 71 775 c 257
 418 685 l 257
 418 705 437 750 537 750 c 256
 607 750 626 735 626 715 c 256
 626 695 596 675 537 663 c 256
 244 601 50 566 50 326 c 256
 50 86 261 -30 537 -30 c 256
 776 -30 968 85 1016 265 c 257
 664 356 l 257
 664 326 627 290 537 290 c 256
 447 290 410 296 410 326 c 256
 410 356 478 371 537 383 c 256
 817 442 986 515 986 715 c 256
 986 915 817 1070 537 1070 c 256
EndSplineSet
Substitution2: "smcpBasdecasseverspetitescapitalesdansLatinlookup0 subtable" uni01A8.sc
EndChar

StartChar: uni01AA
Encoding: 426 426 407
GlifName: uni01A_A_
Width: 1309
VWidth: 0
GlyphClass: 2
Flags: HW
LayerCount: 2
Fore
SplineSet
50 1129 m 256
 50 1349 249 1510 469 1510 c 256
 689 1510 888 1349 888 1129 c 256
 888 909 689 748 469 748 c 256
 249 748 50 909 50 1129 c 256
430 1129 m 256
 430 1103 443 1084 469 1084 c 256
 495 1084 508 1103 508 1129 c 256
 508 1155 495 1174 469 1174 c 256
 443 1174 430 1155 430 1129 c 256
888 430 m 257
 888 330 936 290 1026 290 c 256
 1086 290 1161 313 1193 345 c 257
 1284 22 l 257
 1228 -2 1143 -30 1022 -30 c 256
 662 -30 508 160 508 440 c 257
 508 869 l 257
 888 1129 l 257
 888 430 l 257
EndSplineSet
EndChar

StartChar: uni01AB
Encoding: 427 427 408
GlifName: uni01A_B_
Width: 1058
VWidth: 0
GlyphClass: 2
Flags: HW
LayerCount: 2
Fore
SplineSet
947 0 m 257
 947 -250 752 -404 502 -404 c 256
 490 -404 478 -404 466 -403 c 257
 466 -77 l 257
 477 -82 489 -84 502 -84 c 256
 552 -84 587 -50 587 0 c 257
 947 0 l 257
97 1028 m 257
 217 1028 301 1106 301 1226 c 257
 301 1320 l 257
 637 1320 l 257
 637 1040 l 257
 942 1040 l 257
 942 720 l 257
 637 720 l 257
 637 440 l 258
 637 340 685 290 775 290 c 256
 835 290 910 313 942 345 c 257
 1033 22 l 257
 977 -2 892 -30 771 -30 c 256
 411 -30 277 160 277 440 c 258
 277 720 l 257
 25 720 l 257
 25 1028 l 257
 97 1028 l 257
EndSplineSet
Substitution2: "smcpBasdecasseverspetitescapitalesdansLatinlookup0 subtable" uni01AB.sc
EndChar

StartChar: uni01AC
Encoding: 428 428 409
GlifName: uni01A_C_
Width: 1528
VWidth: 0
GlyphClass: 2
Flags: HW
LayerCount: 2
Fore
SplineSet
356 1024 m 257
 2 1024 l 257
 1 1036 0 1048 0 1060 c 256
 0 1310 184 1480 434 1480 c 257
 434 1144 l 257
 384 1144 349 1110 349 1060 c 256
 349 1047 350 1035 356 1024 c 257
977 0 m 257
 597 0 l 257
 597 1144 l 257
 434 1144 l 257
 434 1480 l 257
 1458 1480 l 257
 1458 1144 l 257
 977 1144 l 257
 977 0 l 257
EndSplineSet
Substitution2: "c2sc_CapitalesverspetitescapitalesdansLatinlookup0 subtable" uni01AD.sc
EndChar

StartChar: uni01AE
Encoding: 430 430 410
GlifName: uni01A_E_
Width: 1482
VWidth: 0
GlyphClass: 2
Flags: HW
LayerCount: 2
Fore
SplineSet
1052 -77 m 257
 1041 -82 1029 -84 1016 -84 c 256
 966 -84 931 -50 931 0 c 257
 551 0 l 257
 551 -250 766 -404 1016 -404 c 256
 1028 -404 1040 -404 1052 -403 c 257
 1052 -77 l 257
551 1144 m 257
 70 1144 l 257
 70 1480 l 257
 1412 1480 l 257
 1412 1144 l 257
 931 1144 l 257
 931 0 l 257
 551 0 l 257
 551 1144 l 257
EndSplineSet
Substitution2: "c2sc_CapitalesverspetitescapitalesdansLatinlookup0 subtable" uni0288.sc
EndChar

StartChar: uni01AD
Encoding: 429 429 411
GlifName: uni01A_D_
Width: 1103
VWidth: 0
GlyphClass: 2
Flags: HW
LayerCount: 2
Fore
SplineSet
301 1320 m 258
 301 1570 472 1724 722 1724 c 256
 734 1724 746 1724 758 1723 c 257
 758 1397 l 257
 747 1402 735 1404 722 1404 c 256
 672 1404 637 1370 637 1320 c 258
 637 1040 l 257
 942 1040 l 257
 942 720 l 257
 637 720 l 257
 637 440 l 258
 637 340 685 290 775 290 c 256
 835 290 910 313 942 345 c 257
 1033 22 l 257
 977 -2 892 -30 771 -30 c 256
 411 -30 277 160 277 440 c 258
 277 720 l 257
 25 720 l 257
 25 1028 l 257
 97 1028 l 257
 217 1028 301 1106 301 1226 c 257
 301 1320 l 258
EndSplineSet
Substitution2: "smcpBasdecasseverspetitescapitalesdansLatinlookup0 subtable" uni01AD.sc
EndChar

StartChar: uni01B1
Encoding: 433 433 414
GlifName: uni01B_1
Width: 1620
VWidth: 0
GlyphClass: 2
Flags: HW
LayerCount: 2
Fore
SplineSet
1570 1480 m 257
 1570 1144 l 257
 969 1144 l 257
 969 1480 l 257
 1570 1480 l 257
50 1480 m 257
 651 1480 l 257
 651 1144 l 257
 50 1144 l 257
 50 1480 l 257
1570 740 m 256
 1570 290 1270 -30 810 -30 c 257
 810 306 l 257
 1060 306 1190 490 1190 740 c 256
 1190 930 1115 1082 969 1144 c 257
 1433 1144 l 257
 1516 1029 1570 892 1570 740 c 256
50 740 m 256
 50 892 104 1029 187 1144 c 257
 651 1144 l 257
 505 1082 430 930 430 740 c 256
 430 490 560 306 810 306 c 257
 810 -30 l 257
 350 -30 50 290 50 740 c 256
EndSplineSet
Substitution2: "c2sc_CapitalesverspetitescapitalesdansLatinlookup0 subtable" uni028A.sc
EndChar

StartChar: uni01B2
Encoding: 434 434 415
GlifName: uni01B_2
Width: 1482
VWidth: 0
GlyphClass: 2
Flags: HW
LayerCount: 2
Fore
SplineSet
1032 1050 m 257
 1032 600 l 257
 1032 390 891 306 741 306 c 256
 591 306 450 390 450 600 c 257
 450 1480 l 257
 70 1480 l 257
 70 600 l 257
 70 240 309 -30 741 -30 c 256
 1173 -30 1412 240 1412 600 c 257
 1412 1050 l 257
 1412 1330 1258 1510 898 1510 c 256
 875 1510 863 1509 842 1507 c 257
 842 1183 l 257
 863 1188 874 1190 894 1190 c 256
 984 1190 1032 1150 1032 1050 c 257
EndSplineSet
Substitution2: "c2sc_CapitalesverspetitescapitalesdansLatinlookup0 subtable" uni028B.sc
EndChar

StartChar: uni01B3
Encoding: 435 435 416
GlifName: uni01B_3
Width: 1588
VWidth: 0
GlyphClass: 2
Flags: HW
LayerCount: 2
Fore
SplineSet
1425 1133 m 257
 1418 1143 1408 1152 1397 1158 c 256
 1382 1167 1367 1170 1352 1170 c 256
 1324 1170 1300 1152 1282 1127 c 257
 1003 1317 l 257
 1083 1434 1165 1510 1291 1510 c 256
 1379 1510 1472 1484 1557 1435 c 256
 1567 1429 1578 1423 1588 1416 c 257
 1425 1133 l 257
596 0 m 257
 596 834 l 257
 976 834 l 257
 976 0 l 257
 596 0 l 257
789 454 m 257
 680 578 l 257
 35 1480 l 257
 463 1480 l 257
 786 988 l 257
 1003 1317 l 257
 1282 1127 l 257
 789 454 l 257
EndSplineSet
Substitution2: "c2sc_CapitalesverspetitescapitalesdansLatinlookup0 subtable" uni01B4.sc
EndChar

StartChar: uni01B4
Encoding: 436 436 417
GlifName: uni01B_4
Width: 1297
VWidth: 0
GlyphClass: 2
Flags: HW
LayerCount: 2
Fore
SplineSet
1208 754 m 257
 1199 762 1187 767 1175 771 c 256
 1166 774 1157 775 1148 775 c 256
 1112 775 1084 751 1070 713 c 257
 747 806 l 257
 794 997 943 1100 1119 1100 c 256
 1165 1100 1213 1092 1263 1078 c 256
 1275 1075 1286 1071 1297 1067 c 257
 1208 754 l 257
772 -158 m 257
 690 -384 581 -470 302 -470 c 256
 181 -470 91 -439 35 -415 c 257
 131 -95 l 257
 163 -127 242 -150 302 -150 c 256
 362 -150 416 -107 431 -44 c 257
 443 0 l 257
 77 1040 l 257
 461 1040 l 257
 637 404 l 257
 747 806 l 257
 1070 713 l 257
 826 0 l 257
 772 -158 l 257
EndSplineSet
Substitution2: "smcpBasdecasseverspetitescapitalesdansLatinlookup0 subtable" uni01B4.sc
EndChar

StartChar: uni01B5
Encoding: 437 437 418
GlifName: uni01B_5
Width: 1304
VWidth: 0
GlyphClass: 2
Flags: HW
LayerCount: 2
Fore
SplineSet
1089 620 m 257
 215 620 l 257
 215 666 215 814 215 860 c 257
 1089 860 l 257
 1089 620 l 257
218 0 m 257
 35 302 l 257
 1086 1480 l 257
 1269 1176 l 257
 218 0 l 257
458 336 m 257
 1269 336 l 257
 1269 0 l 257
 825 0 479 0 35 0 c 257
 35 302 l 257
 458 336 l 257
856 1144 m 257
 59 1144 l 257
 59 1480 l 257
 503 1480 825 1480 1269 1480 c 257
 1269 1176 l 257
 856 1144 l 257
EndSplineSet
Substitution2: "c2sc_CapitalesverspetitescapitalesdansLatinlookup0 subtable" uni01B6.sc
EndChar

StartChar: uni01B6
Encoding: 438 438 419
GlifName: uni01B_6
Width: 1032
VWidth: 0
GlyphClass: 2
Flags: HW
LayerCount: 2
Fore
SplineSet
70 1040 m 257
 70 720 l 257
 548 720 l 257
 962 752 l 257
 962 1040 l 257
 70 1040 l 257
958 320 m 257
 484 320 l 257
 70 288 l 257
 70 0 l 257
 958 0 l 257
 958 320 l 257
544 320 m 257
 962 752 l 257
 488 720 l 257
 70 288 l 257
 544 320 l 257
100 400 m 257
 942 400 l 257
 942 640 l 257
 100 640 l 257
 100 594 100 446 100 400 c 257
EndSplineSet
Substitution2: "smcpBasdecasseverspetitescapitalesdansLatinlookup0 subtable" uni01B6.sc
EndChar

StartChar: uni01B7
Encoding: 439 439 420
GlifName: uni01B_7
Width: 1286
VWidth: 0
GlyphClass: 2
Flags: HW
LayerCount: 2
Fore
SplineSet
711 634 m 257
 528 912 l 257
 1033 1480 l 257
 1176 1176 l 257
 711 634 l 257
1236 453 m 256
 1236 120 1002 -30 642 -30 c 256
 357 -30 93 91 50 361 c 257
 423 461 l 257
 423 361 492 306 642 306 c 256
 792 306 856 361 856 461 c 256
 856 561 792 616 642 616 c 256
 622 616 528 616 528 616 c 257
 528 912 l 257
 528 912 622 936 642 936 c 256
 981 936 1236 720 1236 453 c 256
122 1480 m 257
 1176 1480 l 257
 1176 1176 l 257
 763 1144 l 257
 122 1144 l 257
 122 1480 l 257
EndSplineSet
Substitution2: "c2sc_CapitalesverspetitescapitalesdansLatinlookup0 subtable" uni0292.sc
EndChar

StartChar: uni01B8
Encoding: 440 440 421
GlifName: uni01B_8
Width: 1286
VWidth: 0
GlyphClass: 2
Flags: HW
LayerCount: 2
Fore
SplineSet
575 634 m 257
 758 912 l 257
 253 1480 l 257
 110 1176 l 257
 575 634 l 257
50 453 m 256
 50 120 284 -30 644 -30 c 256
 929 -30 1193 91 1236 361 c 257
 863 461 l 257
 863 361 794 306 644 306 c 256
 494 306 430 361 430 461 c 256
 430 561 494 616 644 616 c 256
 664 616 758 616 758 616 c 257
 758 912 l 257
 758 912 664 936 644 936 c 256
 305 936 50 720 50 453 c 256
1164 1480 m 257
 110 1480 l 257
 110 1176 l 257
 523 1144 l 257
 1164 1144 l 257
 1164 1480 l 257
EndSplineSet
Substitution2: "c2sc_CapitalesverspetitescapitalesdansLatinlookup0 subtable" uni01B9.sc
EndChar

StartChar: uni01B9
Encoding: 441 441 422
GlifName: uni01B_9
Width: 1286
VWidth: 0
GlyphClass: 2
Flags: HW
LayerCount: 2
Fore
SplineSet
575 194 m 257
 758 472 l 257
 253 1040 l 257
 110 736 l 257
 575 194 l 257
50 13 m 256
 50 -320 284 -470 644 -470 c 256
 929 -470 1193 -349 1236 -79 c 257
 863 21 l 257
 863 -79 794 -134 644 -134 c 256
 494 -134 430 -79 430 21 c 256
 430 121 494 176 644 176 c 256
 664 176 758 176 758 176 c 257
 758 472 l 257
 758 472 664 496 644 496 c 256
 305 496 50 280 50 13 c 256
1164 1040 m 257
 110 1040 l 257
 110 736 l 257
 523 704 l 257
 1164 704 l 257
 1164 1040 l 257
EndSplineSet
Substitution2: "smcpBasdecasseverspetitescapitalesdansLatinlookup0 subtable" uni01B9.sc
EndChar

StartChar: uni01BA
Encoding: 442 442 423
GlifName: uni01B_A_
Width: 1318
VWidth: 0
GlyphClass: 2
Flags: HW
LayerCount: 2
Fore
SplineSet
654 -120 m 256
 468 -120 430 -122 430 -140 c 256
 430 -158 468 -160 654 -160 c 256
 793 -160 1063 -144 1190 -89 c 257
 1268 -403 l 257
 1146 -454 870 -470 654 -470 c 256
 208 -470 50 -330 50 -150 c 256
 50 30 138 226 654 226 c 256
 840 226 908 228 908 246 c 256
 908 264 840 266 654 266 c 258
 540 266 l 257
 540 562 l 257
 654 586 l 257
 1110 586 1268 436 1268 256 c 256
 1268 76 1170 -120 654 -120 c 256
723 284 m 257
 540 562 l 257
 1065 1040 l 257
 1208 752 l 257
 723 284 l 257
154 1040 m 257
 1208 1040 l 257
 1208 752 l 257
 795 720 l 257
 154 720 l 257
 154 1040 l 257
EndSplineSet
EndChar

StartChar: uni01BB
Encoding: 443 443 424
GlifName: uni01B_B_
Width: 1370
VWidth: 0
GlyphClass: 2
Flags: HW
LayerCount: 2
Fore
SplineSet
1214 530 m 257
 64 530 l 257
 64 786 l 257
 1214 786 l 257
 1214 530 l 257
468 906 m 257
 81 990 l 257
 81 1310 307 1510 643 1510 c 256
 979 1510 1205 1310 1205 1030 c 257
 825 1030 l 257
 825 1120 738 1174 643 1174 c 256
 528 1174 461 1090 461 990 c 256
 461 932 468 906 468 906 c 257
64 0 m 257
 64 160 84 465 643 788 c 256
 823 892 825 950 825 1030 c 257
 1205 1030 l 257
 1205 739 1020 628 743 468 c 256
 483 318 444 90 444 0 c 257
 377 0 131 0 64 0 c 257
344 336 m 257
 1214 336 l 257
 1214 0 l 257
 444 0 l 257
 344 336 l 257
EndSplineSet
EndChar

StartChar: uni01BC
Encoding: 444 444 425
GlifName: uni01B_C_
Width: 1425
VWidth: 0
GlyphClass: 2
Flags: HW
LayerCount: 2
Fore
SplineSet
568 615 m 257
 374 678 l 257
 456 829 555 1012 778 1012 c 256
 1127 1012 1355 802 1355 491 c 256
 1355 180 1127 -30 777 -30 c 256
 482 -30 228 91 185 361 c 257
 558 461 l 257
 558 361 627 306 777 306 c 256
 898 306 975 371 975 491 c 256
 975 611 878 676 758 676 c 256
 704 676 611 668 568 615 c 257
341 1412 m 257
 695 1412 l 257
 587 678 l 257
 374 678 l 257
 243 720 l 257
 341 1412 l 257
35 1144 m 257
 35 1480 l 257
 1283 1480 l 257
 1283 1144 l 257
 35 1144 l 257
EndSplineSet
Substitution2: "c2sc_CapitalesverspetitescapitalesdansLatinlookup0 subtable" uni01BD.sc
EndChar

StartChar: uni01BD
Encoding: 445 445 426
GlifName: uni01B_D_
Width: 1143
VWidth: 0
GlyphClass: 2
Flags: HW
LayerCount: 2
Fore
SplineSet
580 290 m 256
 665 290 713 302 713 343 c 256
 713 384 664 404 580 404 c 256
 542 404 482 391 452 374 c 257
 264 428 l 257
 292 557 442 684 619 684 c 256
 896 684 1073 571 1073 343 c 256
 1073 115 903 -30 580 -30 c 256
 350 -30 144 65 110 299 c 257
 452 353 l 257
 452 311 475 290 580 290 c 256
217 918 m 257
 532 918 l 257
 452 374 l 257
 264 428 l 257
 134 466 l 257
 217 918 l 257
35 720 m 257
 35 1040 l 257
 1013 1040 l 257
 1013 720 l 257
 35 720 l 257
EndSplineSet
Substitution2: "smcpBasdecasseverspetitescapitalesdansLatinlookup0 subtable" uni01BD.sc
EndChar

StartChar: uni01BE
Encoding: 446 446 427
GlifName: uni01B_E_
Width: 1263
VWidth: 0
GlyphClass: 2
Flags: HW
LayerCount: 2
Fore
SplineSet
637 720 m 257
 637 715 l 258
 637 695 667 675 726 663 c 256
 1019 601 1213 566 1213 326 c 256
 1213 86 1002 -30 726 -30 c 256
 487 -30 295 85 247 265 c 257
 599 356 l 257
 599 326 636 290 726 290 c 256
 816 290 853 296 853 326 c 256
 853 356 785 371 726 383 c 256
 446 440 277 515 277 715 c 258
 277 720 l 257
 25 720 l 257
 25 1028 l 257
 97 1028 l 257
 217 1028 301 1106 301 1226 c 257
 301 1320 l 257
 637 1320 l 257
 637 1040 l 257
 942 1040 l 257
 942 720 l 257
 637 720 l 257
EndSplineSet
EndChar

StartChar: uni01BF
Encoding: 447 447 428
GlifName: uni01B_F_
Width: 1252
VWidth: 0
GlyphClass: 2
Flags: HW
LayerCount: 2
Fore
SplineSet
842 532 m 256
 842 642 766 750 636 750 c 256
 506 750 430 642 430 532 c 258
 430 -440 l 257
 70 -440 l 257
 70 1040 l 257
 418 1040 l 257
 418 920 l 257
 453 981 582 1070 732 1070 c 256
 996 1070 1202 852 1202 532 c 256
 1202 139 900 -240 160 -240 c 257
 160 80 l 257
 570 80 842 212 842 532 c 256
EndSplineSet
Substitution2: "smcpBasdecasseverspetitescapitalesdansLatinlookup0 subtable" uni01BF.sc
EndChar

StartChar: uni01C0
Encoding: 448 448 429
GlifName: uni01C_0
Width: 500
VWidth: 0
GlyphClass: 2
Flags: HW
LayerCount: 2
Fore
SplineSet
430 1480 m 257
 430 0 l 257
 70 0 l 257
 70 1480 l 257
 430 1480 l 257
EndSplineSet
EndChar

StartChar: uni01C1
Encoding: 449 449 430
GlifName: uni01C_1
Width: 1040
VWidth: 0
GlyphClass: 2
Flags: HW
LayerCount: 2
Fore
SplineSet
970 1480 m 257
 970 0 l 257
 610 0 l 257
 610 1480 l 257
 970 1480 l 257
430 1480 m 257
 430 0 l 257
 70 0 l 257
 70 1480 l 257
 430 1480 l 257
EndSplineSet
EndChar

StartChar: uni01C2
Encoding: 450 450 431
GlifName: uni01C_2
Width: 1068
VWidth: 0
GlyphClass: 2
Flags: HW
LayerCount: 2
Fore
SplineSet
70 800 m 257
 70 1120 l 257
 998 1120 l 257
 998 800 l 257
 70 800 l 257
70 360 m 257
 70 680 l 257
 998 680 l 257
 998 360 l 257
 70 360 l 257
714 1480 m 257
 714 0 l 257
 354 0 l 257
 354 1480 l 257
 714 1480 l 257
EndSplineSet
EndChar

StartChar: uni01C3
Encoding: 451 451 432
GlifName: uni01C_3
Width: 552
VWidth: 0
GlyphClass: 2
Flags: HW
LayerCount: 2
Fore
SplineSet
76 160 m 256
 76 271 165 360 276 360 c 256
 387 360 476 271 476 160 c 256
 476 49 387 -40 276 -40 c 256
 165 -40 76 49 76 160 c 256
70 1480 m 257
 482 1480 l 257
 436 452 l 257
 116 452 l 257
 70 1480 l 257
EndSplineSet
EndChar

StartChar: uni01DD
Encoding: 477 477 450
GlifName: uni01D_D_
Width: 1200
VWidth: 0
GlyphClass: 2
Flags: HW
LayerCount: 2
Fore
SplineSet
1024 380 m 257
 118 380 l 257
 420 640 l 257
 1024 640 l 257
 1024 380 l 257
411 672 m 257
 104 798 l 257
 196 975 378 1070 600 1070 c 256
 921 1070 1150 840 1150 520 c 256
 1150 200 920 -30 600 -30 c 256
 280 -30 50 200 50 520 c 256
 50 561 55 602 62 640 c 257
 420 640 l 257
 406 605 380 564 380 520 c 256
 380 383 463 290 600 290 c 256
 737 290 830 383 830 520 c 256
 830 650 738 750 600 750 c 256
 486 750 429 711 411 672 c 257
EndSplineSet
Substitution2: "smcpBasdecasseverspetitescapitalesdansLatinlookup0 subtable" uni01DD.sc
EndChar

StartChar: uni01E4
Encoding: 484 484 456
GlifName: uni01E_4
Width: 1706
VWidth: 0
GlyphClass: 2
Flags: HW
LayerCount: 2
Fore
SplineSet
1706 220 m 257
 846 220 l 257
 846 266 846 414 846 460 c 257
 1706 460 l 257
 1706 220 l 257
1156 930 m 257
 1105 1078 991 1174 810 1174 c 256
 560 1174 430 990 430 740 c 256
 430 490 560 306 810 306 c 256
 991 306 1105 402 1156 550 c 257
 1321 360 l 257
 1201 120 1125 -30 810 -30 c 256
 350 -30 50 290 50 740 c 256
 50 1190 350 1510 810 1510 c 256
 1125 1510 1365 1360 1485 1120 c 257
 1156 930 l 257
748 824 m 257
 1493 824 l 257
 1493 0 l 257
 1133 0 l 257
 1133 227 l 257
 1113 253 l 257
 1113 488 l 257
 748 488 l 257
 748 824 l 257
EndSplineSet
Substitution2: "ss03StyleSet3lookups55 subtable" uni01E4.cv21
Substitution2: "cv21CharacterVariants21lookups62 subtable" uni01E4.cv21
Substitution2: "c2sc_CapitalesverspetitescapitalesdansLatinlookup0 subtable" uni01E5.sc
EndChar

StartChar: uni01E5
Encoding: 485 485 457
GlifName: uni01E_5
Width: 1506
VWidth: 0
GlyphClass: 2
Flags: HW
LayerCount: 2
Fore
SplineSet
743 980 m 257
 778 1041 867 1120 1017 1120 c 256
 1088 1120 1151 1108 1207 1084 c 257
 1100 741 l 257
 1062 780 1004 800 921 800 c 256
 791 800 755 742 755 632 c 257
 743 980 l 257
589 520 m 257
 589 280 l 257
 494 280 439 275 439 260 c 256
 439 245 459 240 589 240 c 257
 589 -80 l 257
 341 -80 134 30 134 240 c 256
 134 440 421 520 589 520 c 257
1207 -100 m 256
 1207 -320 1022 -470 589 -470 c 256
 156 -470 25 -315 25 -114 c 256
 25 107 307 160 589 160 c 257
 589 -20 l 257
 439 -20 385 -58 385 -95 c 256
 385 -132 444 -150 589 -150 c 256
 734 -150 847 -150 847 -110 c 256
 847 -80 735 -80 589 -80 c 257
 589 240 l 257
 1014 240 1207 100 1207 -100 c 256
493 675 m 256
 493 627 529 600 589 600 c 256
 649 600 685 627 685 675 c 256
 685 723 649 750 589 750 c 256
 529 750 493 723 493 675 c 256
133 675 m 256
 133 894 326 1070 589 1070 c 256
 852 1070 1045 894 1045 675 c 256
 1045 456 852 280 589 280 c 256
 326 280 133 456 133 675 c 256
1506 -240 m 257
 646 -240 l 257
 646 -194 646 -46 646 0 c 257
 1506 0 l 257
 1506 -240 l 257
EndSplineSet
Substitution2: "ss04StyleSet4lookups56 subtable" uni01E5.cv24
Substitution2: "cv24CharacterVariants24lookups65 subtable" uni01E5.cv24
Substitution2: "smcpBasdecasseverspetitescapitalesdansLatinlookup0 subtable" uni01E5.sc
EndChar

StartChar: uni0292
Encoding: 658 658 471
GlifName: uni0292
Width: 1286
VWidth: 0
GlyphClass: 2
Flags: HW
LayerCount: 2
Fore
SplineSet
711 194 m 257
 528 472 l 257
 1033 1040 l 257
 1176 736 l 257
 711 194 l 257
1236 13 m 256
 1236 -320 1002 -470 642 -470 c 256
 357 -470 93 -349 50 -79 c 257
 423 21 l 257
 423 -79 492 -134 642 -134 c 256
 792 -134 856 -79 856 21 c 256
 856 121 792 176 642 176 c 256
 622 176 528 176 528 176 c 257
 528 472 l 257
 528 472 622 496 642 496 c 256
 981 496 1236 280 1236 13 c 256
122 1040 m 257
 1176 1040 l 257
 1176 736 l 257
 763 704 l 257
 122 704 l 257
 122 1040 l 257
EndSplineSet
Substitution2: "smcpBasdecasseverspetitescapitalesdansLatinlookup0 subtable" uni0292.sc
EndChar

StartChar: uni01F7
Encoding: 503 503 496
GlifName: uni01F_7
Width: 1384
VWidth: 0
GlyphClass: 2
Flags: HW
LayerCount: 2
Fore
SplineSet
954 880 m 256
 954 1090 841 1174 691 1174 c 256
 541 1174 430 1084 430 874 c 258
 430 -440 l 257
 70 -440 l 257
 70 1480 l 257
 417 1480 l 257
 417 1360 l 257
 483 1468 596 1510 736 1510 c 256
 1106 1510 1334 1290 1334 880 c 256
 1334 460 1010 2 160 2 c 257
 160 338 l 257
 720 338 954 590 954 880 c 256
EndSplineSet
Substitution2: "c2sc_CapitalesverspetitescapitalesdansLatinlookup0 subtable" uni01BF.sc
EndChar

StartChar: uni01F6
Encoding: 502 502 497
GlifName: uni01F_6
Width: 2194
VWidth: 0
GlyphClass: 2
Flags: HW
LayerCount: 2
Fore
SplineSet
2124 1040 m 257
 2124 467 l 257
 2124 147 1898 -31 1578 -31 c 256
 1258 -31 1032 147 1032 467 c 257
 1032 522 l 257
 1412 522 l 257
 1412 467 l 258
 1412 357 1448 305 1578 305 c 256
 1708 305 1744 357 1744 467 c 258
 1744 1040 l 257
 2124 1040 l 257
70 1480 m 257
 450 1480 l 257
 450 908 l 257
 1032 908 l 257
 1032 1480 l 257
 1412 1480 l 257
 1412 522 l 257
 1032 522 l 257
 1032 572 l 257
 450 572 l 257
 450 0 l 257
 70 0 l 257
 70 1480 l 257
EndSplineSet
Substitution2: "c2sc_CapitalesverspetitescapitalesdansLatinlookup0 subtable" uni0195.sc
EndChar

StartChar: uni030F
Encoding: 783 783 498
GlifName: uni030F_
Width: 0
VWidth: 0
GlyphClass: 4
Flags: HW
AnchorPoint: "top_center" 642 1040 mark 0
LayerCount: 2
Fore
SplineSet
223 1224 m 257
 579 1224 l 257
 401 1480 l 257
 -3 1480 l 257
 223 1224 l 257
805 1224 m 257
 1161 1224 l 257
 983 1480 l 257
 579 1480 l 257
 805 1224 l 257
EndSplineSet
EndChar

StartChar: uni0311
Encoding: 785 785 511
GlifName: uni0311
Width: 0
VWidth: 0
GlyphClass: 4
Flags: HW
AnchorPoint: "top_center" 642 1040 mark 0
LayerCount: 2
Fore
SplineSet
642 1510 m 256
 432 1510 306 1364 306 1224 c 257
 564 1224 l 257
 564 1254 592 1300 642 1300 c 256
 692 1300 718 1254 718 1224 c 257
 978 1224 l 257
 978 1364 852 1510 642 1510 c 256
EndSplineSet
EndChar

StartChar: uni0326
Encoding: 806 806 528
GlifName: uni0326
Width: 0
VWidth: 0
GlyphClass: 4
Flags: HW
AnchorPoint: "bottom_center" 642 0 mark 0
LayerCount: 2
Fore
SplineSet
522 -232 m 256
 522 -165 575 -112 642 -112 c 256
 709 -112 762 -165 762 -232 c 256
 762 -299 709 -352 642 -352 c 256
 575 -352 522 -299 522 -232 c 256
531 -429 m 257
 608 -417 667 -368 667 -315 c 256
 667 -289 643 -232 643 -232 c 257
 642 -112 l 257
 710 -112 801 -155 801 -315 c 256
 801 -442 662 -540 567 -557 c 257
 531 -429 l 257
EndSplineSet
EndChar

StartChar: uni021C
Encoding: 540 540 529
GlifName: uni021C_
Width: 1318
VWidth: 0
GlyphClass: 2
Flags: HW
LayerCount: 2
Fore
SplineSet
774 434 m 257
 842 404 888 340 888 268 c 256
 888 18 654 -134 224 -134 c 257
 224 -470 l 257
 884 -470 1268 -172 1268 268 c 256
 1268 430 1185 579 1050 676 c 257
 774 434 l 257
632 1174 m 256
 747 1174 834 1090 834 990 c 256
 834 740 654 588 224 588 c 257
 224 252 l 257
 884 252 1214 550 1214 990 c 256
 1214 1270 968 1510 632 1510 c 256
 296 1510 50 1310 50 990 c 257
 437 906 l 257
 437 906 430 932 430 990 c 256
 430 1090 517 1174 632 1174 c 256
EndSplineSet
Substitution2: "c2sc_CapitalesverspetitescapitalesdansLatinlookup0 subtable" uni021D.sc
EndChar

StartChar: uni021D
Encoding: 541 541 530
GlifName: uni021D_
Width: 1114
VWidth: 0
GlyphClass: 2
Flags: HW
LayerCount: 2
Fore
SplineSet
611 308 m 257
 667 289 704 249 704 203 c 256
 704 45 535 -52 223 -52 c 257
 223 -372 l 257
 755 -372 1064 -145 1064 192 c 256
 1064 316 986 430 858 504 c 257
 611 308 l 257
531 782 m 256
 612 782 653 735 653 679 c 256
 653 539 526 455 223 455 c 257
 223 135 l 257
 750 135 1013 363 1013 702 c 256
 1013 918 795 1103 531 1103 c 256
 267 1103 50 947 50 698 c 257
 413 632 l 257
 413 632 408 647 408 679 c 256
 408 735 450 782 531 782 c 256
EndSplineSet
Substitution2: "smcpBasdecasseverspetitescapitalesdansLatinlookup0 subtable" uni021D.sc
EndChar

StartChar: uni0220
Encoding: 544 544 531
GlifName: uni0220
Width: 1404
VWidth: 0
GlyphClass: 2
Flags: HW
LayerCount: 2
Fore
SplineSet
1334 880 m 257
 1334 1290 1106 1510 736 1510 c 256
 596 1510 483 1468 417 1360 c 257
 417 1480 l 257
 70 1480 l 257
 70 0 l 257
 430 0 l 257
 430 874 l 258
 430 1084 541 1174 691 1174 c 256
 841 1174 947 1090 954 880 c 257
 954 -440 l 257
 1334 -440 l 257
 1334 880 l 257
EndSplineSet
Substitution2: "c2sc_CapitalesverspetitescapitalesdansLatinlookup0 subtable" uni019E.sc
EndChar

StartChar: uni0221
Encoding: 545 545 532
GlifName: uni0221
Width: 1630
VWidth: 0
GlyphClass: 2
Flags: HW
LayerCount: 2
Fore
SplineSet
820 510 m 256
 820 640 757 750 620 750 c 256
 483 750 410 650 410 520 c 256
 410 390 483 290 620 290 c 256
 751 290 820 380 820 510 c 256
832 120 m 257
 832 80 705 -30 555 -30 c 256
 235 -30 50 200 50 520 c 256
 50 840 235 1070 555 1070 c 256
 705 1070 810 959 820 920 c 257
 820 1480 l 257
 1180 1480 l 257
 1180 309 l 257
 1180 257 1216 210 1270 210 c 256
 1324 210 1360 255 1360 309 c 256
 1360 363 1324 408 1270 408 c 256
 940 407 814 -207 814 -207 c 257
 574 -69 l 257
 574 -69 745 648 1270 648 c 256
 1465 648 1630 522 1630 309 c 256
 1630 96 1465 -30 1270 -30 c 256
 1075 -30 910 96 910 309 c 257
 832 120 l 257
EndSplineSet
Substitution2: "smcpBasdecasseverspetitescapitalesdansLatinlookup0 subtable" uni0221.sc
EndChar

StartChar: uni0223
Encoding: 547 547 533
GlifName: uni0223
Width: 1324
VWidth: 0
GlyphClass: 2
Flags: HW
LayerCount: 2
Fore
SplineSet
753 1181 m 257
 834 1510 l 257
 1069 1462 1223 1294 1223 1073 c 256
 1223 844 1057 781 1057 781 c 257
 1057 781 1274 694 1274 453 c 256
 1274 120 1022 -30 662 -30 c 256
 302 -30 50 120 50 453 c 256
 50 694 267 781 267 781 c 257
 267 781 101 844 101 1073 c 256
 101 1294 255 1462 490 1510 c 257
 571 1181 l 257
 509 1164 481 1112 481 1055 c 256
 481 975 537 936 662 936 c 256
 787 936 843 975 843 1055 c 256
 843 1112 815 1164 753 1181 c 257
662 616 m 256
 512 616 430 561 430 461 c 256
 430 361 512 306 662 306 c 256
 812 306 894 361 894 461 c 256
 894 561 812 616 662 616 c 256
EndSplineSet
Substitution2: "smcpBasdecasseverspetitescapitalesdansLatinlookup0 subtable" uni0223.sc
EndChar

StartChar: uni0222
Encoding: 546 546 534
GlifName: uni0222
Width: 1434
VWidth: 0
GlyphClass: 2
Flags: HW
LayerCount: 2
Fore
SplineSet
101 1003 m 256
 101 854 267 781 267 781 c 257
 267 781 50 694 50 453 c 256
 50 120 336 -30 716 -30 c 256
 1096 -30 1384 120 1384 453 c 256
 1384 695 1110 781 1110 781 c 257
 1110 781 1330 834 1330 1063 c 256
 1330 1330 1077 1509 770 1509 c 257
 770 1173 l 257
 881 1164 950 1124 950 1055 c 256
 950 975 858 936 716 936 c 256
 574 936 481 945 481 975 c 256
 481 1005 582 1012 662 1012 c 257
 662 1349 l 257
 355 1349 101 1271 101 1003 c 256
716 616 m 256
 886 616 1004 561 1004 461 c 256
 1004 361 886 306 716 306 c 256
 546 306 430 361 430 461 c 256
 430 561 546 616 716 616 c 256
EndSplineSet
Substitution2: "c2sc_CapitalesverspetitescapitalesdansLatinlookup0 subtable" uni0223.sc
EndChar

StartChar: uni0224
Encoding: 548 548 535
GlifName: uni0224
Width: 1374
VWidth: 0
GlyphClass: 2
Flags: HW
LayerCount: 2
Fore
SplineSet
803 -77 m 257
 814 -82 826 -84 839 -84 c 256
 889 -84 924 -50 924 0 c 257
 1304 0 l 257
 1304 -250 1089 -404 839 -404 c 256
 827 -404 815 -404 803 -403 c 257
 803 -77 l 257
253 0 m 257
 70 302 l 257
 1121 1480 l 257
 1304 1176 l 257
 253 0 l 257
493 336 m 257
 1304 336 l 257
 1304 0 l 257
 860 0 514 0 70 0 c 257
 70 302 l 257
 493 336 l 257
891 1144 m 257
 94 1144 l 257
 94 1480 l 257
 538 1480 860 1480 1304 1480 c 257
 1304 1176 l 257
 891 1144 l 257
EndSplineSet
Substitution2: "c2sc_CapitalesverspetitescapitalesdansLatinlookup0 subtable" uni0225.sc
EndChar

StartChar: uni0225
Encoding: 549 549 536
GlifName: uni0225
Width: 1032
VWidth: 0
GlyphClass: 2
Flags: HW
LayerCount: 2
Fore
SplineSet
477 -77 m 257
 488 -82 500 -84 513 -84 c 256
 563 -84 598 -50 598 0 c 257
 958 0 l 257
 958 -250 763 -404 513 -404 c 256
 501 -404 489 -404 477 -403 c 257
 477 -77 l 257
70 1040 m 257
 70 720 l 257
 548 720 l 257
 962 752 l 257
 962 1040 l 257
 70 1040 l 257
958 320 m 257
 484 320 l 257
 70 288 l 257
 70 0 l 257
 958 0 l 257
 958 320 l 257
544 320 m 257
 962 752 l 257
 488 720 l 257
 70 288 l 257
 544 320 l 257
EndSplineSet
Substitution2: "smcpBasdecasseverspetitescapitalesdansLatinlookup0 subtable" uni0225.sc
EndChar

StartChar: uni0234
Encoding: 564 564 537
GlifName: uni0234
Width: 1056
VWidth: 0
GlyphClass: 2
Flags: HW
LayerCount: 2
Fore
SplineSet
606 309 m 258
 606 257 642 210 696 210 c 256
 750 210 786 255 786 309 c 256
 786 363 750 408 696 408 c 256
 366 407 240 -207 240 -207 c 257
 0 -69 l 257
 0 -69 171 648 696 648 c 256
 891 648 1056 522 1056 309 c 256
 1056 96 891 -30 696 -30 c 256
 501 -30 336 96 336 309 c 257
 246 309 l 257
 246 1480 l 257
 606 1480 l 257
 606 948 l 257
 606 309 l 258
EndSplineSet
Substitution2: "smcpBasdecasseverspetitescapitalesdansLatinlookup0 subtable" uni0234.sc
EndChar

StartChar: uni0235
Encoding: 565 565 538
GlifName: uni0235
Width: 1572
VWidth: 0
GlyphClass: 2
Flags: HW
LayerCount: 2
Fore
SplineSet
1122 309 m 257
 1122 257 1158 210 1212 210 c 256
 1266 210 1302 255 1302 309 c 256
 1302 363 1266 408 1212 408 c 256
 882 407 756 -207 756 -207 c 257
 516 -69 l 257
 516 -69 687 648 1212 648 c 256
 1407 648 1572 522 1572 309 c 256
 1572 96 1407 -30 1212 -30 c 256
 1017 -30 852 96 852 309 c 257
 762 309 l 257
 762 572 l 258
 762 682 726 750 596 750 c 256
 466 750 430 682 430 572 c 258
 430 0 l 257
 70 0 l 257
 70 1040 l 257
 418 1040 l 257
 418 920 l 257
 453 981 542 1070 692 1070 c 256
 956 1070 1122 892 1122 572 c 257
 1122 309 l 257
EndSplineSet
Substitution2: "smcpBasdecasseverspetitescapitalesdansLatinlookup0 subtable" uni0235.sc
EndChar

StartChar: uni0236
Encoding: 566 566 539
GlifName: uni0236
Width: 1087
VWidth: 0
GlyphClass: 2
Flags: HW
LayerCount: 2
Fore
SplineSet
637 506 m 257
 637 309 l 257
 637 257 673 210 727 210 c 256
 781 210 817 255 817 309 c 256
 817 363 781 408 727 408 c 256
 397 407 271 -207 271 -207 c 257
 31 -69 l 257
 31 -69 202 648 727 648 c 256
 922 648 1087 522 1087 309 c 256
 1087 96 922 -30 727 -30 c 256
 532 -30 367 96 367 309 c 257
 277 309 l 257
 277 720 l 257
 25 720 l 257
 25 1028 l 257
 97 1028 l 257
 217 1028 301 1106 301 1226 c 257
 301 1320 l 257
 637 1320 l 257
 637 1040 l 257
 942 1040 l 257
 942 720 l 257
 637 720 l 257
 637 506 l 257
EndSplineSet
Substitution2: "smcpBasdecasseverspetitescapitalesdansLatinlookup0 subtable" uni0236.sc
EndChar

StartChar: uni0238
Encoding: 568 568 540
GlifName: uni0238
Width: 2000
VWidth: 0
GlyphClass: 2
Flags: HW
LayerCount: 2
Fore
SplineSet
820 510 m 256
 820 640 757 750 620 750 c 256
 483 750 410 650 410 520 c 256
 410 390 483 290 620 290 c 256
 751 290 820 380 820 510 c 256
820 1480 m 257
 1180 1480 l 257
 1180 920 l 257
 1190 959 1295 1070 1445 1070 c 256
 1765 1070 1950 840 1950 520 c 256
 1950 200 1765 -30 1445 -30 c 256
 1295 -30 1168 80 1168 120 c 257
 1168 0 l 257
 832 0 l 257
 832 120 l 257
 832 80 705 -30 555 -30 c 256
 235 -30 50 200 50 520 c 256
 50 840 235 1070 555 1070 c 256
 705 1070 810 959 820 920 c 257
 820 1480 l 257
1180 510 m 256
 1180 380 1249 290 1380 290 c 256
 1517 290 1590 390 1590 520 c 256
 1590 650 1517 750 1380 750 c 256
 1243 750 1180 640 1180 510 c 256
EndSplineSet
EndChar

StartChar: uni0239
Encoding: 569 569 541
GlifName: uni0239
Width: 2000
VWidth: 0
GlyphClass: 2
Flags: HW
LayerCount: 2
Fore
SplineSet
820 530 m 256
 820 400 757 290 620 290 c 256
 483 290 410 390 410 520 c 256
 410 650 483 750 620 750 c 256
 751 750 820 660 820 530 c 256
820 -440 m 257
 1180 -440 l 257
 1180 120 l 257
 1190 81 1295 -30 1445 -30 c 256
 1765 -30 1950 200 1950 520 c 256
 1950 840 1765 1070 1445 1070 c 256
 1295 1070 1168 960 1168 920 c 257
 1168 1040 l 257
 832 1040 l 257
 832 920 l 257
 832 960 705 1070 555 1070 c 256
 235 1070 50 840 50 520 c 256
 50 200 235 -30 555 -30 c 256
 705 -30 810 81 820 120 c 257
 820 -440 l 257
1180 530 m 256
 1180 660 1249 750 1380 750 c 256
 1517 750 1590 650 1590 520 c 256
 1590 390 1517 290 1380 290 c 256
 1243 290 1180 400 1180 530 c 256
EndSplineSet
EndChar

StartChar: uni0338
Encoding: 824 824 542
GlifName: uni0338
Width: 0
VWidth: 0
GlyphClass: 2
Flags: HW
LayerCount: 2
Fore
SplineSet
1046 1620 m 257
 1238 1476 l 257
 -61 -140 l 257
 -253 4 l 257
 1046 1620 l 257
EndSplineSet
EndChar

StartChar: uni0337
Encoding: 823 823 543
GlifName: uni0337
Width: 0
VWidth: 0
GlyphClass: 2
Flags: HW
LayerCount: 2
Fore
SplineSet
1016 1180 m 257
 1208 1036 l 257
 292 -140 l 257
 100 4 l 257
 1016 1180 l 257
EndSplineSet
EndChar

StartChar: uni023A
Encoding: 570 570 544
GlifName: uni023A_
Width: 1530
VWidth: 0
GlyphClass: 2
Flags: HW
LayerCount: 2
Fore
SplineSet
1318 1620 m 257
 1510 1476 l 257
 211 -140 l 257
 19 4 l 257
 1318 1620 l 257
316 688 m 257
 1187 688 l 257
 1187 352 l 257
 316 352 l 257
 316 688 l 257
769 1080 m 257
 427 0 l 257
 35 0 l 257
 527 1480 l 257
 1003 1480 l 257
 1495 0 l 257
 1103 0 l 257
 769 1080 l 257
EndSplineSet
EndChar

StartChar: uni023B
Encoding: 571 571 545
GlifName: uni023B_
Width: 1569
VWidth: 0
GlyphClass: 2
Flags: HW
LayerCount: 2
Fore
SplineSet
1377 1620 m 257
 1569 1476 l 257
 270 -140 l 257
 78 4 l 257
 1377 1620 l 257
1160 930 m 257
 1109 1078 991 1174 810 1174 c 256
 560 1174 430 990 430 740 c 256
 430 490 560 306 810 306 c 256
 991 306 1109 402 1160 550 c 257
 1485 360 l 257
 1365 120 1125 -30 810 -30 c 256
 350 -30 50 290 50 740 c 256
 50 1190 350 1510 810 1510 c 256
 1125 1510 1365 1360 1485 1120 c 257
 1160 930 l 257
EndSplineSet
Substitution2: "c2sc_CapitalesverspetitescapitalesdansLatinlookup0 subtable" uni023C.sc
EndChar

